{
.formatVersion = 3;
DisplayStrings = (
" "
);
familyName = "Selfie Neue Rnd Foodie";
customParameters = (
{
name = glyphOrder;
value = (
.notdef,
NULL,
CR,
space,
A,
B,
C,
D,
E,
F,
G,
H,
I,
J,
a,
b,
c,
d,
o,
j,
Q,
h,
i,
T,
U,
V,
W,
X,
O,
S,
K,
L,
M,
p,
u,
v,
w,
x,
q,
s,
k,
l,
m,
P,
N,
Y,
t,
z,
r,
f,
n,
y,
R,
g,
e,
Z,
period
);
}
);
fontMaster = (
{
customParameters = (
{
name = typoAscender;
value = 750;
},
{
name = typoDescender;
value = -250;
},
{
name = typoLineGap;
value = 100;
},
{
name = winAscent;
value = 750;
},
{
name = winDescent;
value = 250;
},
{
name = underlineThickness;
value = 50;
},
{
name = underlinePosition;
value = -100;
},
{
name = strikeoutPosition;
value = 300;
},
{
name = strikeoutSize;
value = 50;
},
{
name = subscriptXOffset;
value = 0;
},
{
name = subscriptXSize;
value = 650;
},
{
name = subscriptYOffset;
value = 75;
},
{
name = subscriptYSize;
value = 600;
},
{
name = superscriptXOffset;
value = 0;
},
{
name = superscriptXSize;
value = 650;
},
{
name = superscriptYOffset;
value = 350;
},
{
name = superscriptYSize;
value = 600;
},
{
name = hheaAscender;
value = 750;
},
{
name = hheaDescender;
value = -250;
},
{
name = hheaLineGap;
value = 100;
}
);
guides = (
{
position = "{0, 250}";
}
);
id = "2337EC1E-F8DF-4C20-93B2-D6C634D9C8F1";
metricValues = (
{
pos = 750;
},
{
pos = 700;
},
{
pos = -250;
},
{
pos = 0;
},
{
pos = 500;
}
);
}
);
glyphs = (
{
glyphname = A;
layers = (
{
layerId = "2337EC1E-F8DF-4C20-93B2-D6C634D9C8F1";
shapes = (
{
closed = 1;
nodes = (
(287,304,o),
(319,322,o),
(341,353,c),
(352,339,o),
(372,321,o),
(403,321,cs),
(461,321,o),
(508,368,o),
(508,426,cs),
(508,481,o),
(465,527,o),
(410,530,c),
(397,574,o),
(356,604,o),
(310,604,cs),
(273,604,o),
(239,584,o),
(220,552,c),
(202,567,o),
(179,575,o),
(155,575,cs),
(97,575,o),
(50,528,o),
(50,470,cs),
(50,414,o),
(95,368,o),
(151,366,c),
(170,328,o),
(209,304,o),
(252,304,cs)
);
},
{
closed = 1;
nodes = (
(178,551,o),
(200,541,o),
(215,524,cs),
(218,521,o),
(222,519,o),
(227,521,cs),
(231,522,o),
(234,525,o),
(236,529,c),
(236,531,l),
(249,561,o),
(278,580,o),
(310,580,cs),
(348,580,o),
(382,553,o),
(389,516,c),
(391,510,o),
(396,506,o),
(401,507,c),
(403,507,l),
(448,507,o),
(484,470,o),
(484,426,cs),
(484,381,o),
(448,345,o),
(403,345,cs),
(368,345,o),
(353,379,o),
(352,381,cs),
(350,385,o),
(346,388,o),
(342,388,cs),
(337,388,o),
(333,386,o),
(330,381,cs),
(317,355,o),
(290,328,o),
(252,328,cs),
(216,328,o),
(184,349,o),
(169,382,cs),
(167,387,o),
(163,389,o),
(158,389,cs),
(155,389,ls),
(110,389,o),
(74,426,o),
(74,470,cs),
(74,515,o),
(110,551,o),
(155,551,cs)
);
},
{
closed = 1;
nodes = (
(445,316,l),
(445,333,ls),
(445,340,o),
(439,345,o),
(433,345,cs),
(426,345,o),
(421,340,o),
(421,333,cs),
(421,24,l),
(366,24,l),
(366,353,ls),
(366,360,o),
(361,365,o),
(354,365,cs),
(348,365,o),
(342,360,o),
(342,353,cs),
(342,24,l),
(296,24,l),
(296,316,ls),
(296,322,o),
(291,328,o),
(284,328,cs),
(277,328,o),
(272,322,o),
(272,316,cs),
(272,24,l),
(226,24,l),
(226,323,ls),
(226,330,o),
(221,335,o),
(214,335,cs),
(208,335,o),
(202,330,o),
(202,323,cs),
(202,24,l),
(147,24,l),
(147,367,ls),
(147,373,o),
(142,379,o),
(135,379,cs),
(128,379,o),
(123,373,o),
(123,367,cs),
(123,12,ls),
(123,5,o),
(128,0,o),
(135,0,cs),
(433,0,ls),
(439,0,o),
(445,5,o),
(445,12,cs),
(445,92,l),
(518,92,ls),
(525,92,o),
(530,97,o),
(530,104,cs),
(530,304,ls),
(530,311,o),
(525,316,o),
(518,316,cs)
);
},
{
closed = 1;
nodes = (
(506,116,l),
(445,116,l),
(445,292,l),
(506,292,l)
);
},
{
closed = 1;
nodes = (
(139,512,o),
(119,492,o),
(119,467,cs),
(119,460,o),
(113,455,o),
(107,455,cs),
(100,455,o),
(95,460,o),
(95,467,cs),
(95,505,o),
(126,536,o),
(163,536,cs),
(170,536,o),
(175,530,o),
(175,524,cs),
(175,517,o),
(170,512,o),
(163,512,cs)
);
}
);
width = 580;
}
);
unicode = 65;
},
{
glyphname = B;
layers = (
{
layerId = "276078B1-9544-40AF-AB64-08B62BEE7F53";
associatedMasterId = "2337EC1E-F8DF-4C20-93B2-D6C634D9C8F1";
name = 1;
shapes = (
{
closed = 1;
nodes = (
(62,613,ls),
(55,613,o),
(50,608,o),
(50,601,cs),
(50,473,ls),
(50,409,o),
(70,349,o),
(106,303,cs),
(140,260,o),
(184,235,o),
(232,232,c),
(232,24,l),
(134,24,ls),
(127,24,o),
(122,18,o),
(122,12,cs),
(122,5,o),
(127,0,o),
(134,0,cs),
(355,0,ls),
(361,0,o),
(367,5,o),
(367,12,cs),
(367,18,o),
(361,24,o),
(355,24,cs),
(256,24,l),
(256,232,l),
(304,235,o),
(348,260,o),
(382,303,cs),
(418,349,o),
(438,409,o),
(438,473,cs),
(438,601,ls),
(438,608,o),
(433,613,o),
(426,613,cs)
);
},
{
closed = 1;
nodes = (
(414,473,ls),
(414,353,o),
(338,255,o),
(244,255,cs),
(150,255,o),
(74,353,o),
(74,473,cs),
(74,589,l),
(414,589,l)
);
},
{
closed = 1;
nodes = (
(243,334,o),
(244,333,o),
(245,333,c),
(246,333,o),
(247,334,o),
(249,334,c),
(249,334,o),
(268,340,o),
(287,354,cs),
(313,372,o),
(327,396,o),
(327,422,cs),
(327,448,o),
(306,469,o),
(280,469,cs),
(266,469,o),
(253,463,o),
(244,453,c),
(235,463,o),
(223,469,o),
(209,469,cs),
(183,469,o),
(161,448,o),
(161,422,cs),
(161,360,o),
(238,335,o),
(241,334,c)
);
},
{
closed = 1;
nodes = (
(222,445,o),
(232,435,o),
(232,422,cs),
(232,415,o),
(238,410,o),
(244,410,cs),
(251,410,o),
(256,415,o),
(256,422,cs),
(256,435,o),
(267,445,o),
(280,445,cs),
(293,445,o),
(303,435,o),
(303,422,cs),
(303,384,o),
(258,363,o),
(245,358,c),
(239,360,o),
(228,365,o),
(216,373,cs),
(196,387,o),
(185,404,o),
(185,422,cs),
(185,435,o),
(196,445,o),
(209,445,cs)
);
},
{
closed = 1;
nodes = (
(433,482,o),
(438,487,o),
(438,494,cs),
(438,504,o),
(437,520,o),
(429,533,cs),
(420,548,o),
(404,555,o),
(382,555,cs),
(340,555,o),
(315,515,o),
(290,515,cs),
(267,515,o),
(242,555,o),
(205,555,cs),
(168,555,o),
(141,517,o),
(114,517,cs),
(90,517,o),
(74,530,o),
(74,551,cs),
(74,557,o),
(70,563,o),
(63,563,cs),
(56,563,o),
(51,557,o),
(51,551,cs),
(51,516,o),
(76,493,o),
(114,493,cs),
(151,493,o),
(176,531,o),
(205,531,cs),
(234,531,o),
(256,491,o),
(290,491,cs),
(326,491,o),
(346,531,o),
(382,531,cs),
(406,531,o),
(414,521,o),
(414,494,cs),
(414,487,o),
(420,482,o),
(426,482,cs)
);
}
);
width = 488;
},
{
layerId = "2337EC1E-F8DF-4C20-93B2-D6C634D9C8F1";
shapes = (
{
closed = 1;
nodes = (
(232,56,ls),
(232,37,o),
(219,24,o),
(200,24,cs),
(134,24,ls),
(127,24,o),
(122,18,o),
(122,12,cs),
(122,5,o),
(127,0,o),
(134,0,cs),
(355,0,ls),
(361,0,o),
(367,5,o),
(367,12,cs),
(367,18,o),
(361,24,o),
(355,24,cs),
(288,24,ls),
(269,24,o),
(256,37,o),
(256,56,cs),
(256,232,l),
(374,239,o),
(438,367,o),
(438,473,cs),
(438,601,ls),
(438,608,o),
(433,613,o),
(426,613,cs),
(62,613,ls),
(55,613,o),
(50,608,o),
(50,601,cs),
(50,473,ls),
(50,367,o),
(114,239,o),
(232,232,c)
);
},
{
closed = 1;
nodes = (
(74,589,l),
(414,589,l),
(414,548,l),
(405,553,o),
(395,555,o),
(382,555,cs),
(340,555,o),
(315,515,o),
(290,515,cs),
(267,515,o),
(242,555,o),
(205,555,cs),
(168,555,o),
(141,517,o),
(114,517,cs),
(90,517,o),
(74,530,o),
(74,551,cs)
);
},
{
closed = 1;
nodes = (
(414,473,ls),
(414,353,o),
(338,255,o),
(244,255,cs),
(150,255,o),
(74,353,o),
(74,473,cs),
(74,504,l),
(84,497,o),
(98,493,o),
(114,493,cs),
(151,493,o),
(176,531,o),
(205,531,cs),
(234,531,o),
(256,491,o),
(290,491,cs),
(326,491,o),
(346,531,o),
(382,531,cs),
(406,531,o),
(414,521,o),
(414,494,cs)
);
},
{
closed = 1;
nodes = (
(279,334,o),
(327,383,o),
(327,422,cs),
(327,448,o),
(306,469,o),
(280,469,cs),
(266,469,o),
(253,463,o),
(244,453,c),
(235,463,o),
(223,469,o),
(209,469,cs),
(183,469,o),
(161,448,o),
(161,422,cs),
(161,360,o),
(238,335,o),
(241,334,c)
);
},
{
closed = 1;
nodes = (
(222,445,o),
(232,435,o),
(232,422,cs),
(232,415,o),
(238,410,o),
(244,410,cs),
(251,410,o),
(256,415,o),
(256,422,cs),
(256,435,o),
(267,445,o),
(280,445,cs),
(293,445,o),
(303,435,o),
(303,422,cs),
(303,384,o),
(258,363,o),
(245,358,c),
(218,367,o),
(185,391,o),
(185,422,cs),
(185,435,o),
(196,445,o),
(209,445,cs)
);
}
);
width = 488;
}
);
unicode = 66;
},
{
glyphname = C;
layers = (
{
layerId = "2337EC1E-F8DF-4C20-93B2-D6C634D9C8F1";
shapes = (
{
closed = 1;
nodes = (
(299,56,ls),
(299,37,o),
(286,24,o),
(267,24,cs),
(159,24,ls),
(153,24,o),
(147,19,o),
(147,12,cs),
(147,5,o),
(153,0,o),
(159,0,cs),
(452,0,ls),
(458,0,o),
(464,5,o),
(464,12,cs),
(464,19,o),
(458,24,o),
(452,24,cs),
(355,24,ls),
(336,24,o),
(323,37,o),
(323,56,cs),
(323,267,l),
(557,492,ls),
(561,495,o),
(562,500,o),
(560,505,cs),
(558,510,o),
(554,512,o),
(549,512,cs),
(62,512,ls),
(57,512,o),
(53,509,o),
(51,505,cs),
(49,500,o),
(50,495,o),
(54,492,cs),
(299,267,l)
);
},
{
closed = 1;
nodes = (
(93,488,l),
(329,488,l),
(320,488,o),
(304,471,o),
(299,459,c),
(296,448,l),
(277,453,o),
(256,451,o),
(241,439,cs),
(218,419,o),
(196,400,o),
(166,421,c)
);
},
{
closed = 1;
nodes = (
(519,488,l),
(450,422,l),
(449,426,o),
(448,430,o),
(446,434,cs),
(442,445,o),
(433,454,o),
(422,458,cs),
(409,463,o),
(396,463,o),
(385,457,c),
(382,465,o),
(366,488,o),
(357,488,c)
);
},
{
closed = 1;
nodes = (
(371,417,o),
(375,417,o),
(378,418,cs),
(381,419,o),
(383,421,o),
(384,424,cs),
(389,435,o),
(401,441,o),
(412,436,cs),
(418,434,o),
(422,430,o),
(424,425,cs),
(427,419,o),
(427,413,o),
(424,408,c),
(411,375,o),
(365,373,o),
(351,373,c),
(341,383,o),
(308,417,o),
(322,450,cs),
(324,455,o),
(328,460,o),
(333,462,cs),
(339,464,o),
(345,464,o),
(350,462,cs),
(355,460,o),
(360,455,o),
(362,450,cs),
(364,445,o),
(364,439,o),
(362,433,cs),
(359,427,o),
(362,420,o),
(368,418,cs)
);
},
{
closed = 1;
nodes = (
(201,389,l),
(223,391,o),
(234,403,o),
(250,415,cs),
(265,427,o),
(285,427,o),
(295,424,c),
(297,411,o),
(302,397,o),
(311,384,cs),
(320,369,o),
(334,349,o),
(353,349,cs),
(358,349,o),
(367,350,o),
(376,351,c),
(311,288,l)
);
}
);
width = 611;
}
);
unicode = 67;
},
{
glyphname = D;
layers = (
{
layerId = "2337EC1E-F8DF-4C20-93B2-D6C634D9C8F1";
shapes = (
{
closed = 1;
nodes = (
(542,234,o),
(544,236,o),
(545,237,c),
(556,252,o),
(561,273,o),
(561,294,cs),
(561,434,o),
(436,512,o),
(306,512,cs),
(178,512,o),
(51,434,o),
(51,294,c),
(50,294,o),
(50,293,o),
(50,292,c),
(50,271,o),
(56,252,o),
(67,237,c),
(68,236,o),
(70,234,o),
(71,232,c),
(70,232,l),
(64,228,o),
(55,220,o),
(55,204,cs),
(55,191,o),
(61,179,o),
(69,171,c),
(61,163,o),
(55,151,o),
(55,138,cs),
(55,129,ls),
(55,118,o),
(60,107,o),
(66,99,c),
(60,93,o),
(55,84,o),
(55,74,cs),
(55,36,ls),
(55,17,o),
(70,1,o),
(88,1,cs),
(524,1,ls),
(542,1,o),
(556,17,o),
(556,36,cs),
(556,74,ls),
(556,84,o),
(552,93,o),
(546,99,c),
(552,107,o),
(556,118,o),
(556,129,cs),
(556,138,ls),
(556,151,o),
(551,163,o),
(543,171,c),
(551,179,o),
(556,191,o),
(556,204,cs),
(556,220,o),
(548,228,o),
(541,232,c)
);
},
{
closed = 1;
nodes = (
(532,129,ls),
(532,118,o),
(524,108,o),
(514,108,cs),
(323,108,l),
(358,159,l),
(514,159,ls),
(524,159,o),
(532,150,o),
(532,138,cs)
);
},
{
closed = 1;
nodes = (
(79,138,ls),
(79,150,o),
(88,159,o),
(97,159,c),
(193,159,l),
(232,108,l),
(97,108,ls),
(88,108,o),
(79,118,o),
(79,129,cs)
);
},
{
closed = 1;
nodes = (
(208,179,ls),
(206,181,o),
(202,183,o),
(199,183,cs),
(97,183,ls),
(88,183,o),
(79,192,o),
(79,204,cs),
(79,209,o),
(79,213,o),
(97,213,cs),
(514,213,ls),
(532,213,o),
(532,209,o),
(532,204,cs),
(532,192,o),
(524,183,o),
(514,183,cs),
(352,183,ls),
(348,183,o),
(344,181,o),
(342,178,cs),
(279,87,l)
);
},
{
closed = 1;
nodes = (
(161,242,o),
(163,240,o),
(164,237,c),
(155,237,l),
(157,240,o),
(158,242,o),
(160,245,c)
);
},
{
closed = 1;
nodes = (
(244,280,l),
(240,256,o),
(226,237,o),
(208,237,cs),
(191,237,o),
(176,256,o),
(173,280,c)
);
},
{
closed = 1;
nodes = (
(253,237,l),
(254,240,o),
(256,242,o),
(257,245,c),
(259,242,o),
(260,240,o),
(262,237,c)
);
},
{
closed = 1;
nodes = (
(342,280,l),
(338,256,o),
(323,237,o),
(306,237,cs),
(289,237,o),
(274,256,o),
(270,280,c)
);
},
{
closed = 1;
nodes = (
(356,242,o),
(358,240,o),
(359,237,c),
(350,237,l),
(352,240,o),
(353,242,o),
(355,245,c)
);
},
{
closed = 1;
nodes = (
(439,280,l),
(435,256,o),
(421,237,o),
(403,237,cs),
(386,237,o),
(371,256,o),
(368,280,c)
);
},
{
closed = 1;
nodes = (
(448,237,l),
(449,240,o),
(451,242,o),
(452,245,c),
(453,242,o),
(455,240,o),
(457,237,c)
);
},
{
closed = 1;
nodes = (
(537,280,l),
(533,256,o),
(518,237,o),
(501,237,cs),
(484,237,o),
(469,256,o),
(465,280,c)
);
},
{
closed = 1;
nodes = (
(147,280,l),
(143,256,o),
(128,237,o),
(111,237,cs),
(94,237,o),
(79,256,o),
(75,280,c)
);
},
{
closed = 1;
nodes = (
(420,488,o),
(527,425,o),
(537,304,c),
(75,304,l),
(80,425,o),
(196,488,o),
(306,488,cs)
);
},
{
closed = 1;
nodes = (
(532,36,ls),
(532,30,o),
(528,25,o),
(524,25,cs),
(88,25,ls),
(83,25,o),
(79,30,o),
(79,36,cs),
(79,74,ls),
(79,80,o),
(83,84,o),
(88,84,cs),
(248,84,l),
(249,84,o),
(250,84,o),
(251,85,c),
(270,59,ls),
(273,56,o),
(276,54,o),
(280,54,c),
(284,54,o),
(288,56,o),
(290,59,cs),
(307,84,l),
(524,84,ls),
(528,84,o),
(532,80,o),
(532,74,cs)
);
}
);
width = 611;
}
);
unicode = 68;
},
{
glyphname = E;
layers = (
{
background = {
shapes = (
{
closed = 1;
nodes = (
(593,243,o),
(590,252,o),
(586,259,cs),
(578,274,o),
(564,286,o),
(547,291,cs),
(537,294,o),
(525,294,o),
(514,293,cs),
(504,292,o),
(493,289,o),
(483,285,c),
(470,278,o),
(459,267,o),
(448,257,cs),
(446,256,o),
(445,255,o),
(443,254,c),
(443,253,o),
(442,252,o),
(441,252,c),
(440,251,o),
(439,251,o),
(442,253,c),
(442,252,o),
(441,252,o),
(441,252,c),
(438,249,o),
(435,248,o),
(431,246,c),
(431,246,o),
(430,245,o),
(430,245,c),
(427,244,o),
(433,246,o),
(431,246,c),
(430,245,o),
(429,245,o),
(428,245,c),
(426,244,o),
(424,243,o),
(422,243,c),
(421,242,o),
(420,242,o),
(419,242,c),
(418,242,o),
(417,242,o),
(417,242,c),
(421,243,o),
(418,242,o),
(417,242,c),
(415,242,o),
(412,242,o),
(409,242,cs),
(403,242,o),
(397,236,o),
(397,230,c),
(398,223,o),
(403,218,o),
(409,218,c),
(410,218,o),
(411,218,o),
(412,218,c),
(418,218,o),
(424,223,o),
(424,230,c),
(423,236,o),
(418,242,o),
(412,242,c),
(410,242,o),
(408,242,o),
(407,242,c),
(406,242,o),
(405,242,o),
(404,242,c),
(403,242,o),
(400,243,o),
(404,242,c),
(401,242,o),
(398,243,o),
(395,244,c),
(394,244,o),
(393,244,o),
(392,245,c),
(391,245,o),
(391,245,o),
(390,246,c),
(389,246,o),
(393,244,o),
(392,245,c),
(391,245,o),
(391,245,o),
(390,245,c),
(388,247,o),
(386,248,o),
(384,249,c),
(383,250,o),
(382,250,o),
(381,251,c),
(380,251,o),
(380,252,o),
(379,252,c),
(379,252,o),
(379,252,o),
(379,253,c),
(377,254,o),
(380,252,o),
(380,252,c),
(378,253,o),
(376,255,o),
(374,256,c),
(371,260,o),
(367,263,o),
(363,266,cs),
(354,275,o),
(344,282,o),
(332,287,cs),
(326,289,o),
(320,291,o),
(313,292,cs),
(305,293,o),
(296,294,o),
(288,293,cs),
(274,292,o),
(261,287,o),
(250,278,cs),
(245,275,o),
(240,270,o),
(235,266,cs),
(233,264,o),
(231,262,o),
(229,260,c),
(228,260,o),
(227,259,o),
(226,258,c),
(225,257,o),
(225,257,o),
(224,257,c),
(227,259,o),
(225,257,o),
(224,257,c),
(222,255,o),
(219,253,o),
(217,252,cs),
(215,251,o),
(214,250,o),
(213,250,c),
(212,249,o),
(212,249,o),
(211,249,c),
(211,249,o),
(210,248,o),
(210,248,c),
(208,247,o),
(210,249,o),
(211,249,c),
(208,248,o),
(205,247,o),
(202,246,cs),
(200,245,o),
(199,245,o),
(197,245,c),
(194,244,o),
(200,245,o),
(197,245,c),
(196,245,o),
(195,245,o),
(194,245,c),
(190,244,o),
(186,244,o),
(182,245,c),
(181,245,o),
(180,245,o),
(179,245,c),
(179,245,o),
(178,245,o),
(178,245,c),
(178,245,o),
(181,244,o),
(179,245,c),
(177,245,o),
(175,245,o),
(173,246,cs),
(170,247,o),
(167,248,o),
(164,249,cs),
(161,250,o),
(166,248,o),
(164,249,c),
(163,249,o),
(163,249,o),
(162,250,c),
(160,250,o),
(159,251,o),
(157,252,cs),
(155,253,o),
(153,255,o),
(150,257,cs),
(148,258,o),
(152,255,o),
(151,256,c),
(150,257,o),
(150,257,o),
(149,258,c),
(148,259,o),
(147,260,o),
(146,261,c),
(144,262,o),
(142,264,o),
(141,266,c),
(140,267,o),
(139,268,o),
(138,269,c),
(137,271,o),
(139,268,o),
(139,268,c),
(139,268,o),
(138,269,o),
(138,269,c),
(136,272,o),
(134,276,o),
(132,279,c),
(131,280,o),
(131,281,o),
(130,282,c),
(130,283,o),
(130,283,o),
(129,284,c),
(129,286,o),
(130,282,o),
(130,282,c),
(130,282,o),
(130,283,o),
(130,283,c),
(128,289,o),
(122,293,o),
(115,291,cs),
(109,289,o),
(104,283,o),
(107,276,cs),
(112,262,o),
(122,248,o),
(134,239,cs),
(147,229,o),
(161,223,o),
(177,221,cs),
(193,219,o),
(210,221,o),
(224,229,c),
(236,234,o),
(245,243,o),
(254,251,cs),
(256,253,o),
(259,255,o),
(261,257,c),
(261,257,o),
(262,257,o),
(262,258,c),
(265,260,o),
(261,256,o),
(262,258,c),
(263,259,o),
(264,259,o),
(266,260,cs),
(268,262,o),
(271,263,o),
(273,265,c),
(274,265,o),
(276,267,o),
(277,267,c),
(277,267,o),
(274,265,o),
(276,266,c),
(276,266,o),
(276,266,o),
(277,266,c),
(277,267,o),
(278,267,o),
(279,267,c),
(280,268,o),
(282,268,o),
(283,268,c),
(284,269,o),
(285,269,o),
(286,269,c),
(286,269,o),
(289,269,o),
(287,269,c),
(285,269,o),
(288,269,o),
(288,269,c),
(289,269,o),
(290,269,o),
(291,269,c),
(293,270,o),
(295,270,o),
(297,269,c),
(299,269,o),
(301,269,o),
(303,269,c),
(304,269,o),
(305,269,o),
(306,269,c),
(306,269,o),
(307,269,o),
(307,269,c),
(309,269,o),
(307,269,o),
(306,269,c),
(310,268,o),
(313,268,o),
(317,267,c),
(318,266,o),
(320,266,o),
(321,266,c),
(322,265,o),
(325,265,o),
(326,264,c),
(326,264,o),
(323,265,o),
(324,264,c),
(325,264,o),
(325,264,o),
(325,264,c),
(326,264,o),
(327,263,o),
(327,263,c),
(329,262,o),
(330,262,o),
(331,261,c),
(334,260,o),
(336,258,o),
(338,257,c),
(339,256,o),
(339,256,o),
(340,255,c),
(341,254,o),
(337,257,o),
(339,256,c),
(340,255,o),
(341,254,o),
(342,253,c),
(351,246,o),
(358,238,o),
(367,232,cs),
(377,224,o),
(389,220,o),
(401,218,c),
(405,218,o),
(408,218,o),
(412,218,c),
(412,226,o),
(412,234,o),
(412,242,c),
(411,242,o),
(410,242,o),
(409,242,c),
(409,234,o),
(409,226,o),
(409,218,c),
(418,218,o),
(428,219,o),
(436,222,cs),
(444,225,o),
(451,230,o),
(458,235,cs),
(463,239,o),
(468,244,o),
(473,248,cs),
(475,250,o),
(478,253,o),
(481,255,c),
(481,255,o),
(482,256,o),
(482,256,c),
(479,254,o),
(481,255,o),
(482,256,c),
(484,257,o),
(485,258,o),
(487,259,cs),
(490,261,o),
(494,263,o),
(497,265,c),
(493,263,o),
(497,264,o),
(498,265,c),
(498,265,o),
(499,265,o),
(500,266,c),
(503,266,o),
(505,267,o),
(507,268,c),
(509,268,o),
(511,268,o),
(513,269,c),
(514,269,o),
(516,269,o),
(513,269,c),
(513,269,o),
(514,269,o),
(515,269,c),
(516,269,o),
(518,269,o),
(519,269,c),
(524,270,o),
(529,269,o),
(535,269,c),
(530,269,o),
(535,269,o),
(536,269,c),
(537,269,o),
(538,268,o),
(539,268,c),
(541,268,o),
(543,267,o),
(545,266,c),
(546,266,o),
(547,265,o),
(544,267,c),
(544,266,o),
(545,266,o),
(545,266,c),
(546,266,o),
(547,265,o),
(548,265,c),
(549,264,o),
(551,263,o),
(553,261,c),
(553,261,o),
(553,261,o),
(554,261,c),
(555,260,o),
(551,263,o),
(553,262,c),
(553,261,o),
(554,260,o),
(555,260,c),
(556,258,o),
(557,257,o),
(559,256,c),
(559,255,o),
(560,255,o),
(560,254,c),
(561,253,o),
(563,251,o),
(560,254,c),
(561,253,o),
(562,252,o),
(563,250,cs),
(565,247,o),
(566,244,o),
(568,241,c),
(568,241,o),
(568,241,o),
(568,241,c),
(569,238,o),
(567,244,o),
(568,242,c),
(568,241,o),
(568,241,o),
(568,240,c),
(569,239,o),
(569,238,o),
(570,236,c),
(570,234,o),
(571,232,o),
(571,229,c),
(573,223,o),
(581,219,o),
(586,221,cs),
(593,223,o),
(596,229,o),
(595,236,cs)
);
}
);
};
layerId = "2337EC1E-F8DF-4C20-93B2-D6C634D9C8F1";
shapes = (
{
closed = 1;
nodes = (
(605,356,ls),
(605,402,o),
(567,440,o),
(521,440,cs),
(180,440,ls),
(134,440,o),
(96,402,o),
(96,356,cs),
(96,339,l),
(70,332,o),
(50,309,o),
(50,280,cs),
(50,231,ls),
(50,203,o),
(70,179,o),
(96,172,c),
(96,155,ls),
(96,109,o),
(134,71,o),
(180,71,cs),
(521,71,ls),
(567,71,o),
(605,109,o),
(605,155,cs),
(605,172,l),
(632,179,o),
(651,203,o),
(651,231,cs),
(651,280,ls),
(651,309,o),
(632,332,o),
(605,339,c)
);
},
{
closed = 1;
nodes = (
(521,416,ls),
(554,416,o),
(581,389,o),
(581,356,cs),
(581,341,l),
(120,341,l),
(120,356,ls),
(120,389,o),
(147,416,o),
(180,416,cs)
);
},
{
closed = 1;
nodes = (
(180,95,ls),
(147,95,o),
(120,122,o),
(120,155,cs),
(120,170,l),
(581,170,l),
(581,155,ls),
(581,122,o),
(554,95,o),
(521,95,cs)
);
},
{
closed = 1;
nodes = (
(627,231,ls),
(627,211,o),
(611,194,o),
(591,194,cs),
(111,194,ls),
(90,194,o),
(74,211,o),
(74,231,cs),
(74,280,ls),
(74,300,o),
(90,317,o),
(111,317,cs),
(591,317,ls),
(611,317,o),
(627,300,o),
(627,280,cs)
);
},
{
closed = 1;
nodes = (
(122,298,o),
(101,286,o),
(110,272,cs),
(119,256,o),
(145,221,o),
(188,221,cs),
(239,221,o),
(260,271,o),
(297,271,cs),
(335,271,o),
(355,221,o),
(406,221,cs),
(457,221,o),
(478,271,o),
(515,271,cs),
(545,271,o),
(565,252,o),
(572,234,cs),
(577,219,o),
(600,227,o),
(594,242,cs),
(585,268,o),
(557,295,o),
(515,295,cs),
(469,295,o),
(446,245,o),
(406,245,cs),
(368,245,o),
(342,295,o),
(297,295,cs),
(251,295,o),
(228,245,o),
(188,245,cs),
(159,245,o),
(139,270,o),
(130,284,cs)
);
}
);
width = 701;
}
);
unicode = 69;
},
{
glyphname = F;
layers = (
{
layerId = "2337EC1E-F8DF-4C20-93B2-D6C634D9C8F1";
shapes = (
{
closed = 1;
nodes = (
(350,27,l),
(357,27,o),
(364,30,o),
(370,33,cs),
(605,175,l),
(608,177,o),
(611,181,o),
(611,185,cs),
(611,380,ls),
(611,387,o),
(606,392,o),
(599,392,cs),
(306,392,ls),
(302,392,o),
(299,390,o),
(297,387,c),
(53,46,ls),
(50,42,o),
(50,37,o),
(52,33,cs),
(54,29,o),
(58,27,o),
(63,27,c)
);
},
{
closed = 1;
nodes = (
(538,241,o),
(525,237,o),
(515,241,c),
(544,282,l),
(551,274,o),
(552,260,o),
(545,251,cs)
);
},
{
closed = 1;
nodes = (
(413,368,l),
(409,359,o),
(400,353,o),
(390,353,cs),
(380,353,o),
(371,359,o),
(367,368,c)
);
},
{
closed = 1;
nodes = (
(269,274,o),
(267,267,o),
(263,262,cs),
(255,252,o),
(242,249,o),
(231,254,c),
(261,296,l),
(265,292,o),
(267,287,o),
(268,281,cs)
);
},
{
closed = 1;
nodes = (
(217,234,l),
(225,230,o),
(233,227,o),
(242,227,c),
(244,227,o),
(247,227,o),
(249,228,c),
(262,230,o),
(274,237,o),
(282,247,cs),
(290,258,o),
(294,271,o),
(292,284,cs),
(290,297,o),
(284,307,o),
(275,315,c),
(313,368,l),
(341,368,l),
(347,346,o),
(366,329,o),
(390,329,cs),
(414,329,o),
(433,346,o),
(439,368,c),
(575,368,l),
(349,51,l),
(332,51,l),
(328,75,o),
(307,94,o),
(282,94,cs),
(257,94,o),
(235,75,o),
(232,51,c),
(86,51,l)
);
},
{
closed = 1;
nodes = (
(257,51,l),
(260,62,o),
(270,70,o),
(282,70,cs),
(294,70,o),
(304,62,o),
(307,51,c)
);
},
{
closed = 1;
nodes = (
(480,144,o),
(485,150,o),
(491,154,cs),
(497,157,o),
(504,158,o),
(511,156,cs),
(514,155,o),
(517,154,o),
(520,152,c),
(478,126,l),
(477,130,o),
(477,134,o),
(478,138,cs)
);
},
{
closed = 1;
nodes = (
(587,192,l),
(541,164,l),
(535,172,o),
(526,177,o),
(517,179,cs),
(504,183,o),
(490,181,o),
(479,174,c),
(467,168,o),
(459,157,o),
(455,144,c),
(453,134,o),
(453,123,o),
(457,114,c),
(398,79,l),
(500,221,l),
(508,218,o),
(516,216,o),
(523,216,cs),
(539,216,o),
(555,223,o),
(564,237,c),
(579,257,o),
(576,285,o),
(558,302,c),
(587,342,l)
);
},
{
closed = 1;
nodes = (
(271,100,o),
(294,122,o),
(294,150,cs),
(294,178,o),
(271,200,o),
(244,200,cs),
(216,200,o),
(193,178,o),
(193,150,cs),
(193,122,o),
(216,100,o),
(244,100,cs)
);
},
{
closed = 1;
nodes = (
(258,176,o),
(270,165,o),
(270,150,cs),
(270,136,o),
(258,124,o),
(244,124,cs),
(229,124,o),
(217,136,o),
(217,150,cs),
(217,165,o),
(229,176,o),
(244,176,cs)
);
},
{
closed = 1;
nodes = (
(421,194,o),
(444,216,o),
(444,244,cs),
(444,272,o),
(421,294,o),
(393,294,cs),
(366,294,o),
(343,272,o),
(343,244,cs),
(343,216,o),
(366,194,o),
(393,194,cs)
);
},
{
closed = 1;
nodes = (
(408,270,o),
(420,258,o),
(420,244,cs),
(420,229,o),
(408,218,o),
(393,218,cs),
(379,218,o),
(367,229,o),
(367,244,cs),
(367,258,o),
(379,270,o),
(393,270,cs)
);
}
);
width = 661;
}
);
unicode = 70;
},
{
glyphname = G;
layers = (
{
layerId = "2337EC1E-F8DF-4C20-93B2-D6C634D9C8F1";
shapes = (
{
closed = 1;
nodes = (
(370,561,o),
(325,563,o),
(281,556,cs),
(275,555,o),
(271,549,o),
(272,543,c),
(272,537,l),
(272,536,o),
(273,534,o),
(273,533,c),
(277,524,o),
(278,514,o),
(275,505,cs),
(272,496,o),
(265,489,o),
(256,484,cs),
(246,479,o),
(234,480,o),
(224,485,cs),
(219,487,o),
(213,487,o),
(210,483,cs),
(206,479,o),
(204,472,o),
(208,468,c),
(212,459,o),
(213,449,o),
(209,440,cs),
(206,431,o),
(200,424,o),
(191,420,cs),
(182,415,o),
(172,415,o),
(162,418,cs),
(157,420,o),
(152,419,o),
(148,415,c),
(145,410,o),
(145,405,o),
(148,400,c),
(149,399,o),
(150,397,o),
(151,395,cs),
(160,377,o),
(152,355,o),
(134,347,cs),
(116,338,o),
(95,346,o),
(86,364,cs),
(84,367,o),
(81,370,o),
(77,370,c),
(76,370,l),
(70,371,o),
(64,368,o),
(63,362,c),
(32,263,o),
(59,155,o),
(132,82,cs),
(185,29,o),
(255,0,o),
(330,0,cs),
(485,0,o),
(610,125,o),
(610,280,cs),
(610,404,o),
(529,511,o),
(412,548,cs)
);
},
{
closed = 1;
nodes = (
(262,24,o),
(198,50,o),
(149,99,cs),
(87,161,o),
(62,249,o),
(80,333,c),
(97,318,o),
(123,314,o),
(145,325,cs),
(170,337,o),
(183,365,o),
(177,392,c),
(186,392,o),
(194,394,o),
(201,398,cs),
(216,405,o),
(227,417,o),
(232,432,cs),
(235,440,o),
(236,449,o),
(235,457,c),
(246,456,o),
(257,458,o),
(267,463,cs),
(281,470,o),
(292,482,o),
(297,497,cs),
(302,509,o),
(302,522,o),
(298,534,c),
(334,538,o),
(371,535,o),
(405,525,cs),
(513,493,o),
(586,392,o),
(586,280,cs),
(586,138,o),
(472,24,o),
(330,24,cs)
);
},
{
closed = 1;
nodes = (
(490,310,o),
(476,297,o),
(476,280,cs),
(476,263,o),
(490,250,o),
(506,250,cs),
(523,250,o),
(537,263,o),
(537,280,cs),
(537,297,o),
(523,310,o),
(506,310,cs)
);
},
{
closed = 1;
nodes = (
(342,280,o),
(329,266,o),
(329,250,cs),
(329,233,o),
(342,220,o),
(359,220,cs),
(376,220,o),
(389,233,o),
(389,250,cs),
(389,266,o),
(376,280,o),
(359,280,cs)
);
},
{
closed = 1;
nodes = (
(314,153,o),
(300,139,o),
(300,123,cs),
(300,106,o),
(314,92,o),
(330,92,cs),
(347,92,o),
(360,106,o),
(360,123,cs),
(360,139,o),
(347,153,o),
(330,153,cs)
);
},
{
closed = 1;
nodes = (
(366,453,o),
(352,439,o),
(352,423,cs),
(352,406,o),
(366,392,o),
(383,392,cs),
(399,392,o),
(413,406,o),
(413,423,cs),
(413,439,o),
(399,453,o),
(383,453,cs)
);
},
{
closed = 1;
nodes = (
(179,293,o),
(165,279,o),
(165,262,cs),
(165,246,o),
(179,232,o),
(195,232,cs),
(212,232,o),
(226,246,o),
(226,262,cs),
(226,279,o),
(212,293,o),
(195,293,cs)
);
}
);
width = 660;
}
);
unicode = 71;
},
{
glyphname = H;
layers = (
{
layerId = "2337EC1E-F8DF-4C20-93B2-D6C634D9C8F1";
shapes = (
{
closed = 1;
nodes = (
(535,700,o),
(527,702,o),
(521,699,cs),
(510,694,o),
(248,561,o),
(201,514,cs),
(156,468,o),
(177,430,o),
(196,397,cs),
(213,366,o),
(217,353,o),
(217,338,cs),
(217,327,o),
(213,314,o),
(211,308,c),
(62,308,ls),
(55,308,o),
(50,302,o),
(50,296,cs),
(50,199,o),
(108,112,o),
(197,74,c),
(143,20,l),
(139,17,o),
(138,12,o),
(140,7,cs),
(142,3,o),
(146,0,o),
(151,0,cs),
(436,0,ls),
(441,0,o),
(445,3,o),
(447,7,cs),
(449,12,o),
(448,17,o),
(445,20,cs),
(388,77,l),
(475,116,o),
(530,200,o),
(530,296,cs),
(530,302,o),
(524,308,o),
(518,308,cs),
(377,308,l),
(381,320,o),
(385,339,o),
(385,357,cs),
(385,390,o),
(371,409,o),
(351,433,cs),
(328,461,o),
(322,473,o),
(322,494,cs),
(322,547,o),
(360,586,o),
(404,611,c),
(472,647,o),
(532,677,o),
(532,678,c),
(538,681,o),
(541,688,o),
(538,694,cs)
);
},
{
closed = 1;
nodes = (
(199,441,o),
(186,464,o),
(218,497,cs),
(227,506,o),
(240,514,o),
(250,521,c),
(242,507,o),
(237,491,o),
(237,475,cs),
(237,437,o),
(251,416,o),
(264,397,cs),
(274,381,o),
(283,366,o),
(283,346,cs),
(283,325,o),
(279,313,o),
(277,308,c),
(236,308,l),
(240,323,o),
(241,331,o),
(241,338,cs),
(241,364,o),
(229,386,o),
(217,408,cs)
);
},
{
closed = 1;
nodes = (
(407,24,l),
(180,24,l),
(222,66,l),
(244,59,o),
(267,56,o),
(290,56,cs),
(315,56,o),
(340,60,o),
(364,67,c)
);
},
{
closed = 1;
nodes = (
(175,80,o),
(81,169,o),
(74,284,c),
(506,284,l),
(499,169,o),
(405,80,o),
(290,80,cs)
);
},
{
closed = 1;
nodes = (
(348,400,o),
(361,384,o),
(361,357,cs),
(361,338,o),
(355,317,o),
(352,308,c),
(302,308,l),
(305,317,o),
(307,329,o),
(307,346,cs),
(307,372,o),
(297,389,o),
(284,410,cs),
(269,432,o),
(261,448,o),
(261,475,cs),
(261,510,o),
(294,542,o),
(314,558,c),
(314,557,o),
(313,555,o),
(312,554,c),
(298,526,o),
(298,502,o),
(298,494,cs),
(298,461,o),
(312,441,o),
(333,417,cs)
);
}
);
width = 590;
}
);
unicode = 72;
},
{
glyphname = I;
layers = (
{
layerId = "2337EC1E-F8DF-4C20-93B2-D6C634D9C8F1";
shapes = (
{
closed = 1;
nodes = (
(128,323,o),
(55,300,o),
(55,243,cs),
(55,132,ls),
(55,76,o),
(128,52,o),
(174,52,cs),
(220,52,o),
(293,76,o),
(293,132,cs),
(293,243,ls),
(293,300,o),
(220,323,o),
(174,323,cs)
);
},
{
closed = 1;
nodes = (
(225,299,o),
(269,274,o),
(269,243,cs),
(269,212,o),
(225,187,o),
(174,187,cs),
(122,187,o),
(79,212,o),
(79,243,cs),
(79,274,o),
(122,299,o),
(174,299,cs)
);
},
{
closed = 1;
nodes = (
(202,206,o),
(225,222,o),
(225,243,cs),
(225,264,o),
(202,280,o),
(174,280,cs),
(145,280,o),
(123,264,o),
(123,243,cs),
(123,222,o),
(145,206,o),
(174,206,cs)
);
},
{
closed = 1;
nodes = (
(190,256,o),
(201,248,o),
(201,243,cs),
(201,238,o),
(190,230,o),
(174,230,cs),
(157,230,o),
(147,238,o),
(147,243,cs),
(147,248,o),
(157,256,o),
(174,256,cs)
);
},
{
closed = 1;
nodes = (
(407,472,o),
(335,448,o),
(335,391,cs),
(335,281,ls),
(335,224,o),
(407,200,o),
(454,200,cs),
(501,200,o),
(573,224,o),
(573,281,cs),
(573,391,ls),
(573,448,o),
(501,472,o),
(454,472,cs)
);
},
{
closed = 1;
nodes = (
(505,448,o),
(549,422,o),
(549,391,cs),
(549,361,o),
(505,335,o),
(454,335,cs),
(402,335,o),
(359,361,o),
(359,391,cs),
(359,422,o),
(402,448,o),
(454,448,cs)
);
},
{
closed = 1;
nodes = (
(482,354,o),
(505,371,o),
(505,391,cs),
(505,412,o),
(482,428,o),
(454,428,cs),
(425,428,o),
(402,412,o),
(402,391,cs),
(402,371,o),
(425,354,o),
(454,354,cs)
);
},
{
closed = 1;
nodes = (
(470,404,o),
(481,396,o),
(481,391,cs),
(481,386,o),
(470,378,o),
(454,378,cs),
(437,378,o),
(426,386,o),
(426,391,cs),
(426,396,o),
(437,404,o),
(454,404,cs)
);
},
{
closed = 1;
nodes = (
(215,360,o),
(288,383,o),
(288,440,cs),
(288,551,ls),
(288,607,o),
(215,631,o),
(169,631,cs),
(123,631,o),
(50,607,o),
(50,551,cs),
(50,440,ls),
(50,383,o),
(123,360,o),
(169,360,cs)
);
},
{
closed = 1;
nodes = (
(220,607,o),
(264,581,o),
(264,551,cs),
(264,520,o),
(220,494,o),
(169,494,cs),
(117,494,o),
(74,520,o),
(74,551,cs),
(74,581,o),
(117,607,o),
(169,607,cs)
);
},
{
closed = 1;
nodes = (
(197,514,o),
(220,530,o),
(220,551,cs),
(220,571,o),
(197,588,o),
(169,588,cs),
(140,588,o),
(118,571,o),
(118,551,cs),
(118,530,o),
(140,514,o),
(169,514,cs)
);
},
{
closed = 1;
nodes = (
(185,564,o),
(196,556,o),
(196,551,cs),
(196,545,o),
(185,538,o),
(169,538,cs),
(152,538,o),
(142,545,o),
(142,551,cs),
(142,556,o),
(152,564,o),
(169,564,cs)
);
}
);
width = 623;
}
);
unicode = 73;
},
{
glyphname = J;
layers = (
{
layerId = "2337EC1E-F8DF-4C20-93B2-D6C634D9C8F1";
shapes = (
{
closed = 1;
nodes = (
(537,397,o),
(531,396,o),
(528,391,c),
(523,386,o),
(519,380,o),
(514,375,c),
(514,457,ls),
(514,464,o),
(509,469,o),
(502,469,cs),
(447,469,l),
(447,591,ls),
(447,598,o),
(442,603,o),
(435,603,cs),
(368,603,ls),
(361,603,o),
(356,598,o),
(356,591,cs),
(356,518,l),
(311,518,l),
(311,555,ls),
(311,561,o),
(306,567,o),
(299,567,cs),
(244,567,l),
(244,603,ls),
(244,610,o),
(239,615,o),
(232,615,cs),
(165,615,ls),
(158,615,o),
(153,610,o),
(153,603,cs),
(153,469,l),
(98,469,ls),
(91,469,o),
(86,464,o),
(86,457,cs),
(86,373,l),
(81,378,o),
(77,383,o),
(72,389,cs),
(69,393,o),
(63,395,o),
(58,393,cs),
(53,390,o),
(50,385,o),
(51,380,cs),
(116,9,ls),
(117,4,o),
(122,0,o),
(128,0,c),
(464,0,l),
(470,0,o),
(475,4,o),
(476,10,cs),
(549,382,ls),
(550,387,o),
(547,393,o),
(542,395,cs)
);
},
{
closed = 1;
nodes = (
(490,445,l),
(490,351,l),
(477,339,o),
(463,328,o),
(447,319,c),
(447,445,l)
);
},
{
closed = 1;
nodes = (
(423,579,l),
(423,307,l),
(409,300,o),
(395,295,o),
(380,290,c),
(380,579,l)
);
},
{
closed = 1;
nodes = (
(355,494,l),
(355,284,l),
(331,281,o),
(322,280,o),
(311,280,c),
(311,494,l)
);
},
{
closed = 1;
nodes = (
(287,543,l),
(287,280,l),
(273,280,o),
(258,282,o),
(244,285,c),
(244,543,l)
);
},
{
closed = 1;
nodes = (
(177,591,l),
(220,591,l),
(220,290,l),
(205,294,o),
(191,300,o),
(177,306,c)
);
},
{
closed = 1;
nodes = (
(153,445,l),
(153,318,l),
(137,327,o),
(123,338,o),
(110,349,c),
(110,445,l)
);
},
{
closed = 1;
nodes = (
(454,24,l),
(138,24,l),
(82,342,l),
(138,287,o),
(218,255,o),
(300,255,cs),
(374,255,o),
(456,284,o),
(510,336,c),
(517,343,l)
);
}
);
width = 600;
}
);
unicode = 74;
},
{
glyphname = a;
layers = (
{
layerId = "2337EC1E-F8DF-4C20-93B2-D6C634D9C8F1";
shapes = (
{
closed = 1;
nodes = (
(717,372,ls),
(715,375,o),
(713,377,o),
(710,378,cs),
(707,379,o),
(704,379,o),
(701,378,cs),
(657,357,l),
(685,381,o),
(695,421,o),
(678,455,c),
(660,494,o),
(615,512,o),
(575,497,c),
(551,522,o),
(512,530,o),
(480,514,cs),
(454,502,o),
(437,478,o),
(434,450,c),
(425,452,o),
(410,452,o),
(401,450,c),
(398,478,o),
(381,502,o),
(355,514,cs),
(323,530,o),
(284,522,o),
(260,497,c),
(220,512,o),
(175,494,o),
(157,455,c),
(140,421,o),
(150,380,o),
(178,356,c),
(134,378,ls),
(131,379,o),
(128,379,o),
(124,378,cs),
(121,377,o),
(119,375,o),
(118,372,cs),
(52,234,ls),
(49,228,o),
(52,221,o),
(58,218,cs),
(105,195,l),
(80,143,l),
(78,137,o),
(80,130,o),
(86,127,c),
(291,29,ls),
(296,27,o),
(304,31,o),
(307,35,cs),
(417,266,l),
(527,35,ls),
(530,31,o),
(538,27,o),
(543,29,cs),
(748,127,l),
(754,130,o),
(757,137,o),
(754,143,cs),
(729,195,l),
(777,218,ls),
(783,221,o),
(785,228,o),
(782,234,cs)
);
},
{
closed = 1;
nodes = (
(192,474,o),
(227,487,o),
(256,473,cs),
(258,472,ls),
(263,470,o),
(269,471,o),
(273,476,cs),
(289,497,o),
(320,505,o),
(344,493,cs),
(366,483,o),
(379,461,o),
(378,438,c),
(378,436,l),
(377,432,o),
(378,427,o),
(382,425,c),
(385,422,o),
(390,421,o),
(394,423,cs),
(407,429,o),
(428,429,o),
(441,423,cs),
(445,421,o),
(450,422,o),
(453,425,c),
(457,427,o),
(458,432,o),
(457,436,c),
(457,438,l),
(456,461,o),
(469,483,o),
(490,493,cs),
(515,505,o),
(546,497,o),
(562,476,cs),
(566,471,o),
(572,470,o),
(577,472,c),
(578,473,l),
(608,487,o),
(641,473,o),
(657,445,cs),
(683,398,o),
(624,335,o),
(585,374,c),
(582,377,o),
(577,378,o),
(573,376,cs),
(568,374,o),
(565,370,o),
(565,365,cs),
(565,310,o),
(503,278,o),
(459,315,cs),
(456,318,o),
(450,319,o),
(446,317,cs),
(444,316,ls),
(427,308,o),
(408,308,o),
(391,316,cs),
(389,317,ls),
(384,319,o),
(379,318,o),
(376,315,cs),
(335,280,o),
(272,306,o),
(269,365,c),
(269,370,o),
(267,374,o),
(262,376,c),
(261,377,o),
(259,377,o),
(257,377,c),
(255,377,o),
(252,376,o),
(250,374,c),
(248,374,o),
(225,358,o),
(200,370,cs),
(173,383,o),
(165,418,o),
(178,445,cs)
);
},
{
closed = 1;
nodes = (
(646,105,l),
(556,293,l),
(565,300,o),
(572,308,o),
(577,318,c),
(673,118,l)
);
},
{
closed = 1;
nodes = (
(598,82,l),
(506,275,l),
(516,275,o),
(526,277,o),
(536,281,c),
(625,95,l)
);
},
{
closed = 1;
nodes = (
(210,95,l),
(299,281,l),
(308,277,o),
(318,275,o),
(328,275,c),
(236,82,l)
);
},
{
closed = 1;
nodes = (
(161,118,l),
(257,319,l),
(263,309,o),
(270,300,o),
(278,293,c),
(188,105,l)
);
},
{
closed = 1;
nodes = (
(79,235,l),
(134,351,l),
(171,333,l),
(116,217,l)
);
},
{
closed = 1;
nodes = (
(202,342,l),
(217,337,o),
(231,339,o),
(242,343,c),
(140,128,l),
(107,143,l)
);
},
{
closed = 1;
nodes = (
(290,56,l),
(258,72,l),
(355,275,l),
(355,276,o),
(355,277,o),
(356,278,c),
(366,281,o),
(376,285,o),
(385,292,c),
(390,290,o),
(396,289,o),
(401,287,c)
);
},
{
closed = 1;
nodes = (
(433,287,l),
(439,288,o),
(444,290,o),
(450,292,c),
(458,286,o),
(468,281,o),
(479,278,c),
(479,277,o),
(479,276,o),
(480,275,c),
(577,72,l),
(544,56,l)
);
},
{
closed = 1;
nodes = (
(695,128,l),
(592,343,l),
(603,339,o),
(617,337,o),
(632,342,c),
(727,143,l)
);
},
{
closed = 1;
nodes = (
(718,217,l),
(663,333,l),
(700,351,l),
(756,235,l)
);
},
{
closed = 1;
nodes = (
(202,384,o),
(204,385,o),
(206,385,c),
(212,388,o),
(214,395,o),
(212,401,c),
(204,417,o),
(211,436,o),
(226,443,cs),
(232,446,o),
(235,453,o),
(232,459,cs),
(229,465,o),
(222,468,o),
(216,465,cs),
(188,452,o),
(177,418,o),
(190,391,cs),
(192,387,o),
(196,384,o),
(201,384,c)
);
},
{
closed = 1;
nodes = (
(616,440,o),
(622,434,o),
(625,427,cs),
(629,419,o),
(629,410,o),
(627,403,cs),
(624,396,o),
(628,390,o),
(634,387,c),
(638,387,l),
(643,387,o),
(648,390,o),
(649,395,c),
(654,409,o),
(653,424,o),
(647,437,cs),
(641,450,o),
(630,460,o),
(616,465,cs),
(609,467,o),
(603,464,o),
(600,458,cs),
(598,452,o),
(601,445,o),
(608,443,cs)
);
},
{
closed = 1;
nodes = (
(424,603,o),
(429,608,o),
(429,615,cs),
(429,662,ls),
(429,669,o),
(424,674,o),
(417,674,cs),
(411,674,o),
(405,669,o),
(405,662,cs),
(405,615,ls),
(405,608,o),
(411,603,o),
(417,603,cs)
);
},
{
closed = 1;
nodes = (
(311,598,l),
(312,593,o),
(317,590,o),
(322,590,c),
(323,590,o),
(325,590,o),
(326,591,c),
(332,593,o),
(335,600,o),
(333,606,cs),
(319,648,ls),
(317,654,o),
(310,658,o),
(304,656,cs),
(297,653,o),
(294,647,o),
(296,640,cs)
);
},
{
closed = 1;
nodes = (
(228,546,ls),
(231,543,o),
(234,542,o),
(238,542,c),
(240,542,o),
(243,543,o),
(245,544,cs),
(250,548,o),
(251,556,o),
(247,561,cs),
(218,598,ls),
(214,604,o),
(207,604,o),
(201,600,cs),
(196,596,o),
(195,589,o),
(199,584,cs)
);
},
{
closed = 1;
nodes = (
(510,590,o),
(512,590,o),
(513,590,c),
(518,590,o),
(523,593,o),
(524,598,c),
(539,640,ls),
(541,647,o),
(537,653,o),
(531,656,cs),
(525,658,o),
(518,654,o),
(516,648,cs),
(502,606,l),
(499,600,o),
(503,593,o),
(509,591,c)
);
},
{
closed = 1;
nodes = (
(592,543,o),
(595,542,o),
(597,542,c),
(601,542,o),
(604,543,o),
(607,546,cs),
(636,584,ls),
(640,589,o),
(639,596,o),
(633,600,cs),
(628,604,o),
(621,604,o),
(617,598,cs),
(588,561,ls),
(584,556,o),
(585,548,o),
(590,544,cs)
);
}
);
width = 834;
}
);
unicode = 97;
},
{
glyphname = b;
layers = (
{
layerId = "2337EC1E-F8DF-4C20-93B2-D6C634D9C8F1";
shapes = (
{
closed = 1;
nodes = (
(507,538,o),
(480,551,o),
(479,552,c),
(474,554,o),
(468,553,o),
(465,549,cs),
(451,534,o),
(414,498,o),
(381,489,c),
(385,522,o),
(389,599,o),
(352,643,cs),
(334,664,o),
(309,675,o),
(279,675,cs),
(237,675,o),
(194,651,o),
(188,606,c),
(59,573,l),
(53,572,o),
(50,567,o),
(50,561,cs),
(50,556,o),
(54,551,o),
(59,550,cs),
(119,538,l),
(77,523,ls),
(72,521,o),
(69,516,o),
(70,510,cs),
(71,504,o),
(76,500,o),
(81,500,cs),
(106,500,o),
(185,482,o),
(191,452,c),
(150,390,o),
(114,291,o),
(114,218,cs),
(114,174,o),
(133,129,o),
(166,94,c),
(166,36,ls),
(166,31,o),
(168,27,o),
(171,25,cs),
(208,6,o),
(250,0,o),
(291,0,cs),
(339,0,o),
(388,9,o),
(433,24,cs),
(438,26,o),
(441,30,o),
(441,36,cs),
(441,105,l),
(449,116,o),
(456,128,o),
(462,141,c),
(553,147,o),
(587,262,o),
(587,337,cs),
(587,422,o),
(558,475,o),
(534,505,cs)
);
},
{
closed = 1;
nodes = (
(260,24,o),
(219,29,o),
(190,43,c),
(190,73,l),
(221,49,o),
(257,37,o),
(295,37,cs),
(341,37,o),
(385,52,o),
(417,79,c),
(417,44,l),
(398,38,o),
(347,24,o),
(291,24,cs)
);
},
{
closed = 1;
nodes = (
(449,352,o),
(433,409,o),
(448,429,cs),
(455,436,o),
(461,437,o),
(470,437,cs),
(486,437,o),
(518,400,o),
(518,341,cs),
(518,266,o),
(493,243,o),
(478,236,c),
(475,256,o),
(469,280,o),
(462,306,cs)
);
},
{
closed = 1;
nodes = (
(475,180,o),
(477,195,o),
(479,210,c),
(532,225,o),
(542,295,o),
(542,341,cs),
(542,380,o),
(520,461,o),
(470,461,cs),
(451,461,o),
(438,455,o),
(429,444,cs),
(406,414,o),
(422,356,o),
(438,299,cs),
(446,268,o),
(455,239,o),
(455,221,c),
(451,127,o),
(391,61,o),
(295,61,cs),
(256,61,o),
(218,76,o),
(189,105,c),
(187,108,o),
(185,110,o),
(183,111,c),
(154,141,o),
(138,180,o),
(138,218,cs),
(138,326,o),
(213,442,o),
(214,443,c),
(215,445,o),
(216,447,o),
(216,449,c),
(216,471,o),
(198,490,o),
(163,505,cs),
(153,510,o),
(142,513,o),
(131,516,c),
(168,530,l),
(174,531,o),
(177,536,o),
(176,542,c),
(176,547,o),
(172,552,o),
(167,553,cs),
(116,563,l),
(202,585,ls),
(207,586,o),
(211,591,o),
(211,597,cs),
(211,614,o),
(228,651,o),
(279,651,cs),
(302,651,o),
(320,644,o),
(333,628,cs),
(373,580,o),
(356,477,o),
(355,476,c),
(355,473,o),
(356,469,o),
(358,467,cs),
(360,464,o),
(364,462,o),
(367,462,cs),
(404,462,o),
(452,498,o),
(476,526,c),
(540,484,o),
(563,411,o),
(563,337,cs),
(563,276,o),
(541,184,o),
(471,166,c)
);
}
);
width = 637;
}
);
unicode = 98;
},
{
glyphname = c;
layers = (
{
layerId = "276078B1-9544-40AF-AB64-08B62BEE7F53";
associatedMasterId = "2337EC1E-F8DF-4C20-93B2-D6C634D9C8F1";
name = 1;
shapes = (
{
closed = 1;
nodes = (
(554,604,o),
(551,606,o),
(547,606,cs),
(63,606,ls),
(59,606,o),
(56,604,o),
(54,602,cs),
(52,599,o),
(50,596,o),
(51,593,c),
(97,103,ls),
(98,97,o),
(103,92,o),
(109,92,cs),
(499,92,ls),
(505,92,o),
(510,97,o),
(511,103,cs),
(559,593,l),
(560,596,o),
(559,599,o),
(556,602,cs)
);
},
{
closed = 1;
nodes = (
(418,345,l),
(483,166,l),
(288,123,l),
(233,298,l)
);
},
{
closed = 1;
nodes = (
(175,582,l),
(89,440,l),
(76,582,l)
);
},
{
closed = 1;
nodes = (
(195,569,l),
(367,488,l),
(289,341,l),
(111,429,l)
);
},
{
closed = 1;
nodes = (
(92,412,l),
(260,329,l),
(215,318,ls),
(212,317,o),
(209,315,o),
(208,312,cs),
(206,309,o),
(206,306,o),
(207,302,cs),
(265,116,l),
(120,116,l)
);
},
{
closed = 1;
nodes = (
(367,116,l),
(491,143,l),
(488,116,l)
);
},
{
closed = 1;
nodes = (
(496,199,l),
(437,363,ls),
(435,369,o),
(429,373,o),
(423,371,cs),
(317,344,l),
(394,487,ls),
(395,490,o),
(396,494,o),
(395,497,cs),
(394,500,o),
(391,503,o),
(389,504,cs),
(225,582,l),
(534,582,l)
);
},
{
closed = 1;
nodes = (
(79,478,o),
(58,466,o),
(67,452,cs),
(76,436,o),
(102,401,o),
(145,401,cs),
(196,401,o),
(217,451,o),
(254,451,cs),
(292,451,o),
(312,401,o),
(363,401,cs),
(414,401,o),
(435,451,o),
(472,451,cs),
(496,451,o),
(512,439,o),
(517,427,cs),
(522,412,o),
(545,420,o),
(539,435,cs),
(532,455,o),
(508,475,o),
(472,475,cs),
(426,475,o),
(403,425,o),
(363,425,cs),
(325,425,o),
(299,475,o),
(254,475,cs),
(208,475,o),
(185,425,o),
(145,425,cs),
(116,425,o),
(96,450,o),
(87,464,cs)
);
}
);
width = 610;
},
{
layerId = "2337EC1E-F8DF-4C20-93B2-D6C634D9C8F1";
shapes = (
{
closed = 1;
nodes = (
(554,604,o),
(551,606,o),
(547,606,cs),
(63,606,ls),
(59,606,o),
(56,604,o),
(54,602,cs),
(52,599,o),
(50,596,o),
(51,593,c),
(97,103,ls),
(98,97,o),
(103,92,o),
(109,92,cs),
(499,92,ls),
(505,92,o),
(510,97,o),
(511,103,cs),
(559,593,l),
(560,596,o),
(559,599,o),
(556,602,cs)
);
},
{
closed = 1;
nodes = (
(175,582,l),
(96,452,l),
(92,456,o),
(89,460,o),
(87,464,c),
(76,582,l)
);
},
{
closed = 1;
nodes = (
(225,582,l),
(534,582,l),
(522,459,l),
(510,469,o),
(493,475,o),
(472,475,cs),
(426,475,o),
(403,425,o),
(363,425,c),
(361,425,l),
(394,487,ls),
(395,490,o),
(396,494,o),
(395,497,cs),
(394,500,o),
(391,503,o),
(389,504,cs)
);
},
{
closed = 1;
nodes = (
(195,569,l),
(367,488,l),
(337,432,l),
(311,446,o),
(288,475,o),
(254,475,cs),
(208,475,o),
(185,425,o),
(145,425,cs),
(133,425,o),
(124,429,o),
(115,435,c)
);
},
{
closed = 1;
nodes = (
(163,403,l),
(201,413,o),
(222,451,o),
(254,451,cs),
(281,451,o),
(299,426,o),
(326,411,c),
(289,341,l)
);
},
{
closed = 1;
nodes = (
(496,199,l),
(437,363,ls),
(435,369,o),
(429,373,o),
(423,371,cs),
(317,344,l),
(348,402,l),
(353,401,o),
(358,401,o),
(363,401,cs),
(414,401,o),
(435,451,o),
(472,451,cs),
(496,451,o),
(512,439,o),
(517,427,c),
(517,426,o),
(517,425,o),
(518,424,c)
);
},
{
closed = 1;
nodes = (
(92,412,l),
(260,329,l),
(215,318,ls),
(212,317,o),
(209,315,o),
(208,312,cs),
(206,309,o),
(206,306,o),
(207,302,cs),
(265,116,l),
(120,116,l)
);
},
{
closed = 1;
nodes = (
(418,345,l),
(483,166,l),
(288,123,l),
(233,298,l)
);
},
{
closed = 1;
nodes = (
(367,116,l),
(491,143,l),
(488,116,l)
);
}
);
width = 610;
}
);
unicode = 99;
},
{
glyphname = d;
layers = (
{
layerId = "2337EC1E-F8DF-4C20-93B2-D6C634D9C8F1";
shapes = (
{
closed = 1;
nodes = (
(679,336,o),
(550,559,o),
(456,583,c),
(453,583,o),
(450,581,o),
(448,577,c),
(53,139,ls),
(50,136,o),
(49,130,o),
(52,125,cs),
(54,122,o),
(58,119,o),
(62,119,c),
(63,119,o),
(64,119,o),
(64,120,c),
(685,242,ls),
(688,243,o),
(691,245,o),
(693,248,cs),
(695,250,o),
(695,254,o),
(694,257,cs)
);
},
{
closed = 1;
nodes = (
(411,500,l),
(487,452,o),
(575,334,o),
(601,250,c),
(95,150,l)
);
},
{
closed = 1;
nodes = (
(624,255,l),
(597,347,o),
(507,464,o),
(427,518,c),
(461,556,l),
(550,497,o),
(641,363,o),
(668,263,c)
);
},
{
closed = 1;
nodes = (
(463,369,o),
(439,345,o),
(439,315,cs),
(439,286,o),
(463,262,o),
(492,262,cs),
(522,262,o),
(546,286,o),
(546,315,cs),
(546,345,o),
(522,369,o),
(492,369,cs)
);
},
{
closed = 1;
nodes = (
(476,286,o),
(463,299,o),
(463,315,cs),
(463,332,o),
(476,345,o),
(492,345,cs),
(508,345,o),
(522,332,o),
(522,315,cs),
(522,299,o),
(508,286,o),
(492,286,cs)
);
},
{
closed = 1;
nodes = (
(260,286,o),
(243,269,o),
(243,247,cs),
(243,225,o),
(260,208,o),
(282,208,cs),
(304,208,o),
(321,225,o),
(321,247,cs),
(321,269,o),
(304,286,o),
(282,286,cs)
);
},
{
closed = 1;
nodes = (
(274,232,o),
(267,239,o),
(267,247,cs),
(267,255,o),
(274,262,o),
(282,262,cs),
(290,262,o),
(297,255,o),
(297,247,cs),
(297,239,o),
(290,232,o),
(282,232,cs)
);
},
{
closed = 1;
nodes = (
(456,447,o),
(440,462,o),
(422,462,cs),
(404,462,o),
(388,447,o),
(388,428,cs),
(388,421,o),
(394,416,o),
(400,416,cs),
(407,416,o),
(412,421,o),
(412,428,cs),
(412,433,o),
(417,438,o),
(422,438,cs),
(427,438,o),
(432,433,o),
(432,428,cs),
(432,421,o),
(437,416,o),
(444,416,cs),
(450,416,o),
(456,421,o),
(456,428,cs)
);
},
{
closed = 1;
nodes = (
(386,291,o),
(378,288,o),
(371,282,cs),
(366,278,o),
(365,271,o),
(369,266,cs),
(373,260,o),
(381,260,o),
(386,264,cs),
(388,266,o),
(391,266,o),
(393,266,c),
(396,266,o),
(398,265,o),
(400,263,cs),
(403,259,o),
(402,253,o),
(398,249,cs),
(393,245,o),
(392,237,o),
(397,232,cs),
(399,229,o),
(402,228,o),
(406,228,cs),
(409,228,o),
(411,229,o),
(414,231,cs),
(428,242,o),
(430,264,o),
(418,278,cs),
(412,285,o),
(404,289,o),
(395,290,cs)
);
},
{
closed = 1;
nodes = (
(355,348,o),
(355,366,o),
(367,377,cs),
(372,382,o),
(372,389,o),
(367,394,cs),
(363,399,o),
(355,399,o),
(350,394,cs),
(329,374,o),
(329,341,o),
(349,320,cs),
(351,317,o),
(354,316,o),
(357,316,cs),
(360,316,o),
(363,317,o),
(366,319,cs),
(371,324,o),
(371,332,o),
(366,336,c)
);
}
);
width = 745;
}
);
unicode = 100;
},
{
glyphname = o;
layers = (
{
layerId = "2337EC1E-F8DF-4C20-93B2-D6C634D9C8F1";
shapes = (
{
closed = 1;
nodes = (
(408,602,o),
(355,529,o),
(319,445,c),
(316,439,o),
(314,432,o),
(311,426,c),
(286,362,o),
(260,296,o),
(208,244,cs),
(203,240,o),
(203,233,o),
(207,228,cs),
(217,216,l),
(201,200,o),
(154,155,o),
(135,155,cs),
(121,155,o),
(70,171,o),
(55,166,cs),
(52,165,o),
(50,160,o),
(50,157,cs),
(50,87,ls),
(50,83,o),
(52,80,o),
(54,78,cs),
(57,76,o),
(60,75,o),
(64,75,c),
(97,75,o),
(129,45,o),
(129,11,c),
(130,5,o),
(135,0,o),
(141,0,cs),
(208,0,l),
(213,0,o),
(217,2,o),
(219,6,cs),
(221,10,o),
(221,15,o),
(219,18,c),
(218,19,o),
(202,47,o),
(202,86,cs),
(202,109,o),
(246,144,o),
(265,158,c),
(272,149,ls),
(274,146,o),
(278,145,o),
(281,145,c),
(285,145,o),
(288,146,o),
(290,148,cs),
(310,168,o),
(342,195,o),
(414,226,cs),
(419,228,o),
(422,233,o),
(421,239,cs),
(418,257,o),
(431,275,o),
(449,279,c),
(459,281,o),
(469,279,o),
(477,273,cs),
(482,270,o),
(487,271,o),
(492,274,cs),
(496,277,o),
(497,283,o),
(495,288,c),
(495,290,o),
(494,292,o),
(494,294,c),
(489,313,o),
(502,332,o),
(522,337,cs),
(533,339,o),
(544,336,o),
(553,328,cs),
(557,325,o),
(563,324,o),
(567,327,c),
(572,329,o),
(574,335,o),
(573,340,c),
(573,341,l),
(571,350,o),
(572,360,o),
(578,368,cs),
(583,376,o),
(591,382,o),
(601,384,cs),
(611,386,o),
(621,384,o),
(629,378,cs),
(632,375,o),
(636,375,o),
(640,376,cs),
(643,377,o),
(646,380,o),
(648,383,c),
(655,403,o),
(659,426,o),
(659,451,cs),
(659,540,o),
(597,602,o),
(508,602,cs)
);
},
{
closed = 1;
nodes = (
(192,127,o),
(178,105,o),
(178,86,cs),
(178,60,o),
(184,38,o),
(189,24,c),
(152,24,l),
(143,64,o),
(115,93,o),
(74,99,c),
(74,141,l),
(90,136,o),
(116,131,o),
(135,131,cs),
(163,131,o),
(212,176,o),
(232,198,c),
(249,177,l),
(242,171,o),
(231,163,o),
(220,153,cs)
);
},
{
closed = 1;
nodes = (
(619,409,o),
(607,410,o),
(596,407,c),
(580,404,o),
(566,395,o),
(558,381,cs),
(553,374,o),
(550,366,o),
(548,358,c),
(538,362,o),
(527,362,o),
(517,360,cs),
(501,357,o),
(487,347,o),
(479,334,c),
(472,325,o),
(469,314,o),
(469,303,c),
(461,304,o),
(452,304,o),
(444,303,c),
(416,297,o),
(397,272,o),
(396,245,c),
(361,229,o),
(319,207,o),
(283,174,c),
(232,235,l),
(283,290,o),
(310,357,o),
(334,417,c),
(336,424,o),
(339,430,o),
(341,436,cs),
(373,511,o),
(419,578,o),
(508,578,cs),
(583,578,o),
(635,526,o),
(635,451,cs),
(635,434,o),
(633,419,o),
(629,405,c)
);
}
);
width = 709;
}
);
unicode = 111;
},
{
glyphname = j;
layers = (
{
layerId = "2337EC1E-F8DF-4C20-93B2-D6C634D9C8F1";
shapes = (
{
closed = 1;
nodes = (
(202,380,o),
(168,346,o),
(168,304,cs),
(168,297,o),
(173,292,o),
(180,292,cs),
(186,292,o),
(192,297,o),
(192,304,cs),
(192,333,o),
(215,356,o),
(244,356,cs),
(251,356,o),
(256,362,o),
(256,368,cs),
(256,375,o),
(251,380,o),
(244,380,cs)
);
},
{
closed = 1;
nodes = (
(718,393,o),
(713,392,o),
(709,389,cs),
(663,344,l),
(663,349,ls),
(663,391,o),
(629,425,o),
(587,425,cs),
(193,425,ls),
(151,425,o),
(117,391,o),
(117,349,cs),
(117,344,l),
(70,389,ls),
(67,392,o),
(62,393,o),
(57,391,cs),
(53,389,o),
(50,385,o),
(50,380,cs),
(50,254,ls),
(50,242,o),
(63,239,o),
(70,246,cs),
(117,291,l),
(117,285,ls),
(117,243,o),
(151,210,o),
(193,210,cs),
(587,210,ls),
(629,210,o),
(663,243,o),
(663,285,cs),
(663,291,l),
(709,246,ls),
(712,243,o),
(715,242,o),
(718,242,c),
(719,242,o),
(721,242,o),
(722,243,c),
(727,245,o),
(730,249,o),
(730,254,cs),
(730,380,ls),
(730,385,o),
(727,389,o),
(722,391,cs)
);
},
{
closed = 1;
nodes = (
(74,282,l),
(74,352,l),
(110,317,l)
);
},
{
closed = 1;
nodes = (
(639,285,ls),
(639,257,o),
(616,234,o),
(587,234,cs),
(193,234,ls),
(164,234,o),
(141,257,o),
(141,285,cs),
(141,349,ls),
(141,378,o),
(164,401,o),
(193,401,cs),
(587,401,ls),
(616,401,o),
(639,378,o),
(639,349,cs)
);
},
{
closed = 1;
nodes = (
(706,283,l),
(670,317,l),
(706,352,l)
);
}
);
width = 780;
}
);
unicode = 106;
},
{
glyphname = Q;
layers = (
{
layerId = "2337EC1E-F8DF-4C20-93B2-D6C634D9C8F1";
shapes = (
{
closed = 1;
nodes = (
(293,682,ls),
(293,689,o),
(288,694,o),
(281,694,cs),
(135,694,ls),
(128,694,o),
(123,689,o),
(123,682,cs),
(123,609,ls),
(123,501,o),
(50,454,o),
(50,350,cs),
(50,12,ls),
(50,5,o),
(55,0,o),
(62,0,cs),
(354,0,ls),
(361,0,o),
(366,5,o),
(366,12,cs),
(366,350,ls),
(366,449,o),
(293,489,o),
(293,609,cs)
);
},
{
closed = 1;
nodes = (
(74,325,l),
(342,325,l),
(342,113,l),
(74,113,l)
);
},
{
closed = 1;
nodes = (
(147,670,l),
(269,670,l),
(269,609,ls),
(269,485,o),
(342,439,o),
(342,350,c),
(342,349,l),
(74,349,l),
(74,350,l),
(74,451,o),
(147,491,o),
(147,609,cs)
);
},
{
closed = 1;
nodes = (
(74,24,l),
(74,89,l),
(342,89,l),
(342,24,l)
);
},
{
closed = 1;
nodes = (
(299,223,ls),
(304,233,o),
(306,242,o),
(306,251,cs),
(306,268,o),
(295,280,o),
(277,280,cs),
(266,280,o),
(256,275,o),
(248,266,c),
(243,275,o),
(234,280,o),
(222,280,cs),
(213,280,o),
(205,277,o),
(198,272,c),
(195,294,o),
(178,320,o),
(143,320,cs),
(114,320,o),
(89,295,o),
(89,268,cs),
(89,245,o),
(106,227,o),
(127,227,cs),
(147,227,o),
(163,242,o),
(163,260,cs),
(163,264,o),
(162,269,o),
(160,272,cs),
(158,276,o),
(154,278,o),
(149,278,cs),
(146,278,o),
(142,276,o),
(140,273,cs),
(138,270,o),
(138,267,o),
(140,264,cs),
(141,263,o),
(141,262,o),
(141,260,cs),
(141,254,o),
(134,249,o),
(127,249,cs),
(118,249,o),
(111,257,o),
(111,268,cs),
(111,284,o),
(125,298,o),
(142,298,cs),
(162,298,o),
(176,283,o),
(176,262,cs),
(176,252,o),
(173,240,o),
(168,229,cs),
(137,161,ls),
(134,155,o),
(136,151,o),
(137,149,cs),
(139,146,o),
(143,144,o),
(146,144,cs),
(151,144,o),
(156,147,o),
(158,153,c),
(193,229,ls),
(198,241,o),
(206,257,o),
(218,257,cs),
(224,257,o),
(227,254,o),
(227,247,cs),
(227,243,o),
(225,237,o),
(223,232,cs),
(191,161,ls),
(188,155,o),
(190,151,o),
(191,149,cs),
(193,146,o),
(197,144,o),
(200,144,cs),
(205,144,o),
(210,147,o),
(212,153,c),
(246,227,ls),
(253,241,o),
(262,257,o),
(274,257,cs),
(278,257,o),
(282,256,o),
(282,249,cs),
(282,244,o),
(280,238,o),
(278,232,c),
(249,168,l),
(244,159,o),
(243,151,o),
(243,145,cs),
(243,133,o),
(248,123,o),
(256,119,c),
(257,119,l),
(258,118,o),
(260,118,o),
(262,118,c),
(267,118,o),
(273,122,o),
(274,127,cs),
(275,132,o),
(273,137,o),
(268,140,c),
(267,141,o),
(266,143,o),
(266,146,cs),
(266,150,o),
(267,155,o),
(270,161,cs)
);
}
);
width = 416;
}
);
unicode = 81;
},
{
glyphname = h;
layers = (
{
layerId = "2337EC1E-F8DF-4C20-93B2-D6C634D9C8F1";
shapes = (
{
closed = 1;
nodes = (
(337,13,l),
(346,11,o),
(358,11,o),
(367,13,c),
(574,63,l),
(579,64,o),
(582,68,o),
(583,73,c),
(610,268,l),
(610,270,o),
(610,272,o),
(609,274,c),
(651,285,l),
(654,285,o),
(657,288,o),
(659,291,c),
(660,294,o),
(660,298,o),
(659,301,c),
(642,335,o),
(623,369,o),
(606,403,cs),
(603,409,o),
(596,414,o),
(590,416,c),
(493,441,l),
(487,448,o),
(480,453,o),
(473,459,c),
(441,481,o),
(412,485,o),
(375,485,c),
(473,654,ls),
(476,659,o),
(474,667,o),
(468,670,c),
(463,673,o),
(455,672,o),
(452,666,c),
(367,519,l),
(367,660,ls),
(367,666,o),
(362,672,o),
(356,672,c),
(355,672,l),
(349,672,o),
(343,666,o),
(343,660,cs),
(342,478,l),
(322,487,o),
(299,492,o),
(276,492,cs),
(218,492,o),
(164,460,o),
(136,409,c),
(116,413,l),
(114,414,o),
(113,414,o),
(111,414,c),
(105,414,o),
(100,410,o),
(99,404,c),
(99,402,l),
(51,301,l),
(50,298,o),
(50,294,o),
(51,291,c),
(53,288,o),
(56,285,o),
(59,285,c),
(100,274,l),
(118,74,ls),
(118,69,o),
(122,64,o),
(127,63,cs)
);
},
{
closed = 1;
nodes = (
(522,399,l),
(520,403,o),
(518,407,o),
(516,410,c),
(544,403,l)
);
},
{
closed = 1;
nodes = (
(479,390,l),
(457,419,o),
(425,438,o),
(390,445,c),
(386,449,o),
(381,453,o),
(377,457,cs),
(375,458,o),
(373,459,o),
(372,461,c),
(426,461,o),
(472,447,o),
(498,394,c)
);
},
{
closed = 1;
nodes = (
(430,380,l),
(426,391,o),
(422,401,o),
(416,411,c),
(429,405,o),
(442,396,o),
(452,385,c)
);
},
{
closed = 1;
nodes = (
(308,468,o),
(337,457,o),
(362,438,cs),
(363,437,o),
(376,424,o),
(377,424,c),
(390,410,o),
(400,393,o),
(406,375,c),
(374,369,l),
(360,411,o),
(321,440,o),
(276,440,cs),
(244,440,o),
(212,424,o),
(193,398,c),
(160,404,l),
(186,444,o),
(229,468,o),
(276,468,cs)
);
},
{
closed = 1;
nodes = (
(220,392,l),
(235,407,o),
(255,416,o),
(276,416,cs),
(309,416,o),
(338,396,o),
(349,366,c)
);
},
{
closed = 1;
nodes = (
(119,388,l),
(338,344,l),
(300,246,l),
(79,304,l)
);
},
{
closed = 1;
nodes = (
(124,267,l),
(305,220,l),
(308,220,l),
(312,220,o),
(317,223,o),
(319,228,cs),
(342,289,l),
(342,36,l),
(141,85,l)
);
},
{
closed = 1;
nodes = (
(560,85,l),
(366,36,l),
(366,291,l),
(391,228,ls),
(393,223,o),
(397,220,o),
(402,220,c),
(405,220,l),
(586,267,l)
);
},
{
closed = 1;
nodes = (
(409,246,l),
(372,344,l),
(591,388,l),
(631,304,l)
);
}
);
width = 710;
}
);
unicode = 104;
},
{
glyphname = i;
layers = (
{
layerId = "2337EC1E-F8DF-4C20-93B2-D6C634D9C8F1";
shapes = (
{
closed = 1;
nodes = (
(589,550,ls),
(557,616,o),
(463,616,o),
(430,551,cs),
(374,443,l),
(362,466,ls),
(328,530,o),
(237,533,o),
(204,467,cs),
(57,183,ls),
(48,166,o),
(49,147,o),
(59,131,cs),
(68,115,o),
(85,105,o),
(104,105,cs),
(456,105,ls),
(475,105,o),
(492,115,o),
(502,130,cs),
(512,146,o),
(513,166,o),
(504,182,c),
(501,189,l),
(683,189,ls),
(701,189,o),
(718,199,o),
(728,215,cs),
(738,231,o),
(739,250,o),
(731,267,cs)
);
},
{
closed = 1;
nodes = (
(476,134,o),
(467,129,o),
(456,129,cs),
(362,129,l),
(362,296,l),
(199,296,l),
(199,129,l),
(104,129,ls),
(94,129,o),
(85,134,o),
(79,143,cs),
(74,152,o),
(73,163,o),
(78,172,cs),
(225,456,ls),
(249,503,o),
(318,503,o),
(341,455,cs),
(483,172,l),
(487,162,o),
(487,152,o),
(481,143,cs)
);
},
{
closed = 1;
nodes = (
(702,219,o),
(693,213,o),
(683,213,cs),
(588,213,l),
(588,380,l),
(425,380,l),
(425,341,l),
(387,416,l),
(451,540,ls),
(476,588,o),
(543,589,o),
(567,540,cs),
(709,256,ls),
(714,247,o),
(713,236,o),
(708,227,c)
);
}
);
width = 787;
}
);
unicode = 105;
},
{
glyphname = T;
layers = (
{
background = {
shapes = (
{
closed = 1;
nodes = (
(340,246,o),
(337,252,o),
(335,256,cs),
(329,267,o),
(320,275,o),
(308,279,cs),
(294,283,o),
(278,281,o),
(264,275,cs),
(255,271,o),
(248,264,o),
(240,257,c),
(240,256,o),
(239,256,o),
(238,255,c),
(237,254,o),
(237,254,o),
(236,254,c),
(234,252,o),
(239,255,o),
(237,254,cs),
(235,253,o),
(233,251,o),
(231,250,c),
(230,250,o),
(229,249,o),
(229,249,c),
(229,249,o),
(232,251,o),
(231,250,c),
(230,250,o),
(230,250,o),
(230,250,c),
(228,249,o),
(227,249,o),
(226,249,c),
(225,248,o),
(224,248,o),
(224,248,c),
(221,248,o),
(226,248,o),
(224,248,c),
(222,248,o),
(220,248,o),
(219,248,c),
(212,248,o),
(206,242,o),
(207,236,c),
(207,229,o),
(212,224,o),
(219,224,c),
(219,224,o),
(220,224,o),
(220,224,c),
(226,224,o),
(232,229,o),
(232,236,cs),
(232,242,o),
(227,248,o),
(220,248,c),
(219,248,o),
(218,248,o),
(217,248,c),
(216,248,o),
(216,248,o),
(215,248,c),
(215,248,o),
(213,248,o),
(215,248,c),
(218,248,o),
(214,248,o),
(214,248,c),
(213,249,o),
(212,249,o),
(211,249,c),
(210,249,o),
(209,250,o),
(209,250,c),
(206,251,o),
(212,249,o),
(209,250,cs),
(207,251,o),
(206,251,o),
(205,252,c),
(204,253,o),
(203,253,o),
(203,253,c),
(202,254,o),
(202,254,o),
(202,254,c),
(200,255,o),
(204,252,o),
(203,253,c),
(202,254,o),
(200,255,o),
(199,256,c),
(197,258,o),
(195,261,o),
(192,263,cs),
(186,268,o),
(179,273,o),
(171,276,cs),
(162,280,o),
(152,282,o),
(142,281,cs),
(133,280,o),
(124,277,o),
(116,272,c),
(113,269,o),
(109,266,o),
(106,263,c),
(105,262,o),
(103,261,o),
(102,260,c),
(101,259,o),
(101,258,o),
(100,258,c),
(100,258,o),
(99,257,o),
(99,257,c),
(97,256,o),
(100,257,o),
(100,258,c),
(99,257,o),
(96,255,o),
(95,255,c),
(94,254,o),
(92,253,o),
(90,252,cs),
(88,251,o),
(93,253,o),
(91,252,c),
(91,252,o),
(90,252,o),
(90,252,c),
(89,251,o),
(88,251,o),
(87,251,c),
(86,251,o),
(85,250,o),
(84,250,c),
(84,250,o),
(83,250,o),
(83,250,c),
(80,249,o),
(85,250,o),
(83,250,c),
(81,250,o),
(78,250,o),
(76,250,c),
(75,250,o),
(73,250,o),
(72,250,c),
(71,250,o),
(75,249,o),
(73,250,c),
(72,250,o),
(72,250,o),
(71,250,c),
(69,251,o),
(67,251,o),
(65,252,c),
(64,252,o),
(64,252,o),
(63,253,c),
(67,252,o),
(65,252,o),
(64,252,c),
(64,253,o),
(63,253,o),
(62,254,c),
(60,255,o),
(58,256,o),
(56,257,c),
(55,258,o),
(59,255,o),
(57,256,c),
(57,257,o),
(56,257,o),
(56,257,c),
(55,258,o),
(54,259,o),
(54,259,c),
(53,261,o),
(51,262,o),
(50,263,c),
(50,264,o),
(50,264,o),
(50,264,c),
(48,265,o),
(52,261,o),
(50,263,c),
(50,264,o),
(49,264,o),
(49,265,c),
(48,267,o),
(46,269,o),
(45,271,c),
(45,272,o),
(45,272,o),
(45,273,c),
(45,273,o),
(46,269,o),
(45,271,cs),
(43,277,o),
(37,281,o),
(31,279,cs),
(25,277,o),
(20,271,o),
(22,265,cs),
(26,255,o),
(33,245,o),
(41,239,cs),
(58,225,o),
(82,222,o),
(102,231,cs),
(110,235,o),
(116,240,o),
(123,246,c),
(124,247,o),
(125,248,o),
(127,250,c),
(128,250,o),
(128,251,o),
(129,251,c),
(125,248,o),
(128,251,o),
(129,251,c),
(131,252,o),
(132,253,o),
(134,254,c),
(134,255,o),
(135,255,o),
(136,255,c),
(138,256,o),
(133,254,o),
(135,255,c),
(135,255,o),
(136,255,o),
(136,255,c),
(138,256,o),
(141,257,o),
(143,257,c),
(143,257,o),
(139,257,o),
(141,257,c),
(142,257,o),
(142,257,o),
(143,257,c),
(144,257,o),
(146,257,o),
(147,257,c),
(150,257,o),
(152,257,o),
(154,256,c),
(150,257,o),
(154,256,o),
(155,256,c),
(156,256,o),
(157,256,o),
(159,255,c),
(161,255,o),
(162,254,o),
(164,254,c),
(166,253,o),
(161,255,o),
(163,254,c),
(164,254,o),
(164,254,o),
(164,253,c),
(165,253,o),
(166,252,o),
(167,252,c),
(169,251,o),
(170,250,o),
(171,249,c),
(172,249,o),
(172,249,o),
(172,248,c),
(172,248,o),
(170,251,o),
(171,249,c),
(172,249,o),
(172,248,o),
(173,248,c),
(179,243,o),
(185,237,o),
(191,232,cs),
(200,226,o),
(210,224,o),
(220,224,c),
(220,232,o),
(220,240,o),
(220,248,c),
(220,248,o),
(219,248,o),
(219,248,c),
(219,240,o),
(219,232,o),
(219,224,c),
(231,224,o),
(242,228,o),
(251,235,cs),
(255,238,o),
(258,241,o),
(262,244,c),
(263,246,o),
(265,247,o),
(266,248,c),
(267,249,o),
(267,249,o),
(268,249,c),
(269,251,o),
(265,248,o),
(267,249,c),
(268,249,o),
(269,250,o),
(270,251,c),
(272,252,o),
(274,253,o),
(276,254,c),
(277,255,o),
(273,253,o),
(275,254,c),
(276,254,o),
(276,254,o),
(277,254,c),
(278,255,o),
(280,255,o),
(281,256,c),
(282,256,o),
(284,256,o),
(285,256,c),
(285,257,o),
(286,257,o),
(286,257,c),
(286,257,o),
(283,256,o),
(285,256,c),
(286,257,o),
(287,257,o),
(288,257,c),
(291,257,o),
(294,257,o),
(298,257,c),
(299,257,o),
(295,257,o),
(296,257,c),
(297,257,o),
(297,257,o),
(297,257,c),
(298,257,o),
(299,257,o),
(299,256,c),
(301,256,o),
(302,256,o),
(303,255,c),
(305,254,o),
(301,256,o),
(302,255,c),
(303,255,o),
(304,255,o),
(304,255,c),
(305,254,o),
(306,253,o),
(307,253,c),
(309,251,o),
(306,254,o),
(307,253,c),
(307,253,o),
(307,253,o),
(308,252,c),
(309,251,o),
(309,251,o),
(310,250,c),
(311,249,o),
(313,246,o),
(311,249,c),
(311,249,o),
(312,248,o),
(312,247,c),
(314,245,o),
(315,243,o),
(315,241,c),
(316,241,o),
(316,241,o),
(316,241,c),
(316,239,o),
(315,243,o),
(315,243,c),
(315,242,o),
(315,242,o),
(315,241,c),
(316,241,o),
(316,240,o),
(316,239,c),
(317,238,o),
(317,236,o),
(317,235,c),
(319,228,o),
(326,224,o),
(332,226,cs),
(339,228,o),
(342,234,o),
(341,241,cs)
);
},
{
closed = 1;
nodes = (
(336,202,o),
(334,207,o),
(332,212,c),
(326,222,o),
(317,230,o),
(306,234,cs),
(292,238,o),
(276,236,o),
(263,230,cs),
(254,226,o),
(247,219,o),
(240,213,c),
(239,212,o),
(238,211,o),
(237,210,c),
(236,210,o),
(236,210,o),
(236,209,c),
(234,208,o),
(238,211,o),
(236,210,cs),
(234,208,o),
(232,207,o),
(230,206,c),
(230,206,o),
(229,206,o),
(229,205,c),
(227,205,o),
(231,206,o),
(230,206,c),
(230,206,o),
(230,206,o),
(229,206,c),
(228,205,o),
(227,205,o),
(225,205,c),
(225,204,o),
(224,204,o),
(223,204,c),
(223,204,o),
(223,204,o),
(222,204,c),
(221,204,o),
(225,204,o),
(224,204,c),
(222,204,o),
(220,204,o),
(219,204,c),
(212,204,o),
(206,198,o),
(207,192,c),
(207,185,o),
(212,180,o),
(219,180,c),
(219,180,o),
(220,180,o),
(220,180,c),
(226,180,o),
(232,185,o),
(232,192,cs),
(232,198,o),
(227,204,o),
(220,204,c),
(219,204,o),
(218,204,o),
(217,204,c),
(216,204,o),
(212,205,o),
(217,204,c),
(215,204,o),
(213,205,o),
(211,205,c),
(210,205,o),
(210,206,o),
(209,206,c),
(207,207,o),
(212,204,o),
(209,206,c),
(208,206,o),
(206,207,o),
(205,208,c),
(204,209,o),
(204,209,o),
(203,209,c),
(203,210,o),
(203,210,o),
(202,210,c),
(201,211,o),
(205,208,o),
(203,209,c),
(202,210,o),
(201,211,o),
(200,212,c),
(198,214,o),
(195,216,o),
(193,218,cs),
(187,224,o),
(180,228,o),
(173,232,c),
(164,235,o),
(154,237,o),
(144,236,cs),
(135,235,o),
(126,232,o),
(119,227,cs),
(115,224,o),
(112,221,o),
(109,219,c),
(108,218,o),
(106,216,o),
(105,215,c),
(105,215,o),
(104,214,o),
(103,214,c),
(102,213,o),
(99,211,o),
(103,213,c),
(100,211,o),
(97,209,o),
(94,208,cs),
(92,207,o),
(96,209,o),
(95,208,c),
(94,208,o),
(94,208,o),
(93,208,c),
(93,207,o),
(92,207,o),
(91,207,c),
(90,206,o),
(89,206,o),
(88,206,c),
(87,206,o),
(87,206,o),
(87,206,c),
(84,205,o),
(90,206,o),
(87,206,c),
(85,206,o),
(82,206,o),
(80,206,c),
(79,206,o),
(78,206,o),
(77,206,c),
(74,206,o),
(80,205,o),
(77,206,c),
(76,206,o),
(76,206,o),
(75,206,c),
(73,207,o),
(71,207,o),
(69,208,c),
(69,208,o),
(68,208,o),
(68,208,c),
(71,207,o),
(70,208,o),
(69,208,c),
(68,208,o),
(67,209,o),
(66,209,c),
(66,210,o),
(61,212,o),
(61,213,c),
(61,213,o),
(63,211,o),
(62,212,c),
(62,212,o),
(61,213,o),
(61,213,c),
(60,214,o),
(59,214,o),
(59,215,c),
(58,216,o),
(56,217,o),
(55,219,c),
(55,219,o),
(55,219,o),
(55,220,c),
(53,221,o),
(57,217,o),
(55,218,c),
(55,219,o),
(55,220,o),
(54,220,c),
(53,222,o),
(52,224,o),
(51,226,c),
(50,227,o),
(50,227,o),
(50,228,c),
(52,223,o),
(51,225,o),
(51,226,c),
(49,232,o),
(42,236,o),
(36,234,cs),
(30,233,o),
(25,226,o),
(28,220,c),
(31,210,o),
(38,201,o),
(46,194,cs),
(63,181,o),
(86,178,o),
(106,187,cs),
(113,190,o),
(120,196,o),
(126,201,c),
(127,202,o),
(128,204,o),
(129,205,c),
(130,205,o),
(131,206,o),
(131,206,c),
(133,208,o),
(129,205,o),
(130,205,c),
(131,206,o),
(131,206,o),
(132,207,c),
(133,208,o),
(135,208,o),
(136,209,c),
(137,210,o),
(138,210,o),
(139,210,c),
(140,211,o),
(137,210,o),
(137,210,c),
(137,210,o),
(139,210,o),
(139,211,c),
(141,211,o),
(143,212,o),
(145,212,c),
(146,212,o),
(146,212,o),
(143,212,c),
(144,212,o),
(144,212,o),
(145,212,c),
(146,212,o),
(148,212,o),
(149,212,c),
(151,212,o),
(154,212,o),
(156,211,c),
(158,211,o),
(153,212,o),
(155,212,c),
(156,211,o),
(156,211,o),
(157,211,c),
(158,211,o),
(159,211,o),
(160,211,c),
(162,210,o),
(164,209,o),
(165,209,c),
(167,208,o),
(163,210,o),
(165,209,c),
(165,209,o),
(165,209,o),
(165,209,c),
(166,208,o),
(167,208,o),
(168,207,c),
(170,206,o),
(171,206,o),
(172,205,c),
(173,204,o),
(175,202,o),
(172,205,c),
(173,204,o),
(173,204,o),
(174,203,c),
(180,198,o),
(186,192,o),
(192,188,cs),
(200,182,o),
(210,180,o),
(220,180,c),
(220,188,o),
(220,196,o),
(220,204,c),
(220,204,o),
(219,204,o),
(219,204,c),
(219,196,o),
(219,188,o),
(219,180,c),
(224,180,o),
(231,181,o),
(236,183,cs),
(242,185,o),
(247,188,o),
(251,192,c),
(255,194,o),
(257,197,o),
(260,199,cs),
(262,201,o),
(264,202,o),
(265,204,c),
(266,204,o),
(266,204,o),
(266,205,c),
(268,206,o),
(264,203,o),
(265,204,c),
(266,205,o),
(267,205,o),
(268,206,c),
(270,207,o),
(272,208,o),
(274,209,c),
(275,210,o),
(271,208,o),
(273,209,c),
(274,209,o),
(275,209,o),
(275,210,c),
(277,210,o),
(278,210,o),
(279,211,c),
(281,211,o),
(282,211,o),
(283,212,c),
(286,212,o),
(281,211,o),
(283,212,c),
(284,212,o),
(285,212,o),
(285,212,c),
(289,212,o),
(292,212,o),
(295,212,c),
(297,212,o),
(294,212,o),
(294,212,c),
(294,212,o),
(294,212,o),
(295,212,c),
(295,212,o),
(296,212,o),
(297,211,c),
(298,211,o),
(299,211,o),
(301,210,c),
(302,210,o),
(298,212,o),
(300,210,c),
(300,210,o),
(301,210,o),
(301,210,c),
(302,209,o),
(304,208,o),
(305,208,c),
(306,207,o),
(304,208,o),
(304,208,c),
(304,208,o),
(305,208,o),
(305,207,c),
(306,207,o),
(307,206,o),
(307,205,c),
(308,205,o),
(308,204,o),
(308,204,c),
(310,202,o),
(308,204,o),
(308,205,c),
(308,204,o),
(309,203,o),
(309,202,c),
(311,201,o),
(311,199,o),
(312,197,cs),
(313,195,o),
(312,199,o),
(312,198,c),
(312,198,o),
(312,198,o),
(312,197,c),
(313,196,o),
(313,196,o),
(313,195,c),
(314,193,o),
(314,192,o),
(314,190,c),
(315,184,o),
(323,180,o),
(329,182,cs),
(336,184,o),
(339,190,o),
(337,197,cs)
);
}
);
};
layerId = "276078B1-9544-40AF-AB64-08B62BEE7F53";
associatedMasterId = "2337EC1E-F8DF-4C20-93B2-D6C634D9C8F1";
name = 1;
shapes = (
{
closed = 1;
nodes = (
(327,247,l),
(292,252,o),
(267,297,o),
(224,297,cs),
(178,297,o),
(155,247,o),
(115,247,cs),
(77,247,o),
(51,287,o),
(39,310,cs),
(31,324,o),
(11,313,o),
(19,298,cs),
(31,276,o),
(62,223,o),
(115,223,cs),
(166,223,o),
(187,273,o),
(224,273,cs),
(260,273,o),
(280,229,o),
(324,223,c)
);
},
{
closed = 1;
nodes = (
(321,199,l),
(287,205,o),
(262,248,o),
(220,248,cs),
(174,248,o),
(151,198,o),
(111,198,cs),
(82,198,o),
(62,223,o),
(53,237,cs),
(45,251,o),
(24,239,o),
(33,225,cs),
(42,209,o),
(68,174,o),
(111,174,cs),
(162,174,o),
(183,224,o),
(220,224,cs),
(255,224,o),
(275,181,o),
(318,175,c)
);
},
{
closed = 1;
nodes = (
(360,461,o),
(357,463,o),
(353,463,cs),
(224,463,l),
(305,690,ls),
(306,694,o),
(306,698,o),
(304,701,cs),
(301,704,o),
(298,706,o),
(294,706,cs),
(245,706,ls),
(240,706,o),
(235,703,o),
(234,698,c),
(158,463,l),
(12,463,ls),
(9,463,o),
(6,461,o),
(3,459,c),
(1,456,o),
(0,453,o),
(0,449,c),
(49,11,ls),
(50,5,o),
(55,0,o),
(61,0,cs),
(305,0,ls),
(311,0,o),
(316,5,o),
(317,11,cs),
(365,449,l),
(366,453,o),
(365,456,o),
(362,459,cs)
);
},
{
closed = 1;
nodes = (
(254,682,l),
(277,682,l),
(198,463,l),
(183,463,l)
);
},
{
closed = 1;
nodes = (
(294,24,l),
(72,24,l),
(26,439,l),
(166,439,l),
(207,439,l),
(340,439,l)
);
}
);
width = 656;
},
{
layerId = "2337EC1E-F8DF-4C20-93B2-D6C634D9C8F1";
shapes = (
{
closed = 1;
nodes = (
(410,461,o),
(407,463,o),
(403,463,cs),
(274,463,l),
(355,690,ls),
(356,694,o),
(356,698,o),
(354,701,cs),
(351,704,o),
(348,706,o),
(344,706,cs),
(295,706,ls),
(290,706,o),
(285,703,o),
(284,698,c),
(208,463,l),
(62,463,ls),
(59,463,o),
(56,461,o),
(53,459,c),
(51,456,o),
(50,453,o),
(50,449,c),
(99,11,ls),
(100,5,o),
(105,0,o),
(111,0,cs),
(355,0,ls),
(361,0,o),
(366,5,o),
(367,11,cs),
(415,449,l),
(416,453,o),
(415,456,o),
(412,459,cs)
);
},
{
closed = 1;
nodes = (
(304,682,l),
(327,682,l),
(248,463,l),
(233,463,l)
);
},
{
closed = 1;
nodes = (
(76,439,l),
(390,439,l),
(369,249,l),
(338,259,o),
(314,297,o),
(274,297,cs),
(228,297,o),
(205,247,o),
(165,247,cs),
(129,247,o),
(104,284,o),
(91,307,c)
);
},
{
closed = 1;
nodes = (
(96,258,l),
(112,239,o),
(135,223,o),
(165,223,cs),
(216,223,o),
(237,273,o),
(274,273,cs),
(308,273,o),
(327,235,o),
(366,225,c),
(364,201,l),
(334,211,o),
(309,248,o),
(270,248,cs),
(224,248,o),
(201,198,o),
(161,198,cs),
(132,198,o),
(112,223,o),
(103,237,cs),
(102,239,o),
(100,241,o),
(98,242,c)
);
},
{
closed = 1;
nodes = (
(344,24,l),
(122,24,l),
(102,200,l),
(116,187,o),
(136,174,o),
(161,174,cs),
(212,174,o),
(233,224,o),
(270,224,cs),
(303,224,o),
(323,185,o),
(361,176,c)
);
}
);
width = 466;
}
);
unicode = 84;
},
{
glyphname = U;
layers = (
{
layerId = "2337EC1E-F8DF-4C20-93B2-D6C634D9C8F1";
shapes = (
{
closed = 1;
nodes = (
(251,443,o),
(191,383,o),
(191,309,cs),
(191,235,o),
(251,175,o),
(325,175,cs),
(399,175,o),
(459,235,o),
(459,309,cs),
(459,383,o),
(399,443,o),
(325,443,cs)
);
},
{
closed = 1;
nodes = (
(264,199,o),
(215,249,o),
(215,309,cs),
(215,370,o),
(264,419,o),
(325,419,cs),
(385,419,o),
(435,370,o),
(435,309,cs),
(435,249,o),
(385,199,o),
(325,199,cs)
);
},
{
closed = 1;
nodes = (
(283,386,o),
(248,351,o),
(248,309,cs),
(248,303,o),
(254,297,o),
(260,297,cs),
(267,297,o),
(272,303,o),
(272,309,cs),
(272,338,o),
(296,362,o),
(325,362,cs),
(331,362,o),
(337,367,o),
(337,374,cs),
(337,380,o),
(331,386,o),
(325,386,cs)
);
},
{
closed = 1;
nodes = (
(456,495,o),
(437,523,o),
(408,574,cs),
(381,625,o),
(357,659,o),
(293,659,cs),
(206,659,o),
(136,589,o),
(136,502,cs),
(136,459,o),
(127,426,o),
(96,351,cs),
(73,298,o),
(50,244,o),
(50,170,cs),
(50,76,o),
(126,0,o),
(220,0,cs),
(287,0,o),
(326,45,o),
(363,88,cs),
(408,140,o),
(446,180,o),
(520,180,cs),
(606,180,o),
(677,251,o),
(677,337,cs),
(677,424,o),
(606,495,o),
(520,495,cs)
);
},
{
closed = 1;
nodes = (
(432,204,o),
(386,151,o),
(345,103,cs),
(291,42,o),
(263,24,o),
(220,24,cs),
(140,24,o),
(74,90,o),
(74,170,cs),
(74,239,o),
(96,291,o),
(118,341,cs),
(140,394,o),
(160,444,o),
(160,502,cs),
(160,575,o),
(220,635,o),
(293,635,cs),
(348,635,o),
(366,602,o),
(387,563,cs),
(410,520,o),
(437,471,o),
(520,471,cs),
(593,471,o),
(653,411,o),
(653,337,cs),
(653,264,o),
(593,204,o),
(520,204,cs)
);
}
);
width = 727;
}
);
unicode = 85;
},
{
glyphname = V;
layers = (
{
layerId = "2337EC1E-F8DF-4C20-93B2-D6C634D9C8F1";
shapes = (
{
closed = 1;
nodes = (
(654,117,l),
(655,120,o),
(655,122,o),
(655,125,cs),
(655,152,ls),
(655,161,o),
(651,170,o),
(645,176,c),
(651,184,o),
(655,194,o),
(655,205,cs),
(655,218,o),
(650,229,o),
(641,238,c),
(650,246,o),
(655,258,o),
(655,271,cs),
(655,284,o),
(650,295,o),
(641,304,c),
(650,312,o),
(655,324,o),
(655,337,cs),
(655,350,o),
(650,361,o),
(641,370,c),
(650,378,o),
(655,390,o),
(655,403,cs),
(655,428,o),
(635,448,o),
(610,448,cs),
(482,448,l),
(492,458,o),
(499,472,o),
(499,488,cs),
(499,517,o),
(475,541,o),
(445,541,cs),
(428,541,o),
(412,533,o),
(403,520,c),
(395,546,o),
(370,566,o),
(341,566,cs),
(306,566,o),
(277,537,o),
(277,502,cs),
(277,479,o),
(289,459,o),
(307,448,c),
(174,448,ls),
(150,448,o),
(129,428,o),
(129,403,cs),
(129,390,o),
(135,378,o),
(144,370,c),
(135,361,o),
(129,350,o),
(129,337,cs),
(129,324,o),
(135,312,o),
(143,304,c),
(135,296,o),
(129,284,o),
(129,271,cs),
(129,258,o),
(135,246,o),
(144,238,c),
(135,230,o),
(129,218,o),
(129,205,cs),
(129,194,o),
(133,184,o),
(140,176,c),
(133,170,o),
(129,161,o),
(129,152,cs),
(129,125,ls),
(129,122,o),
(130,120,o),
(130,117,c),
(62,117,ls),
(56,117,o),
(50,112,o),
(50,105,cs),
(50,99,o),
(56,93,o),
(62,93,c),
(724,93,l),
(731,93,o),
(736,99,o),
(736,105,cs),
(736,112,o),
(731,117,o),
(724,117,cs)
);
},
{
closed = 1;
nodes = (
(631,260,o),
(623,251,o),
(613,250,c),
(362,250,l),
(362,292,l),
(613,292,l),
(623,290,o),
(631,281,o),
(631,271,cs)
);
},
{
closed = 1;
nodes = (
(309,424,l),
(338,424,l),
(338,241,ls),
(338,234,o),
(331,227,o),
(323,227,cs),
(316,227,o),
(309,234,o),
(309,241,cs)
);
},
{
closed = 1;
nodes = (
(418,354,ls),
(418,350,o),
(413,346,o),
(405,346,cs),
(397,346,o),
(391,350,o),
(391,354,cs),
(391,424,l),
(418,424,l)
);
},
{
closed = 1;
nodes = (
(367,424,l),
(367,393,l),
(362,393,l),
(362,424,l)
);
},
{
closed = 1;
nodes = (
(631,326,o),
(623,317,o),
(613,316,c),
(362,316,l),
(362,369,l),
(367,369,l),
(367,354,ls),
(367,336,o),
(384,322,o),
(405,322,cs),
(426,322,o),
(442,336,o),
(442,354,cs),
(442,358,l),
(610,358,ls),
(622,358,o),
(631,348,o),
(631,337,cs)
);
},
{
closed = 1;
nodes = (
(631,391,o),
(622,382,o),
(610,382,cs),
(442,382,l),
(442,424,l),
(610,424,ls),
(622,424,o),
(631,414,o),
(631,403,cs)
);
},
{
closed = 1;
nodes = (
(462,517,o),
(475,504,o),
(475,488,cs),
(475,471,o),
(462,458,o),
(445,458,cs),
(429,458,o),
(416,471,o),
(416,488,cs),
(416,504,o),
(429,517,o),
(445,517,cs)
);
},
{
closed = 1;
nodes = (
(399,460,o),
(403,453,o),
(409,448,c),
(376,448,l),
(384,453,o),
(390,460,o),
(395,468,c)
);
},
{
closed = 1;
nodes = (
(363,542,o),
(381,524,o),
(381,502,cs),
(381,480,o),
(363,462,o),
(341,462,cs),
(319,462,o),
(301,480,o),
(301,502,cs),
(301,524,o),
(319,542,o),
(341,542,cs)
);
},
{
closed = 1;
nodes = (
(153,414,o),
(163,424,o),
(174,424,cs),
(285,424,l),
(285,382,l),
(174,382,ls),
(163,382,o),
(153,391,o),
(153,403,cs)
);
},
{
closed = 1;
nodes = (
(153,348,o),
(163,358,o),
(174,358,cs),
(285,358,l),
(285,316,l),
(170,316,l),
(160,318,o),
(153,326,o),
(153,337,cs)
);
},
{
closed = 1;
nodes = (
(153,281,o),
(160,290,o),
(170,292,c),
(285,292,l),
(285,250,l),
(174,250,ls),
(163,250,o),
(153,259,o),
(153,271,cs)
);
},
{
closed = 1;
nodes = (
(289,226,l),
(295,213,o),
(308,203,o),
(323,203,cs),
(339,203,o),
(352,212,o),
(358,226,c),
(613,226,l),
(623,224,o),
(631,215,o),
(631,205,cs),
(631,193,o),
(622,184,o),
(610,184,cs),
(174,184,ls),
(163,184,o),
(153,193,o),
(153,205,cs),
(153,216,o),
(163,226,o),
(174,226,cs)
);
},
{
closed = 1;
nodes = (
(161,117,ls),
(157,117,o),
(153,121,o),
(153,125,cs),
(153,152,ls),
(153,156,o),
(157,160,o),
(161,160,cs),
(624,160,ls),
(628,160,o),
(631,156,o),
(631,152,cs),
(631,125,ls),
(631,121,o),
(628,117,o),
(624,117,cs)
);
}
);
width = 786;
}
);
unicode = 86;
},
{
glyphname = W;
layers = (
{
layerId = "2337EC1E-F8DF-4C20-93B2-D6C634D9C8F1";
shapes = (
{
closed = 1;
nodes = (
(658,474,o),
(582,615,o),
(441,615,cs),
(411,615,o),
(381,607,o),
(354,593,c),
(328,607,o),
(298,615,o),
(267,615,cs),
(127,615,o),
(50,476,o),
(50,348,cs),
(50,305,o),
(55,271,o),
(69,238,c),
(64,229,o),
(64,218,o),
(64,210,cs),
(64,183,o),
(82,164,o),
(110,162,c),
(168,84,o),
(258,44,o),
(354,44,cs),
(449,44,o),
(537,87,o),
(595,162,c),
(625,163,o),
(644,182,o),
(644,210,cs),
(644,222,o),
(642,231,o),
(638,239,c),
(652,273,o),
(658,307,o),
(658,348,cs)
);
},
{
closed = 1;
nodes = (
(567,591,o),
(634,460,o),
(634,348,cs),
(634,313,o),
(629,284,o),
(618,255,c),
(611,258,o),
(602,259,o),
(591,259,cs),
(585,259,o),
(575,259,o),
(563,260,c),
(575,287,o),
(581,314,o),
(581,348,cs),
(581,433,o),
(539,541,o),
(439,541,cs),
(431,541,o),
(423,540,o),
(416,538,c),
(405,553,o),
(392,567,o),
(377,578,c),
(397,587,o),
(419,591,o),
(441,591,cs)
);
},
{
closed = 1;
nodes = (
(496,269,o),
(455,283,o),
(420,308,c),
(439,345,o),
(449,387,o),
(449,433,cs),
(449,463,o),
(442,491,o),
(429,516,c),
(523,516,o),
(557,431,o),
(557,348,cs),
(557,315,o),
(551,289,o),
(538,263,c)
);
},
{
closed = 1;
nodes = (
(354,591,o),
(425,520,o),
(425,433,cs),
(425,393,o),
(417,356,o),
(401,324,c),
(385,340,o),
(374,358,o),
(366,379,c),
(371,397,o),
(374,416,o),
(374,435,cs),
(374,482,o),
(343,522,o),
(301,536,c),
(300,536,l),
(290,539,o),
(280,541,o),
(269,541,cs),
(169,541,o),
(127,433,o),
(127,348,cs),
(127,315,o),
(132,287,o),
(144,260,c),
(135,259,o),
(126,259,o),
(116,259,cs),
(105,259,o),
(96,257,o),
(88,255,c),
(78,283,o),
(74,311,o),
(74,348,cs),
(74,461,o),
(139,591,o),
(267,591,cs)
);
},
{
closed = 1;
nodes = (
(157,289,o),
(151,315,o),
(151,348,cs),
(151,431,o),
(184,516,o),
(278,516,c),
(265,490,o),
(258,462,o),
(258,433,cs),
(258,387,o),
(268,344,o),
(288,308,c),
(269,295,o),
(230,272,o),
(170,263,c)
);
},
{
closed = 1;
nodes = (
(88,219,o),
(89,226,o),
(92,229,cs),
(95,233,o),
(104,235,o),
(116,235,cs),
(143,235,o),
(233,239,o),
(300,287,c),
(310,272,o),
(322,259,o),
(335,246,c),
(282,207,o),
(206,186,o),
(116,186,cs),
(103,186,o),
(88,190,o),
(88,210,cs)
);
},
{
closed = 1;
nodes = (
(431,156,o),
(393,145,o),
(354,145,cs),
(314,145,o),
(277,156,o),
(244,177,c),
(248,179,o),
(253,180,o),
(257,181,cs),
(294,193,o),
(327,209,o),
(354,230,c),
(384,207,o),
(421,189,o),
(464,178,c)
);
},
{
closed = 1;
nodes = (
(272,68,o),
(195,100,o),
(141,162,c),
(166,163,o),
(190,166,o),
(213,170,c),
(253,139,o),
(303,121,o),
(354,121,cs),
(406,121,o),
(454,138,o),
(495,170,c),
(517,166,o),
(540,164,o),
(564,162,c),
(509,103,o),
(435,68,o),
(354,68,cs)
);
},
{
closed = 1;
nodes = (
(434,186,o),
(282,255,o),
(282,433,cs),
(282,460,o),
(289,486,o),
(302,509,c),
(319,502,o),
(332,489,o),
(341,473,c),
(336,462,o),
(334,449,o),
(334,435,cs),
(334,294,o),
(465,235,o),
(591,235,cs),
(618,235,o),
(620,228,o),
(620,210,cs),
(620,199,o),
(615,186,o),
(591,186,cs)
);
}
);
width = 708;
}
);
unicode = 87;
},
{
glyphname = X;
layers = (
{
layerId = "2337EC1E-F8DF-4C20-93B2-D6C634D9C8F1";
shapes = (
{
closed = 1;
nodes = (
(406,462,l),
(404,469,o),
(398,472,o),
(391,470,c),
(378,466,o),
(364,469,o),
(354,477,cs),
(344,484,o),
(339,496,o),
(340,508,c),
(340,513,o),
(337,518,o),
(332,520,cs),
(327,522,o),
(321,520,o),
(318,516,c),
(305,499,o),
(280,495,o),
(263,509,cs),
(255,515,o),
(250,525,o),
(249,536,cs),
(248,541,o),
(244,545,o),
(239,546,cs),
(234,547,o),
(229,545,o),
(226,540,cs),
(225,538,o),
(224,537,o),
(223,535,cs),
(209,518,o),
(185,515,o),
(168,529,cs),
(160,536,o),
(154,546,o),
(154,557,cs),
(154,561,o),
(152,565,o),
(149,567,cs),
(146,570,o),
(141,572,o),
(136,570,c),
(82,555,ls),
(71,552,o),
(62,544,o),
(56,534,cs),
(50,524,o),
(49,512,o),
(52,501,cs),
(182,52,ls),
(187,33,o),
(205,20,o),
(223,20,cs),
(227,20,o),
(232,21,o),
(236,22,c),
(468,89,l),
(479,92,o),
(489,100,o),
(494,110,cs),
(500,120,o),
(501,132,o),
(498,143,c)
);
},
{
closed = 1;
nodes = (
(306,67,l),
(290,124,l),
(367,146,l),
(383,90,l)
);
},
{
closed = 1;
nodes = (
(283,147,l),
(265,212,l),
(342,234,l),
(360,169,l)
);
},
{
closed = 1;
nodes = (
(168,184,l),
(242,205,l),
(260,140,l),
(187,119,l)
);
},
{
closed = 1;
nodes = (
(145,266,l),
(218,287,l),
(235,228,l),
(162,207,l)
);
},
{
closed = 1;
nodes = (
(122,347,l),
(195,368,l),
(212,310,l),
(138,289,l)
);
},
{
closed = 1;
nodes = (
(98,428,l),
(171,449,l),
(188,391,l),
(115,370,l)
);
},
{
closed = 1;
nodes = (
(268,477,l),
(269,478,o),
(270,478,o),
(271,478,c),
(288,420,l),
(211,398,l),
(194,456,l)
);
},
{
closed = 1;
nodes = (
(392,425,l),
(409,366,l),
(335,345,l),
(318,403,l)
);
},
{
closed = 1;
nodes = (
(432,285,l),
(358,264,l),
(341,322,l),
(415,343,l)
);
},
{
closed = 1;
nodes = (
(335,257,l),
(258,235,l),
(241,293,l),
(318,315,l)
);
},
{
closed = 1;
nodes = (
(312,339,l),
(235,316,l),
(218,375,l),
(295,397,l)
);
},
{
closed = 1;
nodes = (
(365,241,l),
(439,262,l),
(458,197,l),
(383,176,l)
);
},
{
closed = 1;
nodes = (
(328,463,o),
(349,446,o),
(373,444,c),
(311,427,l),
(297,477,l),
(305,478,o),
(312,481,o),
(319,485,c)
);
},
{
closed = 1;
nodes = (
(234,505,o),
(238,499,o),
(243,495,c),
(188,479,l),
(183,497,l),
(200,494,o),
(218,499,o),
(232,510,c)
);
},
{
closed = 1;
nodes = (
(80,527,o),
(84,530,o),
(89,532,c),
(132,544,l),
(135,531,o),
(142,519,o),
(153,510,c),
(165,472,l),
(92,451,l),
(75,508,ls),
(74,513,o),
(75,518,o),
(77,522,cs)
);
},
{
closed = 1;
nodes = (
(229,45,ls),
(219,42,o),
(208,48,o),
(205,59,cs),
(194,96,l),
(267,117,l),
(283,61,l)
);
},
{
closed = 1;
nodes = (
(471,117,o),
(467,114,o),
(462,112,c),
(406,96,l),
(390,153,l),
(464,174,l),
(475,136,ls),
(476,131,o),
(476,126,o),
(473,122,c)
);
}
);
width = 550;
}
);
unicode = 88;
},
{
glyphname = O;
layers = (
{
layerId = "2337EC1E-F8DF-4C20-93B2-D6C634D9C8F1";
shapes = (
{
closed = 1;
nodes = (
(696,341,l),
(696,377,o),
(667,406,o),
(631,406,c),
(625,406,l),
(617,433,o),
(592,453,o),
(562,453,cs),
(557,453,o),
(551,452,o),
(545,451,c),
(535,473,o),
(512,488,o),
(487,488,cs),
(472,488,o),
(459,483,o),
(447,474,c),
(435,489,o),
(417,497,o),
(398,497,cs),
(379,497,o),
(361,489,o),
(349,475,c),
(338,483,o),
(325,488,o),
(311,488,cs),
(285,488,o),
(263,473,o),
(252,451,c),
(247,452,o),
(241,453,o),
(235,453,cs),
(206,453,o),
(181,433,o),
(173,406,c),
(166,406,ls),
(131,406,o),
(101,377,o),
(101,341,c),
(101,340,l),
(72,334,o),
(50,307,o),
(50,276,cs),
(50,240,o),
(79,211,o),
(115,211,cs),
(683,211,ls),
(718,211,o),
(748,240,o),
(748,276,cs),
(748,307,o),
(726,334,o),
(696,340,c)
);
},
{
closed = 1;
nodes = (
(115,235,ls),
(92,235,o),
(74,254,o),
(74,276,cs),
(74,299,o),
(92,317,o),
(115,317,cs),
(119,317,o),
(122,319,o),
(124,322,cs),
(127,325,o),
(127,328,o),
(127,332,c),
(126,335,o),
(126,338,o),
(126,341,cs),
(126,364,o),
(144,382,o),
(166,382,cs),
(171,382,o),
(175,381,o),
(179,380,cs),
(182,379,o),
(186,380,o),
(189,382,cs),
(192,384,o),
(194,387,o),
(195,391,c),
(196,412,o),
(214,429,o),
(235,429,cs),
(242,429,o),
(248,428,o),
(254,425,cs),
(257,423,o),
(261,423,o),
(264,424,cs),
(268,426,o),
(270,429,o),
(271,432,cs),
(275,451,o),
(292,464,o),
(311,464,cs),
(323,464,o),
(334,458,o),
(342,449,cs),
(345,446,o),
(349,444,o),
(353,445,c),
(356,445,o),
(360,448,o),
(362,451,cs),
(369,465,o),
(383,473,o),
(398,473,cs),
(414,473,o),
(428,464,o),
(435,450,cs),
(437,447,o),
(440,444,o),
(444,444,c),
(448,443,o),
(452,445,o),
(455,448,cs),
(463,458,o),
(474,464,o),
(487,464,cs),
(506,464,o),
(522,451,o),
(527,432,cs),
(528,429,o),
(530,426,o),
(533,424,c),
(537,423,o),
(541,423,o),
(544,425,cs),
(550,428,o),
(556,429,o),
(562,429,cs),
(584,429,o),
(602,412,o),
(603,391,c),
(603,387,o),
(605,384,o),
(608,382,cs),
(611,380,o),
(615,379,o),
(619,380,cs),
(623,381,o),
(627,382,o),
(631,382,cs),
(654,382,o),
(672,364,o),
(672,341,cs),
(672,338,o),
(672,335,o),
(671,332,cs),
(670,328,o),
(671,325,o),
(673,322,cs),
(676,319,o),
(679,317,o),
(683,317,cs),
(705,317,o),
(724,299,o),
(724,276,cs),
(724,254,o),
(705,235,o),
(683,235,cs)
);
},
{
closed = 1;
nodes = (
(230,394,o),
(196,359,o),
(196,317,cs),
(196,310,o),
(201,305,o),
(208,305,cs),
(215,305,o),
(220,310,o),
(220,317,cs),
(220,346,o),
(244,370,o),
(273,370,cs),
(279,370,o),
(285,375,o),
(285,382,cs),
(285,388,o),
(279,394,o),
(273,394,cs)
);
}
);
width = 798;
}
);
unicode = 79;
},
{
glyphname = S;
layers = (
{
layerId = "2337EC1E-F8DF-4C20-93B2-D6C634D9C8F1";
shapes = (
{
closed = 1;
nodes = (
(406,314,ls),
(436,440,o),
(437,534,o),
(408,592,cs),
(391,625,o),
(365,646,o),
(330,655,cs),
(282,668,o),
(239,660,o),
(201,633,cs),
(100,558,o),
(50,336,o),
(50,222,cs),
(50,217,o),
(53,211,o),
(59,210,c),
(156,184,l),
(121,63,ls),
(114,37,o),
(129,10,o),
(155,2,c),
(157,2,l),
(162,1,o),
(166,0,o),
(171,0,cs),
(192,0,o),
(212,14,o),
(218,36,cs),
(252,158,l),
(338,135,l),
(339,134,o),
(340,134,o),
(341,134,c),
(346,134,o),
(351,137,o),
(353,142,c),
(356,149,o),
(381,212,o),
(403,299,c)
);
},
{
closed = 1;
nodes = (
(247,637,o),
(283,643,o),
(324,632,cs),
(352,625,o),
(373,608,o),
(386,582,cs),
(411,532,o),
(406,438,o),
(394,364,c),
(392,385,o),
(384,395,o),
(371,395,cs),
(355,395,o),
(343,383,o),
(337,361,cs),
(332,344,o),
(331,323,o),
(329,302,cs),
(329,294,o),
(324,235,o),
(313,235,cs),
(291,235,o),
(301,299,o),
(301,313,cs),
(301,367,o),
(303,386,o),
(292,397,cs),
(287,403,o),
(280,406,o),
(271,406,cs),
(261,406,o),
(247,402,o),
(239,383,cs),
(235,376,o),
(235,367,o),
(230,346,cs),
(228,337,o),
(227,309,o),
(216,309,cs),
(205,309,o),
(210,352,o),
(210,360,cs),
(210,391,o),
(213,421,o),
(199,436,cs),
(193,442,o),
(185,445,o),
(176,445,cs),
(167,445,o),
(158,442,o),
(152,435,c),
(146,430,o),
(142,423,o),
(139,413,cs),
(133,397,o),
(130,377,o),
(127,357,cs),
(124,340,o),
(121,319,o),
(115,303,cs),
(108,285,o),
(101,285,o),
(98,285,cs),
(83,285,o),
(85,318,o),
(87,327,cs),
(102,418,o),
(140,559,o),
(215,613,cs)
);
},
{
closed = 1;
nodes = (
(195,42,ls),
(193,36,o),
(189,30,o),
(183,27,cs),
(177,24,o),
(170,23,o),
(164,25,c),
(162,25,l),
(155,27,o),
(150,32,o),
(147,37,cs),
(144,43,o),
(143,50,o),
(145,57,cs),
(179,178,l),
(229,164,l)
);
},
{
closed = 1;
nodes = (
(75,231,l),
(75,239,o),
(77,262,o),
(79,278,c),
(82,267,o),
(90,261,o),
(98,261,cs),
(116,261,o),
(129,273,o),
(138,295,cs),
(145,313,o),
(147,335,o),
(150,354,cs),
(153,371,o),
(155,389,o),
(161,405,cs),
(167,421,o),
(173,421,o),
(176,421,cs),
(179,421,o),
(180,421,o),
(181,420,c),
(190,411,o),
(187,373,o),
(186,361,cs),
(185,339,o),
(179,285,o),
(214,285,cs),
(245,285,o),
(249,319,o),
(253,342,cs),
(259,376,o),
(263,382,o),
(271,382,cs),
(280,382,o),
(277,358,o),
(277,315,cs),
(277,277,o),
(271,240,o),
(287,222,cs),
(294,215,o),
(302,211,o),
(313,211,cs),
(328,211,o),
(339,223,o),
(345,245,cs),
(350,262,o),
(351,282,o),
(353,300,cs),
(355,329,o),
(358,371,o),
(371,371,cs),
(383,371,o),
(382,317,o),
(379,305,cs),
(367,256,o),
(351,209,o),
(334,161,c)
);
}
);
width = 480;
}
);
unicode = 83;
},
{
glyphname = K;
layers = (
{
background = {
shapes = (
{
closed = 1;
nodes = (
(577,172,o),
(574,176,o),
(572,179,c),
(596,171,o),
(584,207,o),
(579,216,cs),
(570,232,o),
(555,245,o),
(537,249,cs),
(517,254,o),
(493,251,o),
(474,241,cs),
(460,234,o),
(447,218,o),
(436,210,cs),
(433,208,o),
(424,203,o),
(425,203,c),
(420,202,o),
(416,201,o),
(411,200,cs),
(404,198,o),
(393,200,o),
(384,203,cs),
(368,209,o),
(352,232,o),
(334,242,cs),
(308,255,o),
(275,255,o),
(250,240,cs),
(235,230,o),
(223,214,o),
(206,206,cs),
(187,198,o),
(163,202,o),
(147,214,cs),
(136,223,o),
(122,258,o),
(107,247,cs),
(87,231,o),
(132,194,o),
(145,187,cs),
(172,174,o),
(205,176,o),
(231,193,cs),
(245,203,o),
(256,217,o),
(272,224,c),
(273,225,o),
(281,227,o),
(284,227,c),
(283,227,o),
(282,227,o),
(282,227,c),
(330,234,o),
(348,185,o),
(390,177,cs),
(415,172,o),
(438,181,o),
(457,197,cs),
(471,210,o),
(486,225,o),
(506,227,cs),
(525,228,o),
(541,227,o),
(554,211,c),
(553,211,o),
(553,212,o),
(553,212,c),
(559,207,o),
(563,195,o),
(564,187,c),
(544,206,o),
(514,207,o),
(489,199,c),
(467,193,o),
(452,174,o),
(436,163,cs),
(434,162,o),
(433,161,o),
(432,160,c),
(430,159,o),
(420,154,o),
(425,156,c),
(421,155,o),
(416,153,o),
(413,152,c),
(412,152,o),
(411,152,o),
(411,152,c),
(404,151,o),
(393,153,o),
(384,156,cs),
(373,160,o),
(360,176,o),
(348,185,cs),
(328,200,o),
(300,208,o),
(274,202,cs),
(243,195,o),
(222,158,o),
(194,155,cs),
(171,153,o),
(149,160,o),
(135,179,cs),
(129,187,o),
(119,213,o),
(106,197,cs),
(94,184,o),
(121,157,o),
(131,149,cs),
(165,121,o),
(211,127,o),
(243,155,cs),
(253,164,o),
(262,173,o),
(274,177,cs),
(278,179,o),
(282,179,o),
(286,180,c),
(288,180,o),
(305,178,o),
(301,179,c),
(336,173,o),
(352,139,o),
(385,130,cs),
(424,120,o),
(448,144,o),
(476,167,cs),
(493,180,o),
(532,188,o),
(551,166,cs),
(559,157,o),
(559,143,o),
(566,135,cs),
(572,129,o),
(582,129,o),
(586,137,cs),
(591,146,o),
(583,161,o),
(579,169,cs)
);
}
);
};
layerId = "276078B1-9544-40AF-AB64-08B62BEE7F53";
associatedMasterId = "2337EC1E-F8DF-4C20-93B2-D6C634D9C8F1";
name = 1;
shapes = (
{
closed = 1;
nodes = (
(586,53,l),
(588,57,o),
(589,61,o),
(589,66,cs),
(589,294,ls),
(589,314,o),
(572,331,o),
(552,331,cs),
(486,331,l),
(486,494,ls),
(486,501,o),
(481,506,o),
(474,506,cs),
(430,506,ls),
(424,506,o),
(418,501,o),
(418,494,cs),
(418,331,l),
(384,331,l),
(384,494,ls),
(384,501,o),
(379,506,o),
(372,506,cs),
(329,506,ls),
(322,506,o),
(317,501,o),
(317,494,cs),
(317,331,l),
(272,331,l),
(272,494,ls),
(272,501,o),
(266,506,o),
(260,506,cs),
(216,506,ls),
(210,506,o),
(204,501,o),
(204,494,cs),
(204,331,l),
(138,331,ls),
(118,331,o),
(102,314,o),
(102,294,cs),
(102,66,ls),
(102,61,o),
(103,57,o),
(104,53,c),
(53,53,ls),
(46,53,o),
(41,48,o),
(41,41,cs),
(41,34,o),
(46,29,o),
(53,29,cs),
(138,29,l),
(552,29,l),
(638,29,ls),
(644,29,o),
(650,34,o),
(650,41,cs),
(650,48,o),
(644,53,o),
(638,53,cs)
);
},
{
closed = 1;
nodes = (
(442,482,l),
(462,482,l),
(462,331,l),
(442,331,l)
);
},
{
closed = 1;
nodes = (
(341,482,l),
(360,482,l),
(360,331,l),
(341,331,l)
);
},
{
closed = 1;
nodes = (
(228,482,l),
(248,482,l),
(248,331,l),
(228,331,l)
);
},
{
closed = 1;
nodes = (
(138,53,ls),
(131,53,o),
(126,59,o),
(126,66,cs),
(126,294,ls),
(126,301,o),
(131,307,o),
(138,307,cs),
(216,307,l),
(260,307,l),
(329,307,l),
(372,307,l),
(430,307,l),
(474,307,l),
(552,307,ls),
(559,307,o),
(565,301,o),
(565,294,cs),
(565,66,ls),
(565,59,o),
(559,53,o),
(552,53,cs)
);
},
{
closed = 1;
nodes = (
(255,510,o),
(263,517,o),
(267,524,cs),
(275,537,o),
(275,558,o),
(265,588,cs),
(259,608,o),
(250,625,o),
(250,626,c),
(248,630,o),
(244,632,o),
(240,632,cs),
(235,632,o),
(231,630,o),
(229,626,c),
(228,625,o),
(219,609,o),
(212,589,cs),
(202,560,o),
(200,539,o),
(209,525,cs),
(213,518,o),
(221,510,o),
(239,510,cs)
);
},
{
closed = 1;
nodes = (
(240,588,o),
(241,584,o),
(242,581,cs),
(252,549,o),
(248,539,o),
(247,537,c),
(246,536,o),
(245,534,o),
(239,534,cs),
(231,534,o),
(230,536,o),
(229,538,cs),
(224,546,o),
(229,569,o),
(239,591,c)
);
},
{
closed = 1;
nodes = (
(368,510,o),
(376,517,o),
(380,524,cs),
(388,537,o),
(387,558,o),
(378,588,c),
(371,608,o),
(363,625,o),
(363,626,c),
(361,630,o),
(357,632,o),
(352,632,cs),
(348,632,o),
(344,630,o),
(341,626,c),
(341,625,o),
(332,609,o),
(325,589,cs),
(314,560,o),
(313,539,o),
(321,525,cs),
(325,518,o),
(334,510,o),
(352,510,cs)
);
},
{
closed = 1;
nodes = (
(353,588,o),
(354,584,o),
(355,580,cs),
(365,549,o),
(361,539,o),
(360,537,c),
(359,536,o),
(358,534,o),
(352,534,cs),
(344,534,o),
(342,536,o),
(342,538,c),
(337,546,o),
(342,569,o),
(351,591,c)
);
},
{
closed = 1;
nodes = (
(469,510,o),
(477,517,o),
(481,524,cs),
(490,537,o),
(489,558,o),
(479,588,cs),
(473,608,o),
(465,625,o),
(464,626,c),
(462,630,o),
(458,632,o),
(454,632,cs),
(449,632,o),
(445,630,o),
(443,626,c),
(443,625,o),
(434,609,o),
(427,589,cs),
(416,560,o),
(415,539,o),
(423,525,cs),
(427,518,o),
(436,510,o),
(454,510,cs)
);
},
{
closed = 1;
nodes = (
(454,588,o),
(455,584,o),
(457,580,c),
(467,549,o),
(463,539,o),
(461,537,c),
(460,536,o),
(459,534,o),
(454,534,cs),
(446,534,o),
(444,536,o),
(443,538,cs),
(438,546,o),
(444,569,o),
(453,591,c)
);
},
{
closed = 1;
nodes = (
(104,230,l),
(124,203,o),
(144,178,o),
(181,178,cs),
(224,178,o),
(250,229,o),
(295,229,cs),
(336,229,o),
(354,175,o),
(406,175,cs),
(459,175,o),
(484,229,o),
(529,229,cs),
(559,229,o),
(566,210,o),
(566,205,c),
(588,205,l),
(588,222,o),
(573,253,o),
(529,253,cs),
(475,253,o),
(448,199,o),
(406,199,cs),
(364,199,o),
(347,253,o),
(295,253,cs),
(244,253,o),
(211,202,o),
(181,202,cs),
(155,202,o),
(138,224,o),
(124,244,c)
);
},
{
closed = 1;
nodes = (
(104,180,l),
(124,153,o),
(144,128,o),
(181,128,cs),
(224,128,o),
(250,179,o),
(295,179,cs),
(336,179,o),
(354,125,o),
(406,125,cs),
(459,125,o),
(484,179,o),
(529,179,cs),
(559,179,o),
(566,160,o),
(566,155,c),
(588,155,l),
(588,172,o),
(573,203,o),
(529,203,cs),
(475,203,o),
(448,149,o),
(406,149,cs),
(364,149,o),
(347,203,o),
(295,203,cs),
(244,203,o),
(211,152,o),
(181,152,cs),
(155,152,o),
(138,174,o),
(124,194,c)
);
}
);
width = 561;
},
{
layerId = "2337EC1E-F8DF-4C20-93B2-D6C634D9C8F1";
shapes = (
{
closed = 1;
nodes = (
(264,510,o),
(272,517,o),
(276,524,cs),
(284,537,o),
(284,558,o),
(274,588,cs),
(268,608,o),
(259,625,o),
(259,626,c),
(257,630,o),
(253,632,o),
(249,632,cs),
(244,632,o),
(240,630,o),
(238,626,c),
(237,625,o),
(228,609,o),
(221,589,cs),
(211,560,o),
(209,539,o),
(218,525,cs),
(222,518,o),
(230,510,o),
(248,510,cs)
);
},
{
closed = 1;
nodes = (
(377,510,o),
(385,517,o),
(389,524,cs),
(397,537,o),
(396,558,o),
(387,588,c),
(380,608,o),
(372,625,o),
(372,626,c),
(370,630,o),
(366,632,o),
(361,632,cs),
(357,632,o),
(353,630,o),
(350,626,c),
(350,625,o),
(341,609,o),
(334,589,cs),
(323,560,o),
(322,539,o),
(330,525,cs),
(334,518,o),
(343,510,o),
(361,510,cs)
);
},
{
closed = 1;
nodes = (
(478,510,o),
(486,517,o),
(490,524,cs),
(499,537,o),
(498,558,o),
(488,588,cs),
(482,608,o),
(474,625,o),
(473,626,c),
(471,630,o),
(467,632,o),
(463,632,cs),
(458,632,o),
(454,630,o),
(452,626,c),
(452,625,o),
(443,609,o),
(436,589,cs),
(425,560,o),
(424,539,o),
(432,525,cs),
(436,518,o),
(445,510,o),
(463,510,cs)
);
},
{
closed = 1;
nodes = (
(251,581,ls),
(261,549,o),
(257,539,o),
(256,537,c),
(255,536,o),
(254,534,o),
(248,534,cs),
(240,534,o),
(239,536,o),
(238,538,cs),
(233,546,o),
(238,569,o),
(248,591,c)
);
},
{
closed = 1;
nodes = (
(362,588,o),
(363,584,o),
(364,580,cs),
(374,549,o),
(370,539,o),
(369,537,c),
(368,536,o),
(367,534,o),
(361,534,cs),
(353,534,o),
(351,536,o),
(351,538,c),
(346,546,o),
(351,569,o),
(360,591,c)
);
},
{
closed = 1;
nodes = (
(463,588,o),
(464,584,o),
(466,580,c),
(476,549,o),
(472,539,o),
(470,537,c),
(469,536,o),
(468,534,o),
(463,534,cs),
(455,534,o),
(453,536,o),
(452,538,cs),
(447,546,o),
(453,569,o),
(462,591,c)
);
},
{
closed = 1;
nodes = (
(595,53,l),
(597,57,o),
(598,61,o),
(598,66,cs),
(598,294,ls),
(598,314,o),
(581,331,o),
(561,331,cs),
(495,331,l),
(495,494,ls),
(495,501,o),
(490,506,o),
(483,506,cs),
(439,506,ls),
(433,506,o),
(427,501,o),
(427,494,cs),
(427,331,l),
(393,331,l),
(393,494,ls),
(393,501,o),
(388,506,o),
(381,506,cs),
(338,506,ls),
(331,506,o),
(326,501,o),
(326,494,cs),
(326,331,l),
(281,331,l),
(281,494,ls),
(281,501,o),
(275,506,o),
(269,506,cs),
(225,506,ls),
(219,506,o),
(213,501,o),
(213,494,cs),
(213,331,l),
(147,331,ls),
(127,331,o),
(111,314,o),
(111,294,cs),
(111,66,ls),
(111,61,o),
(112,57,o),
(113,53,c),
(62,53,ls),
(55,53,o),
(50,48,o),
(50,41,cs),
(50,34,o),
(55,29,o),
(62,29,cs),
(647,29,ls),
(653,29,o),
(659,34,o),
(659,41,cs),
(659,48,o),
(653,53,o),
(647,53,cs)
);
},
{
closed = 1;
nodes = (
(451,482,l),
(471,482,l),
(471,331,l),
(451,331,l)
);
},
{
closed = 1;
nodes = (
(350,482,l),
(369,482,l),
(369,331,l),
(350,331,l)
);
},
{
closed = 1;
nodes = (
(237,482,l),
(257,482,l),
(257,331,l),
(237,331,l)
);
},
{
closed = 1;
nodes = (
(574,244,l),
(565,250,o),
(553,253,o),
(538,253,cs),
(484,253,o),
(457,199,o),
(415,199,cs),
(373,199,o),
(356,253,o),
(304,253,cs),
(253,253,o),
(220,202,o),
(190,202,cs),
(165,202,o),
(149,222,o),
(135,241,c),
(135,294,ls),
(135,301,o),
(140,307,o),
(147,307,cs),
(561,307,ls),
(568,307,o),
(574,301,o),
(574,294,cs)
);
},
{
closed = 1;
nodes = (
(135,203,l),
(149,188,o),
(166,178,o),
(190,178,cs),
(233,178,o),
(259,229,o),
(304,229,cs),
(345,229,o),
(363,175,o),
(415,175,cs),
(468,175,o),
(493,229,o),
(538,229,cs),
(562,229,o),
(571,216,o),
(574,209,c),
(574,194,l),
(565,200,o),
(553,203,o),
(538,203,cs),
(484,203,o),
(457,149,o),
(415,149,cs),
(373,149,o),
(356,203,o),
(304,203,cs),
(253,203,o),
(220,152,o),
(190,152,cs),
(165,152,o),
(149,172,o),
(135,191,c)
);
},
{
closed = 1;
nodes = (
(147,53,ls),
(140,53,o),
(135,59,o),
(135,66,cs),
(135,153,l),
(149,138,o),
(166,128,o),
(190,128,cs),
(233,128,o),
(259,179,o),
(304,179,cs),
(345,179,o),
(363,125,o),
(415,125,cs),
(468,125,o),
(493,179,o),
(538,179,cs),
(562,179,o),
(571,166,o),
(574,159,c),
(574,66,ls),
(574,59,o),
(568,53,o),
(561,53,cs)
);
}
);
width = 709;
}
);
unicode = 75;
},
{
glyphname = L;
layers = (
{
layerId = "2337EC1E-F8DF-4C20-93B2-D6C634D9C8F1";
shapes = (
{
closed = 1;
nodes = (
(421,371,o),
(423,370,o),
(424,370,c),
(429,370,o),
(433,373,o),
(435,378,cs),
(442,395,o),
(442,415,o),
(436,432,cs),
(434,438,o),
(427,442,o),
(421,439,c),
(414,437,o),
(411,430,o),
(413,424,cs),
(418,412,o),
(418,399,o),
(413,387,cs),
(410,381,o),
(413,374,o),
(420,371,c)
);
},
{
closed = 1;
nodes = (
(236,371,o),
(238,371,o),
(239,372,c),
(245,375,o),
(248,382,o),
(245,388,cs),
(240,399,o),
(239,412,o),
(242,424,cs),
(244,431,o),
(241,437,o),
(234,439,cs),
(228,441,o),
(221,438,o),
(219,431,cs),
(214,413,o),
(215,394,o),
(223,377,cs),
(225,373,o),
(230,371,o),
(234,371,c)
);
},
{
closed = 1;
nodes = (
(322,423,o),
(335,421,o),
(346,414,cs),
(348,413,o),
(350,413,o),
(352,413,c),
(357,413,o),
(361,415,o),
(363,418,cs),
(366,424,o),
(364,432,o),
(358,435,cs),
(342,444,o),
(323,447,o),
(305,444,c),
(299,442,o),
(294,436,o),
(296,429,cs),
(297,423,o),
(304,419,o),
(310,420,cs)
);
},
{
closed = 1;
nodes = (
(227,326,o),
(221,331,o),
(214,330,cs),
(196,327,o),
(179,318,o),
(167,304,c),
(163,298,o),
(163,291,o),
(168,287,cs),
(171,285,o),
(173,284,o),
(176,284,cs),
(179,284,o),
(183,285,o),
(185,288,cs),
(193,298,o),
(205,304,o),
(217,306,cs),
(224,307,o),
(229,313,o),
(228,319,cs)
);
},
{
closed = 1;
nodes = (
(457,337,o),
(450,334,o),
(447,328,cs),
(444,322,o),
(447,315,o),
(453,312,cs),
(464,307,o),
(473,298,o),
(478,286,cs),
(480,281,o),
(485,278,o),
(489,278,c),
(491,278,o),
(492,279,o),
(494,279,c),
(500,282,o),
(503,289,o),
(500,295,cs),
(493,312,o),
(480,326,o),
(463,334,cs)
);
},
{
closed = 1;
nodes = (
(240,240,o),
(235,246,o),
(229,247,cs),
(222,248,o),
(216,243,o),
(215,237,cs),
(213,218,o),
(217,200,o),
(228,184,cs),
(230,181,o),
(234,179,o),
(238,179,c),
(240,179,o),
(243,180,o),
(245,181,cs),
(250,185,o),
(251,192,o),
(248,198,c),
(240,208,o),
(237,221,o),
(239,234,cs)
);
},
{
closed = 1;
nodes = (
(421,246,o),
(416,240,o),
(417,233,cs),
(419,221,o),
(417,208,o),
(410,197,cs),
(406,192,o),
(407,185,o),
(413,181,cs),
(415,179,o),
(417,179,o),
(419,179,c),
(423,179,o),
(427,181,o),
(430,184,c),
(440,200,o),
(444,219,o),
(441,237,cs),
(440,244,o),
(434,248,o),
(427,247,cs)
);
},
{
closed = 1;
nodes = (
(346,201,o),
(339,199,o),
(335,194,cs),
(328,183,o),
(318,176,o),
(305,172,c),
(299,171,o),
(295,164,o),
(297,158,cs),
(298,152,o),
(303,149,o),
(308,149,c),
(311,149,l),
(330,154,o),
(345,165,o),
(355,181,cs),
(359,186,o),
(358,194,o),
(352,197,cs)
);
},
{
closed = 1;
nodes = (
(176,588,o),
(50,463,o),
(50,308,cs),
(50,153,o),
(175,28,o),
(330,28,cs),
(485,28,o),
(610,153,o),
(610,308,cs),
(610,463,o),
(484,588,o),
(330,588,cs)
);
},
{
closed = 1;
nodes = (
(188,52,o),
(74,166,o),
(74,308,cs),
(74,449,o),
(189,564,o),
(330,564,cs),
(471,564,o),
(586,449,o),
(586,308,cs),
(586,166,o),
(472,52,o),
(330,52,cs)
);
},
{
closed = 1;
nodes = (
(283,393,o),
(245,355,o),
(245,308,cs),
(245,261,o),
(283,223,o),
(330,223,cs),
(377,223,o),
(415,261,o),
(415,308,cs),
(415,355,o),
(377,393,o),
(330,393,cs)
);
},
{
closed = 1;
nodes = (
(296,247,o),
(269,274,o),
(269,308,cs),
(269,341,o),
(296,369,o),
(330,369,cs),
(364,369,o),
(391,341,o),
(391,308,cs),
(391,274,o),
(364,247,o),
(330,247,cs)
);
},
{
closed = 1;
nodes = (
(539,356,o),
(533,360,o),
(528,363,cs),
(523,366,o),
(519,368,o),
(516,372,cs),
(506,383,o),
(505,390,o),
(509,411,cs),
(513,428,o),
(518,449,o),
(496,472,cs),
(485,483,o),
(468,490,o),
(452,490,cs),
(440,490,o),
(429,484,o),
(417,484,cs),
(399,484,o),
(393,492,o),
(383,506,cs),
(374,520,o),
(361,537,o),
(330,537,cs),
(299,537,o),
(286,520,o),
(277,506,cs),
(267,492,o),
(261,484,o),
(243,484,cs),
(238,484,o),
(234,485,o),
(229,487,c),
(223,488,o),
(216,490,o),
(208,490,cs),
(192,490,o),
(175,483,o),
(164,472,cs),
(143,449,o),
(147,428,o),
(151,411,cs),
(155,390,o),
(154,383,o),
(144,372,cs),
(141,368,o),
(137,366,o),
(132,363,cs),
(127,360,o),
(121,356,o),
(116,350,cs),
(105,339,o),
(99,323,o),
(99,308,cs),
(99,283,o),
(112,263,o),
(132,251,cs),
(137,248,o),
(141,245,o),
(144,242,cs),
(171,212,o),
(127,182,o),
(165,141,c),
(176,130,o),
(192,123,o),
(208,123,cs),
(216,123,o),
(223,125,o),
(229,127,cs),
(234,128,o),
(238,130,o),
(243,130,cs),
(261,130,o),
(267,122,o),
(277,108,cs),
(286,94,o),
(299,76,o),
(330,76,cs),
(361,76,o),
(374,94,o),
(383,108,cs),
(393,122,o),
(399,130,o),
(417,130,cs),
(422,130,o),
(426,128,o),
(431,127,cs),
(437,125,o),
(444,123,o),
(452,123,cs),
(468,123,o),
(485,131,o),
(496,142,c),
(533,183,o),
(489,212,o),
(516,242,cs),
(519,245,o),
(523,248,o),
(528,251,cs),
(548,263,o),
(561,283,o),
(561,308,cs),
(561,323,o),
(555,339,o),
(544,350,cs)
);
},
{
closed = 1;
nodes = (
(524,276,o),
(520,274,o),
(515,271,cs),
(510,268,o),
(504,264,o),
(498,258,cs),
(461,217,o),
(505,187,o),
(479,159,c),
(471,151,o),
(462,147,o),
(452,147,cs),
(447,147,o),
(443,149,o),
(438,150,cs),
(432,152,o),
(425,154,o),
(417,154,cs),
(390,154,o),
(378,143,o),
(363,122,cs),
(355,109,o),
(349,100,o),
(330,100,cs),
(312,100,o),
(306,108,o),
(296,122,cs),
(287,136,o),
(275,154,o),
(243,154,cs),
(235,154,o),
(228,152,o),
(222,150,cs),
(217,149,o),
(213,147,o),
(208,147,cs),
(198,147,o),
(189,151,o),
(181,159,c),
(155,187,o),
(199,217,o),
(162,258,cs),
(156,264,o),
(150,268,o),
(145,271,cs),
(140,274,o),
(136,276,o),
(133,280,cs),
(126,288,o),
(123,297,o),
(123,308,cs),
(123,318,o),
(127,327,o),
(133,334,cs),
(136,337,o),
(140,340,o),
(145,343,cs),
(150,346,o),
(156,350,o),
(162,356,cs),
(183,379,o),
(179,399,o),
(175,416,cs),
(171,437,o),
(172,444,o),
(181,455,c),
(188,462,o),
(198,466,o),
(208,466,cs),
(213,466,o),
(217,465,o),
(222,464,cs),
(228,462,o),
(235,460,o),
(243,460,cs),
(275,460,o),
(287,478,o),
(296,492,cs),
(305,505,o),
(311,513,o),
(330,513,cs),
(349,513,o),
(355,505,o),
(363,492,cs),
(378,471,o),
(390,460,o),
(417,460,cs),
(430,460,o),
(440,466,o),
(452,466,cs),
(462,466,o),
(471,462,o),
(478,455,cs),
(490,441,o),
(488,431,o),
(485,416,cs),
(481,399,o),
(477,379,o),
(498,356,cs),
(504,350,o),
(510,346,o),
(515,343,cs),
(520,340,o),
(524,337,o),
(527,334,cs),
(533,327,o),
(537,318,o),
(537,308,cs),
(537,297,o),
(534,288,o),
(527,280,cs)
);
}
);
width = 660;
}
);
unicode = 76;
},
{
glyphname = M;
layers = (
{
layerId = "2337EC1E-F8DF-4C20-93B2-D6C634D9C8F1";
shapes = (
{
closed = 1;
nodes = (
(414,215,l),
(460,247,o),
(493,294,o),
(506,349,cs),
(521,409,o),
(511,471,o),
(479,524,cs),
(447,577,o),
(397,614,o),
(337,629,cs),
(277,644,o),
(215,634,o),
(162,602,cs),
(109,570,o),
(72,519,o),
(57,459,cs),
(42,399,o),
(52,337,o),
(84,284,cs),
(126,215,o),
(202,173,o),
(282,173,cs),
(321,173,o),
(359,183,o),
(393,202,c),
(514,6,ls),
(516,2,o),
(520,0,o),
(524,0,c),
(526,0,o),
(528,1,o),
(530,2,cs),
(536,5,o),
(538,13,o),
(534,18,c)
);
},
{
closed = 1;
nodes = (
(321,272,o),
(341,309,o),
(349,348,c),
(354,348,o),
(360,349,o),
(366,351,c),
(376,338,o),
(395,304,o),
(373,253,c),
(344,245,o),
(314,244,o),
(288,249,c)
);
},
{
closed = 1;
nodes = (
(199,214,l),
(179,223,o),
(160,235,o),
(144,249,c),
(160,251,o),
(181,257,o),
(199,275,c),
(211,261,o),
(226,249,o),
(242,240,c),
(224,215,o),
(200,215,o),
(199,215,c)
);
},
{
closed = 1;
nodes = (
(169,413,o),
(168,411,o),
(168,409,c),
(164,395,o),
(163,382,o),
(163,369,c),
(124,353,o),
(88,364,o),
(78,368,c),
(73,396,o),
(73,425,o),
(80,454,cs),
(81,456,o),
(81,458,o),
(82,460,c),
(101,430,o),
(135,419,o),
(169,415,c)
);
},
{
closed = 1;
nodes = (
(189,591,o),
(212,601,o),
(235,606,c),
(226,578,o),
(228,554,o),
(232,538,cs),
(234,528,o),
(237,519,o),
(240,513,c),
(235,510,o),
(230,507,o),
(225,503,cs),
(219,499,o),
(214,494,o),
(209,489,c),
(194,498,o),
(159,525,o),
(169,578,c)
);
},
{
closed = 1;
nodes = (
(262,497,l),
(270,500,o),
(278,502,o),
(286,503,c),
(284,499,o),
(283,495,o),
(282,490,cs),
(277,469,o),
(282,449,o),
(296,434,c),
(293,429,o),
(291,424,o),
(290,419,c),
(245,414,o),
(218,436,o),
(208,447,c),
(216,462,o),
(227,474,o),
(239,484,cs),
(246,489,o),
(254,494,o),
(261,497,c)
);
},
{
closed = 1;
nodes = (
(482,353,o),
(482,351,o),
(481,349,c),
(469,367,o),
(452,380,o),
(431,389,cs),
(420,393,o),
(410,396,o),
(402,397,c),
(405,410,o),
(405,421,o),
(405,431,c),
(411,433,o),
(419,435,o),
(430,435,c),
(452,437,o),
(472,431,o),
(488,418,c),
(490,398,o),
(488,376,o),
(483,355,cs)
);
},
{
closed = 1;
nodes = (
(312,424,o),
(330,438,o),
(345,438,cs),
(362,438,o),
(378,424,o),
(378,406,cs),
(378,383,o),
(362,372,o),
(346,372,cs),
(329,372,o),
(312,384,o),
(312,408,cs)
);
},
{
closed = 1;
nodes = (
(236,270,o),
(218,287,o),
(205,307,c),
(202,313,o),
(199,320,o),
(196,327,c),
(199,326,o),
(203,326,o),
(207,326,cs),
(231,326,o),
(267,333,o),
(306,364,c),
(311,358,o),
(317,354,o),
(325,351,c),
(315,313,o),
(295,276,o),
(257,260,c)
);
},
{
closed = 1;
nodes = (
(290,391,o),
(291,387,o),
(292,384,c),
(268,364,o),
(243,353,o),
(217,351,c),
(207,349,o),
(199,350,o),
(189,352,c),
(188,355,o),
(188,358,o),
(187,363,c),
(187,376,o),
(189,405,o),
(195,417,cs),
(197,419,o),
(198,420,o),
(199,422,c),
(214,410,o),
(240,394,o),
(277,394,cs),
(281,394,o),
(285,394,o),
(289,395,c)
);
},
{
closed = 1;
nodes = (
(372,464,o),
(374,458,o),
(376,452,c),
(371,456,o),
(365,459,o),
(359,460,cs),
(344,464,o),
(329,461,o),
(316,454,c),
(313,451,l),
(305,461,o),
(303,472,o),
(305,485,c),
(307,492,o),
(309,498,o),
(312,503,c),
(324,500,ls),
(342,496,o),
(358,484,o),
(368,469,cs)
);
},
{
closed = 1;
nodes = (
(134,336,o),
(150,338,o),
(166,344,c),
(169,327,o),
(175,311,o),
(185,295,c),
(168,278,o),
(143,274,o),
(120,274,c),
(104,294,o),
(92,317,o),
(84,341,c),
(94,338,o),
(106,336,o),
(120,336,cs)
);
},
{
closed = 1;
nodes = (
(396,350,o),
(390,358,o),
(386,365,c),
(389,367,o),
(391,371,o),
(393,374,c),
(400,373,o),
(411,371,o),
(422,366,cs),
(445,357,o),
(461,342,o),
(470,321,c),
(452,291,o),
(425,273,o),
(402,263,c),
(411,296,o),
(406,322,o),
(400,339,cs)
);
},
{
closed = 1;
nodes = (
(467,457,o),
(448,461,o),
(427,459,c),
(417,459,o),
(408,457,o),
(401,455,c),
(398,466,o),
(393,475,o),
(388,482,cs),
(386,486,o),
(384,489,o),
(381,492,c),
(393,503,o),
(418,523,o),
(451,524,c),
(467,502,o),
(478,476,o),
(484,449,c)
);
},
{
closed = 1;
nodes = (
(400,540,o),
(375,520,o),
(363,508,c),
(353,515,o),
(342,521,o),
(330,524,c),
(329,524,l),
(335,554,o),
(344,576,o),
(374,590,c),
(396,579,o),
(416,564,o),
(433,546,c)
);
},
{
closed = 1;
nodes = (
(298,612,o),
(314,610,o),
(331,606,c),
(336,604,o),
(341,603,o),
(346,601,c),
(331,590,o),
(319,573,o),
(312,553,c),
(308,544,o),
(306,534,o),
(305,527,c),
(290,528,o),
(276,527,o),
(263,523,c),
(255,537,o),
(244,569,o),
(263,611,c),
(269,611,o),
(275,612,o),
(282,612,cs)
);
},
{
closed = 1;
nodes = (
(144,520,o),
(164,492,o),
(194,470,c),
(191,466,o),
(180,445,o),
(178,439,c),
(142,439,o),
(104,454,o),
(94,492,c),
(106,518,o),
(123,540,o),
(143,559,c)
);
},
{
closed = 1;
nodes = (
(245,208,o),
(256,217,o),
(264,231,c),
(275,227,o),
(292,223,o),
(303,223,c),
(297,209,o),
(290,201,o),
(287,197,c),
(270,197,o),
(252,198,o),
(236,202,c)
);
},
{
closed = 1;
nodes = (
(322,206,o),
(325,213,o),
(328,222,c),
(354,223,o),
(380,228,o),
(405,238,c),
(400,234,o),
(395,231,o),
(389,227,cs),
(367,214,o),
(343,205,o),
(318,200,c)
);
}
);
width = 587;
}
);
unicode = 77;
},
{
glyphname = p;
layers = (
{
background = {
shapes = (
{
closed = 0;
nodes = (
(361,482,l),
(359,481,o),
(355,476,o),
(351,473,cs),
(347,470,o),
(344,466,o),
(340,462,c),
(340,462,o),
(340,462,o),
(339,462,c),
(338,462,o),
(337,462,o),
(335,461,c),
(334,461,l),
(331,461,o),
(329,461,o),
(327,460,c),
(321,460,o),
(316,459,o),
(311,458,c),
(309,457,l),
(309,457,o),
(309,457,o),
(309,457,c),
(308,457,o),
(307,457,o),
(307,457,c),
(304,456,o),
(302,456,o),
(300,455,c),
(300,455,o),
(300,455,o),
(300,455,c),
(297,455,o),
(294,454,o),
(291,453,cs),
(289,452,o),
(286,451,o),
(283,450,c),
(283,450,o),
(283,450,o),
(283,450,c),
(282,450,l),
(280,449,o),
(277,448,o),
(274,447,cs),
(268,445,o),
(263,442,o),
(258,440,cs),
(256,439,o),
(255,438,o),
(254,437,c),
(253,437,l),
(252,436,o),
(251,436,o),
(250,435,c),
(246,433,l),
(245,432,o),
(244,431,o),
(243,430,c),
(242,430,l),
(239,428,o),
(237,426,o),
(234,424,cs),
(232,422,o),
(229,420,o),
(226,417,cs),
(223,414,o),
(222,409,o),
(224,404,cs),
(226,400,o),
(230,397,o),
(235,397,cs),
(243,397,l),
(243,397,o),
(243,397,o),
(243,397,c),
(252,396,l),
(254,396,o),
(255,396,o),
(256,396,c),
(260,396,l),
(261,396,o),
(263,396,o),
(264,396,c),
(265,396,o),
(267,396,o),
(268,396,c),
(268,396,o),
(268,396,o),
(268,396,c),
(271,396,o),
(274,396,o),
(276,396,c),
(279,396,o),
(281,396,o),
(284,396,c),
(284,396,o),
(284,396,o),
(284,396,c),
(286,396,o),
(289,396,o),
(291,396,c),
(292,396,l),
(293,396,o),
(295,395,o),
(296,395,c),
(297,395,o),
(299,395,o),
(300,395,c),
(303,395,l),
(301,388,o),
(300,381,o),
(299,374,c),
(299,373,o),
(299,373,o),
(299,373,c),
(299,369,o),
(298,364,o),
(298,359,c),
(298,357,o),
(298,354,o),
(298,352,c),
(298,352,o),
(298,352,o),
(298,352,c),
(298,349,o),
(298,347,o),
(299,344,c),
(299,344,o),
(299,344,o),
(299,344,c),
(300,333,o),
(302,323,o),
(306,314,cs),
(307,311,o),
(311,308,o),
(315,307,c),
(315,307,o),
(316,307,o),
(317,307,c),
(320,307,o),
(324,309,o),
(326,311,cs),
(329,315,o),
(332,319,o),
(334,322,c),
(335,323,l),
(336,326,o),
(338,328,o),
(340,331,c),
(340,332,o),
(341,333,o),
(342,334,c),
(342,334,o),
(342,334,o),
(342,334,c),
(343,336,o),
(344,338,o),
(345,340,c),
(346,341,l),
(347,342,o),
(348,344,o),
(348,345,c),
(349,347,o),
(350,348,o),
(351,349,c),
(352,351,o),
(353,354,o),
(354,356,cs),
(357,361,o),
(360,366,o),
(363,370,cs),
(364,372,o),
(365,374,o),
(366,376,c),
(366,376,o),
(366,376,o),
(366,376,c),
(375,395,l),
(376,394,l),
(376,394,o),
(377,394,o),
(377,394,c),
(377,395,o),
(378,395,o),
(379,394,c),
(381,395,o),
(383,394,o),
(384,395,c),
(385,395,o),
(386,394,o),
(388,394,c),
(389,394,o),
(390,394,o),
(392,394,c),
(397,394,o),
(402,394,o),
(407,394,cs),
(412,394,o),
(418,394,o),
(423,394,c),
(425,394,o),
(427,394,o),
(429,394,c),
(431,394,l),
(431,394,o),
(431,394,o),
(431,394,c),
(432,394,o),
(434,394,o),
(435,394,c),
(436,394,o),
(437,394,o),
(439,394,c),
(445,394,o),
(450,394,o),
(455,395,c),
(457,395,o),
(460,395,o),
(462,395,c),
(471,395,o),
(480,395,o),
(490,397,cs),
(495,398,o),
(499,401,o),
(500,406,cs),
(501,410,o),
(500,415,o),
(496,418,cs),
(492,422,o),
(487,425,o),
(481,429,cs),
(479,430,o),
(477,432,o),
(475,433,c),
(475,433,o),
(474,433,o),
(473,434,c),
(472,434,o),
(471,435,o),
(470,436,c),
(470,436,o),
(470,436,o),
(469,436,c),
(469,436,o),
(469,436,o),
(469,436,c),
(465,438,l),
(465,438,o),
(465,438,o),
(465,438,c),
(460,441,o),
(455,443,o),
(449,446,c),
(449,446,o),
(449,446,o),
(449,446,c),
(448,446,o),
(448,446,o),
(447,446,c),
(445,447,o),
(443,448,o),
(440,449,c),
(440,449,o),
(440,449,o),
(440,449,c),
(438,450,l),
(436,450,o),
(434,451,o),
(432,452,cs),
(426,454,o),
(420,455,o),
(415,456,c),
(415,457,o),
(415,457,o),
(414,457,c),
(412,457,o),
(409,458,o),
(407,458,c),
(407,459,o),
(407,459,o),
(407,460,c),
(409,464,o),
(411,468,o),
(413,472,c),
(413,473,o),
(415,475,o),
(413,476,c)
);
},
{
closed = 1;
nodes = (
(328,417,o),
(324,419,o),
(320,419,cs),
(300,419,l),
(299,419,o),
(298,419,o),
(296,419,c),
(295,419,o),
(294,420,o),
(292,420,c),
(291,420,l),
(289,420,o),
(287,420,o),
(285,420,c),
(282,420,o),
(279,420,o),
(277,420,c),
(275,420,o),
(274,420,o),
(272,420,c),
(276,422,o),
(279,423,o),
(283,425,c),
(283,425,o),
(283,425,o),
(283,425,c),
(286,426,o),
(288,427,o),
(291,428,c),
(291,428,l),
(293,428,o),
(296,429,o),
(298,430,cs),
(301,431,o),
(303,431,o),
(306,432,cs),
(308,433,o),
(310,433,o),
(312,433,c),
(312,434,o),
(313,434,o),
(314,434,c),
(316,434,l),
(321,435,o),
(325,436,o),
(329,437,c),
(329,437,o),
(329,437,o),
(330,437,c),
(332,437,o),
(334,437,o),
(336,437,c),
(338,438,l),
(339,438,o),
(340,438,o),
(342,438,c),
(342,438,o),
(342,438,o),
(342,438,c),
(343,438,o),
(344,438,o),
(345,438,c),
(346,438,l),
(350,438,o),
(353,440,o),
(355,443,cs),
(359,447,o),
(363,451,o),
(367,455,cs),
(373,460,o),
(379,464,o),
(385,468,c),
(383,463,o),
(381,459,o),
(378,454,cs),
(377,451,o),
(377,446,o),
(379,443,cs),
(380,440,o),
(384,437,o),
(388,437,c),
(389,437,o),
(391,436,o),
(393,436,c),
(398,435,o),
(404,434,o),
(409,433,cs),
(414,432,o),
(419,430,o),
(425,429,cs),
(427,428,o),
(429,428,o),
(431,427,cs),
(433,426,l),
(434,426,o),
(436,425,o),
(438,424,c),
(438,424,o),
(439,424,o),
(440,424,c),
(444,422,o),
(447,420,o),
(451,418,c),
(447,418,o),
(443,418,o),
(439,418,c),
(439,418,o),
(438,418,o),
(438,418,c),
(437,418,o),
(436,418,o),
(435,418,c),
(434,418,o),
(432,418,o),
(430,418,c),
(429,418,l),
(427,418,o),
(425,418,o),
(423,418,c),
(418,418,o),
(413,418,o),
(408,418,c),
(407,418,o),
(407,418,o),
(407,418,c),
(402,418,o),
(397,418,o),
(392,418,c),
(392,418,o),
(392,418,o),
(392,418,c),
(391,418,o),
(390,418,o),
(389,418,c),
(387,418,o),
(386,419,o),
(384,419,c),
(384,419,o),
(384,419,o),
(384,419,c),
(382,418,o),
(381,418,o),
(379,418,c),
(378,419,o),
(377,419,o),
(377,418,c),
(369,419,l),
(369,419,l),
(364,419,o),
(360,416,o),
(358,412,c),
(355,408,l),
(345,388,ls),
(344,386,o),
(343,384,o),
(342,382,cs),
(339,377,o),
(336,372,o),
(334,368,c),
(334,368,o),
(334,367,o),
(333,367,c),
(332,365,o),
(331,364,o),
(330,361,c),
(329,360,o),
(328,359,o),
(328,357,c),
(327,356,o),
(326,355,o),
(325,354,c),
(325,352,l),
(325,352,o),
(325,352,o),
(325,352,c),
(324,351,o),
(323,350,o),
(322,349,c),
(322,350,o),
(322,351,o),
(322,353,c),
(322,355,o),
(322,357,o),
(322,359,c),
(322,359,o),
(322,359,o),
(322,359,c),
(322,363,o),
(323,367,o),
(323,371,c),
(324,379,o),
(326,387,o),
(328,394,c),
(328,394,o),
(328,394,o),
(328,394,c),
(329,397,o),
(330,400,o),
(331,403,cs),
(333,406,o),
(332,411,o),
(330,414,cs)
);
},
{
closed = 0;
nodes = (
(388,489,l),
(374,478,o),
(348,458,o),
(345,452,cs),
(342,446,o),
(275,444,o),
(250,416,cs),
(276,413,o),
(310,412,o),
(316,409,cs),
(322,406,o),
(304,341,o),
(317,322,c),
(330,323,o),
(370,406,o),
(370,406,c),
(482,407,l),
(462,427,o),
(429,444,o),
(397,452,c),
(394,465,o),
(400,487,o),
(400,487,c)
);
}
);
};
layerId = "2337EC1E-F8DF-4C20-93B2-D6C634D9C8F1";
shapes = (
{
closed = 1;
nodes = (
(50,174,o),
(164,173,o),
(246,173,cs),
(297,173,l),
(316,174,o),
(335,174,o),
(354,174,cs),
(374,174,o),
(393,174,o),
(411,173,c),
(512,172,o),
(592,171,o),
(632,211,cs),
(650,229,o),
(659,252,o),
(659,283,cs),
(659,428,o),
(489,504,o),
(354,504,cs),
(228,504,o),
(50,432,o),
(50,283,cs)
);
},
{
closed = 1;
nodes = (
(374,389,o),
(384,394,o),
(393,394,cs),
(476,395,ls),
(497,395,o),
(501,405,o),
(486,419,cs),
(464,439,o),
(445,451,o),
(408,461,c),
(408,466,o),
(409,470,o),
(409,475,c),
(538,457,o),
(635,378,o),
(635,283,cs),
(635,259,o),
(628,241,o),
(615,228,cs),
(582,195,o),
(503,196,o),
(412,197,c),
(393,198,o),
(374,198,o),
(354,198,cs),
(335,198,o),
(316,198,o),
(297,197,c),
(206,196,o),
(127,195,o),
(93,228,cs),
(80,241,o),
(74,259,o),
(74,283,cs),
(74,392,o),
(203,480,o),
(357,480,c),
(354,478,o),
(337,464,o),
(337,461,c),
(308,457,o),
(266,445,o),
(250,432,cs),
(234,419,o),
(239,405,o),
(260,403,c),
(275,402,o),
(291,403,o),
(305,399,c),
(302,380,o),
(300,361,o),
(300,343,c),
(300,329,o),
(302,310,o),
(321,310,cs),
(342,310,o),
(359,365,o),
(370,382,cs)
);
},
{
closed = 1;
nodes = (
(352,440,o),
(369,455,o),
(385,471,c),
(384,465,o),
(384,460,o),
(384,456,cs),
(385,448,o),
(392,441,o),
(401,438,cs),
(417,433,o),
(432,428,o),
(447,419,c),
(377,418,ls),
(368,418,o),
(358,413,o),
(354,406,cs),
(343,386,o),
(335,364,o),
(324,346,c),
(324,353,o),
(325,362,o),
(326,370,c),
(327,382,o),
(329,394,o),
(329,406,cs),
(329,414,o),
(324,419,o),
(321,420,cs),
(311,424,o),
(298,425,o),
(288,425,c),
(296,428,o),
(315,433,o),
(330,436,cs)
);
}
);
width = 709;
}
);
unicode = 112;
},
{
glyphname = u;
layers = (
{
layerId = "276078B1-9544-40AF-AB64-08B62BEE7F53";
associatedMasterId = "2337EC1E-F8DF-4C20-93B2-D6C634D9C8F1";
name = 1;
shapes = (
{
closed = 1;
nodes = (
(400,407,o),
(345,351,o),
(345,283,cs),
(345,215,o),
(400,160,o),
(468,160,cs),
(536,160,o),
(591,215,o),
(591,283,cs),
(591,351,o),
(536,407,o),
(468,407,cs)
);
},
{
closed = 1;
nodes = (
(413,184,o),
(369,229,o),
(369,283,cs),
(369,338,o),
(413,383,o),
(468,383,cs),
(523,383,o),
(567,338,o),
(567,283,cs),
(567,229,o),
(523,184,o),
(468,184,cs)
);
},
{
closed = 1;
nodes = (
(429,354,o),
(397,322,o),
(397,283,cs),
(397,277,o),
(402,271,o),
(409,271,cs),
(416,271,o),
(421,277,o),
(421,283,cs),
(421,309,o),
(442,330,o),
(468,330,cs),
(475,330,o),
(480,336,o),
(480,342,cs),
(480,349,o),
(475,354,o),
(468,354,cs)
);
},
{
closed = 1;
nodes = (
(596,454,o),
(577,485,o),
(559,516,cs),
(545,540,o),
(530,564,o),
(503,568,c),
(503,576,o),
(502,584,o),
(500,592,cs),
(499,595,o),
(497,597,o),
(495,599,cs),
(359,686,ls),
(355,689,o),
(350,689,o),
(346,686,cs),
(342,683,o),
(340,678,o),
(341,673,cs),
(347,653,o),
(342,635,o),
(327,620,cs),
(305,597,o),
(293,589,o),
(276,579,cs),
(262,571,o),
(245,561,o),
(217,538,cs),
(182,509,o),
(174,469,o),
(167,434,c),
(160,404,o),
(155,379,o),
(136,363,cs),
(112,343,o),
(82,336,o),
(62,334,c),
(57,334,o),
(52,330,o),
(51,325,cs),
(50,320,o),
(52,315,o),
(56,312,cs),
(192,224,ls),
(194,223,o),
(196,222,o),
(198,222,c),
(199,222,o),
(199,222,o),
(200,222,c),
(207,223,o),
(215,224,o),
(224,227,c),
(219,203,o),
(216,180,o),
(216,156,cs),
(216,70,o),
(286,0,o),
(373,0,cs),
(434,0,o),
(470,41,o),
(504,80,cs),
(522,101,o),
(541,123,o),
(563,139,cs),
(588,156,o),
(615,164,o),
(646,164,cs),
(726,164,o),
(791,229,o),
(791,309,cs),
(791,389,o),
(726,454,o),
(646,454,cs)
);
},
{
closed = 1;
nodes = (
(95,316,l),
(113,321,o),
(134,330,o),
(152,345,cs),
(177,365,o),
(184,398,o),
(190,429,cs),
(197,462,o),
(204,496,o),
(232,519,cs),
(259,541,o),
(275,551,o),
(289,559,cs),
(305,569,o),
(320,578,o),
(345,603,cs),
(359,618,o),
(366,634,o),
(367,653,c),
(478,581,l),
(481,563,o),
(477,546,o),
(463,532,cs),
(440,509,o),
(428,502,o),
(412,492,cs),
(398,483,o),
(381,473,o),
(353,450,cs),
(318,421,o),
(310,381,o),
(302,346,cs),
(296,316,o),
(291,291,o),
(272,275,cs),
(250,257,o),
(222,249,o),
(201,247,c)
);
},
{
closed = 1;
nodes = (
(566,188,o),
(523,139,o),
(486,96,cs),
(452,57,o),
(423,24,o),
(373,24,cs),
(300,24,o),
(240,83,o),
(240,156,cs),
(240,183,o),
(244,209,o),
(251,235,c),
(263,240,o),
(276,247,o),
(287,257,cs),
(312,278,o),
(319,310,o),
(326,341,cs),
(333,374,o),
(340,408,o),
(368,431,cs),
(394,453,o),
(410,463,o),
(424,471,cs),
(441,481,o),
(456,490,o),
(480,515,cs),
(489,524,o),
(495,534,o),
(499,545,c),
(506,544,o),
(511,540,o),
(517,534,cs),
(525,527,o),
(531,516,o),
(538,504,cs),
(558,471,o),
(583,430,o),
(646,430,cs),
(713,430,o),
(767,376,o),
(767,309,cs),
(767,243,o),
(713,188,o),
(646,188,cs)
);
},
{
closed = 1;
nodes = (
(142,268,l),
(187,276,o),
(230,297,o),
(244,343,c),
(250,358,o),
(253,374,o),
(257,391,cs),
(269,447,o),
(284,473,o),
(333,502,c),
(342,509,o),
(350,513,o),
(358,518,cs),
(374,527,o),
(388,536,o),
(411,560,cs),
(435,586,o),
(435,614,o),
(430,636,c),
(406,630,l),
(411,614,o),
(411,594,o),
(393,576,cs),
(372,555,o),
(360,547,o),
(345,538,cs),
(338,534,o),
(330,529,o),
(320,522,c),
(266,493,o),
(246,455,o),
(233,396,c),
(221,333,o),
(198,304,o),
(128,290,c)
);
}
);
width = 841;
},
{
layerId = "2337EC1E-F8DF-4C20-93B2-D6C634D9C8F1";
shapes = (
{
closed = 1;
nodes = (
(596,454,o),
(577,485,o),
(559,516,cs),
(545,540,o),
(530,564,o),
(503,568,c),
(503,576,o),
(502,584,o),
(500,592,cs),
(499,595,o),
(497,597,o),
(495,599,cs),
(359,686,ls),
(355,689,o),
(350,689,o),
(346,686,cs),
(342,683,o),
(340,678,o),
(341,673,cs),
(347,653,o),
(342,635,o),
(327,620,cs),
(305,597,o),
(293,589,o),
(276,579,cs),
(207,539,o),
(183,515,o),
(167,434,c),
(152,370,o),
(133,341,o),
(62,334,c),
(57,334,o),
(52,330,o),
(51,325,cs),
(50,320,o),
(52,315,o),
(56,312,cs),
(192,224,ls),
(201,220,o),
(216,223,o),
(224,227,c),
(219,203,o),
(216,180,o),
(216,156,cs),
(216,70,o),
(286,0,o),
(373,0,cs),
(434,0,o),
(470,41,o),
(504,80,cs),
(545,128,o),
(578,164,o),
(646,164,cs),
(726,164,o),
(791,229,o),
(791,309,cs),
(791,389,o),
(726,454,o),
(646,454,cs)
);
},
{
closed = 1;
nodes = (
(95,316,l),
(159,334,o),
(178,366,o),
(190,429,cs),
(206,502,o),
(225,523,o),
(289,559,cs),
(323,580,o),
(365,609,o),
(367,653,c),
(407,627,l),
(411,612,o),
(410,593,o),
(393,576,cs),
(372,555,o),
(360,547,o),
(345,538,cs),
(338,534,o),
(330,529,o),
(320,522,c),
(266,493,o),
(246,455,o),
(233,396,c),
(221,335,o),
(199,305,o),
(133,291,c)
);
},
{
closed = 1;
nodes = (
(162,272,l),
(199,282,o),
(232,304,o),
(244,343,c),
(250,358,o),
(253,374,o),
(257,391,cs),
(269,447,o),
(284,473,o),
(333,502,c),
(342,509,o),
(350,513,o),
(358,518,cs),
(392,537,o),
(430,569,o),
(433,610,c),
(478,581,l),
(481,563,o),
(477,546,o),
(463,532,cs),
(446,515,o),
(432,504,o),
(412,492,cs),
(341,446,o),
(322,433,o),
(302,346,cs),
(290,284,o),
(269,253,o),
(201,247,c)
);
},
{
closed = 1;
nodes = (
(566,188,o),
(523,139,o),
(486,96,cs),
(452,57,o),
(423,24,o),
(373,24,cs),
(300,24,o),
(240,83,o),
(240,156,cs),
(240,183,o),
(244,209,o),
(251,235,c),
(303,257,o),
(314,288,o),
(326,341,cs),
(341,413,o),
(361,435,o),
(424,471,cs),
(452,487,o),
(487,513,o),
(499,545,c),
(506,544,o),
(511,540,o),
(517,534,cs),
(526,526,o),
(532,514,o),
(538,504,cs),
(558,471,o),
(583,430,o),
(646,430,cs),
(713,430,o),
(767,376,o),
(767,309,cs),
(767,243,o),
(713,188,o),
(646,188,cs)
);
},
{
closed = 1;
nodes = (
(400,407,o),
(345,351,o),
(345,283,cs),
(345,215,o),
(400,160,o),
(468,160,cs),
(536,160,o),
(591,215,o),
(591,283,cs),
(591,351,o),
(536,407,o),
(468,407,cs)
);
},
{
closed = 1;
nodes = (
(413,184,o),
(369,229,o),
(369,283,cs),
(369,338,o),
(413,383,o),
(468,383,cs),
(523,383,o),
(567,338,o),
(567,283,cs),
(567,229,o),
(523,184,o),
(468,184,cs)
);
},
{
closed = 1;
nodes = (
(429,354,o),
(397,322,o),
(397,283,cs),
(397,277,o),
(402,271,o),
(409,271,cs),
(416,271,o),
(421,277,o),
(421,283,cs),
(421,309,o),
(442,330,o),
(468,330,cs),
(475,330,o),
(480,336,o),
(480,342,cs),
(480,349,o),
(475,354,o),
(468,354,cs)
);
}
);
width = 841;
}
);
unicode = 117;
},
{
glyphname = v;
layers = (
{
layerId = "276078B1-9544-40AF-AB64-08B62BEE7F53";
associatedMasterId = "2337EC1E-F8DF-4C20-93B2-D6C634D9C8F1";
name = 1;
shapes = (
{
closed = 1;
nodes = (
(325,121,o),
(313,140,o),
(313,166,c),
(312,204,o),
(316,221,o),
(322,242,c),
(326,260,o),
(332,283,o),
(336,325,cs),
(341,376,o),
(315,416,o),
(292,451,cs),
(273,481,o),
(256,506,o),
(259,535,cs),
(262,572,o),
(281,603,o),
(297,622,cs),
(300,626,o),
(300,631,o),
(298,636,c),
(295,640,o),
(290,642,o),
(285,641,cs),
(101,602,ls),
(98,601,o),
(96,600,o),
(94,598,cs),
(76,576,o),
(55,541,o),
(51,498,cs),
(47,461,o),
(68,429,o),
(88,398,cs),
(110,365,o),
(132,331,o),
(128,288,cs),
(124,248,o),
(119,227,o),
(114,208,cs),
(109,186,o),
(104,167,o),
(105,126,cs),
(105,92,o),
(121,65,o),
(151,49,c),
(152,48,o),
(154,47,o),
(156,47,c),
(157,47,o),
(158,47,o),
(159,47,c),
(343,87,ls),
(348,88,o),
(352,92,o),
(353,97,c),
(353,101,o),
(351,106,o),
(347,109,c)
);
},
{
closed = 1;
nodes = (
(159,72,l),
(139,84,o),
(129,103,o),
(129,126,cs),
(128,165,o),
(132,181,o),
(138,202,c),
(142,221,o),
(148,244,o),
(152,285,cs),
(157,337,o),
(131,376,o),
(108,411,cs),
(89,441,o),
(72,467,o),
(74,496,c),
(78,531,o),
(95,560,o),
(110,579,c),
(260,611,l),
(248,591,o),
(237,566,o),
(235,537,c),
(231,500,o),
(252,468,o),
(272,438,cs),
(294,404,o),
(316,370,o),
(312,327,cs),
(308,287,o),
(303,266,o),
(299,248,cs),
(293,226,o),
(288,207,o),
(289,165,cs),
(289,141,o),
(298,121,o),
(313,105,c)
);
},
{
closed = 1;
nodes = (
(177,611,l),
(158,586,o),
(143,548,o),
(143,514,cs),
(143,496,o),
(149,479,o),
(156,463,c),
(164,448,o),
(174,433,o),
(183,418,cs),
(203,388,o),
(220,359,o),
(220,323,cs),
(220,309,o),
(219,295,o),
(217,281,c),
(211,253,o),
(205,225,o),
(201,197,c),
(198,182,o),
(197,167,o),
(197,151,cs),
(197,110,o),
(221,87,o),
(243,74,c),
(255,94,l),
(237,105,o),
(221,122,o),
(221,151,cs),
(221,180,o),
(226,207,o),
(232,235,cs),
(235,249,o),
(238,263,o),
(240,278,cs),
(243,293,o),
(244,308,o),
(244,323,cs),
(244,366,o),
(223,401,o),
(204,431,cs),
(194,446,o),
(185,460,o),
(178,474,cs),
(171,488,o),
(167,501,o),
(167,514,cs),
(167,542,o),
(180,574,o),
(197,597,c)
);
}
);
width = 403;
},
{
layerId = "2337EC1E-F8DF-4C20-93B2-D6C634D9C8F1";
shapes = (
{
closed = 1;
nodes = (
(325,121,o),
(313,140,o),
(313,166,cs),
(313,220,o),
(331,271,o),
(336,325,cs),
(341,376,o),
(315,416,o),
(292,451,cs),
(264,496,o),
(257,513,o),
(259,535,cs),
(262,572,o),
(281,603,o),
(297,622,cs),
(300,626,o),
(300,631,o),
(298,636,c),
(295,640,o),
(290,642,o),
(285,641,cs),
(101,602,ls),
(98,601,o),
(96,600,o),
(94,598,cs),
(76,576,o),
(55,541,o),
(51,498,cs),
(48,471,o),
(57,446,o),
(88,398,cs),
(110,365,o),
(132,331,o),
(128,288,cs),
(122,233,o),
(105,182,o),
(105,126,cs),
(105,92,o),
(121,66,o),
(151,49,cs),
(153,48,o),
(156,46,o),
(159,47,cs),
(343,87,ls),
(348,88,o),
(352,92,o),
(353,97,c),
(353,101,o),
(351,106,o),
(347,109,c)
);
},
{
closed = 1;
nodes = (
(260,611,l),
(248,591,o),
(238,566,o),
(235,537,cs),
(232,500,o),
(252,468,o),
(272,438,cs),
(294,404,o),
(316,370,o),
(312,327,cs),
(306,272,o),
(289,221,o),
(289,165,cs),
(289,141,o),
(298,121,o),
(313,105,c),
(254,92,l),
(236,103,o),
(221,122,o),
(221,151,cs),
(221,209,o),
(244,265,o),
(244,323,cs),
(244,404,o),
(167,456,o),
(167,514,cs),
(167,542,o),
(180,574,o),
(197,597,c)
);
},
{
closed = 1;
nodes = (
(159,72,l),
(139,84,o),
(129,103,o),
(129,126,cs),
(129,180,o),
(147,231,o),
(152,285,cs),
(157,337,o),
(131,376,o),
(108,411,cs),
(79,457,o),
(72,475,o),
(74,496,cs),
(77,531,o),
(95,560,o),
(110,579,c),
(164,591,l),
(152,568,o),
(143,540,o),
(143,514,cs),
(143,445,o),
(220,398,o),
(220,323,cs),
(220,265,o),
(197,210,o),
(197,151,cs),
(197,121,o),
(210,100,o),
(226,86,c)
);
}
);
width = 403;
}
);
unicode = 118;
},
{
glyphname = w;
layers = (
{
layerId = "2337EC1E-F8DF-4C20-93B2-D6C634D9C8F1";
shapes = (
{
closed = 1;
nodes = (
(446,404,o),
(441,404,o),
(436,403,c),
(431,411,o),
(425,417,o),
(417,422,c),
(425,428,o),
(432,437,o),
(435,447,cs),
(438,460,o),
(437,474,o),
(431,486,c),
(428,490,o),
(425,494,o),
(421,497,c),
(426,511,o),
(426,526,o),
(419,538,cs),
(405,563,o),
(375,572,o),
(350,558,c),
(349,558,l),
(352,578,o),
(343,599,o),
(324,609,c),
(324,610,o),
(325,611,o),
(325,612,c),
(331,624,o),
(331,638,o),
(327,650,cs),
(322,663,o),
(312,673,o),
(300,679,cs),
(275,690,o),
(245,679,o),
(233,654,cs),
(231,649,o),
(230,645,o),
(230,639,c),
(216,635,o),
(205,626,o),
(199,613,cs),
(193,600,o),
(192,587,o),
(197,574,cs),
(198,570,o),
(200,567,o),
(202,564,c),
(180,568,o),
(157,557,o),
(147,535,cs),
(142,525,o),
(141,514,o),
(144,504,c),
(133,499,o),
(125,491,o),
(120,480,cs),
(109,456,o),
(119,428,o),
(142,415,c),
(136,412,o),
(131,409,o),
(126,404,c),
(116,410,o),
(105,412,o),
(94,410,cs),
(66,406,o),
(47,381,o),
(51,353,cs),
(54,331,o),
(72,314,o),
(93,311,c),
(127,16,ls),
(128,10,o),
(133,5,o),
(139,5,cs),
(418,5,ls),
(425,5,o),
(430,10,o),
(430,16,c),
(453,304,l),
(473,311,o),
(486,323,o),
(491,344,cs),
(496,371,o),
(478,398,o),
(451,403,cs)
);
},
{
closed = 1;
nodes = (
(390,29,l),
(357,29,l),
(357,273,l),
(365,269,o),
(373,267,o),
(381,267,cs),
(384,267,o),
(387,267,o),
(390,268,c)
);
},
{
closed = 1;
nodes = (
(174,268,l),
(182,272,o),
(190,278,o),
(195,285,cs),
(198,288,o),
(200,292,o),
(201,296,c),
(201,29,l),
(174,29,l)
);
},
{
closed = 1;
nodes = (
(270,515,o),
(263,521,o),
(255,525,cs),
(250,527,o),
(245,528,o),
(240,529,c),
(239,534,o),
(237,538,o),
(234,542,c),
(241,541,o),
(248,541,o),
(255,543,c),
(260,533,o),
(268,524,o),
(278,520,c),
(279,519,o),
(281,519,o),
(282,518,c),
(279,515,o),
(277,512,o),
(275,508,c)
);
},
{
closed = 1;
nodes = (
(288,363,o),
(293,361,o),
(298,363,cs),
(301,364,o),
(304,364,o),
(306,364,c),
(321,363,o),
(332,350,o),
(331,336,cs),
(329,321,o),
(317,310,o),
(302,311,cs),
(294,312,o),
(287,317,o),
(282,324,cs),
(280,327,o),
(277,330,o),
(273,330,c),
(272,330,l),
(268,330,o),
(265,329,o),
(263,326,cs),
(259,322,o),
(252,316,o),
(242,317,cs),
(227,318,o),
(216,330,o),
(217,345,cs),
(218,354,o),
(224,362,o),
(233,366,cs),
(236,368,o),
(238,370,o),
(239,373,cs),
(240,376,o),
(240,380,o),
(238,382,c),
(236,387,o),
(235,392,o),
(235,395,c),
(236,403,o),
(239,409,o),
(244,414,c),
(250,418,o),
(257,420,o),
(264,420,c),
(271,419,o),
(277,416,o),
(282,411,c),
(286,405,o),
(289,399,o),
(288,392,c),
(288,388,o),
(287,384,o),
(284,380,cs),
(282,376,o),
(282,371,o),
(285,367,cs)
);
},
{
closed = 1;
nodes = (
(211,392,o),
(212,387,o),
(213,382,c),
(212,382,o),
(211,381,o),
(210,380,c),
(207,395,o),
(198,406,o),
(186,413,c),
(221,427,o),
(191,441,o),
(226,429,c),
(218,421,o),
(212,409,o),
(211,397,c)
);
},
{
closed = 1;
nodes = (
(225,296,l),
(230,294,o),
(235,293,o),
(240,293,c),
(249,292,o),
(258,294,o),
(267,299,c),
(267,29,l),
(225,29,l)
);
},
{
closed = 1;
nodes = (
(291,289,l),
(294,288,o),
(297,287,o),
(301,287,c),
(304,287,l),
(315,287,o),
(325,290,o),
(333,296,c),
(333,29,l),
(291,29,l)
);
},
{
closed = 1;
nodes = (
(342,381,o),
(342,375,o),
(343,369,c),
(336,379,o),
(325,385,o),
(312,387,c),
(312,390,l),
(313,403,o),
(309,416,o),
(300,427,cs),
(292,436,o),
(281,442,o),
(269,443,c),
(273,447,o),
(276,452,o),
(279,457,c),
(293,437,o),
(319,430,o),
(341,440,c),
(341,434,o),
(357,420,o),
(362,417,c),
(353,410,o),
(346,399,o),
(343,386,cs)
);
},
{
closed = 1;
nodes = (
(374,544,o),
(391,540,o),
(398,527,cs),
(402,519,o),
(401,509,o),
(396,500,c),
(394,498,o),
(394,494,o),
(395,491,c),
(395,488,o),
(397,485,o),
(400,484,cs),
(405,481,o),
(408,478,o),
(410,474,cs),
(413,468,o),
(414,461,o),
(412,454,cs),
(410,447,o),
(405,442,o),
(399,438,cs),
(393,435,o),
(386,434,o),
(379,436,cs),
(372,438,o),
(366,443,o),
(363,449,cs),
(361,452,o),
(360,456,o),
(360,461,cs),
(360,465,o),
(357,470,o),
(352,471,c),
(351,472,o),
(350,472,o),
(348,472,c),
(345,472,o),
(342,471,o),
(339,468,cs),
(337,466,o),
(335,464,o),
(333,463,cs),
(320,456,o),
(304,460,o),
(297,473,cs),
(290,486,o),
(295,502,o),
(308,509,cs),
(315,513,o),
(324,513,o),
(332,509,cs),
(335,507,o),
(339,507,o),
(343,509,cs),
(346,511,o),
(348,514,o),
(349,518,cs),
(350,523,o),
(352,532,o),
(362,537,cs)
);
},
{
closed = 1;
nodes = (
(224,611,o),
(233,617,o),
(242,617,c),
(246,618,o),
(249,619,o),
(251,622,cs),
(253,624,o),
(254,627,o),
(254,631,c),
(253,636,o),
(254,640,o),
(255,644,c),
(261,657,o),
(277,663,o),
(290,657,cs),
(297,654,o),
(302,649,o),
(304,642,cs),
(306,635,o),
(306,628,o),
(303,622,c),
(302,618,o),
(299,615,o),
(296,613,cs),
(292,609,o),
(290,604,o),
(292,600,c),
(293,595,o),
(297,592,o),
(302,591,c),
(305,591,o),
(308,590,o),
(310,589,c),
(324,583,o),
(330,568,o),
(323,554,c),
(321,548,o),
(315,543,o),
(309,541,cs),
(302,538,o),
(295,538,o),
(288,541,cs),
(281,545,o),
(276,552,o),
(274,561,cs),
(272,567,o),
(265,573,o),
(257,569,cs),
(252,566,o),
(243,563,o),
(233,568,cs),
(227,571,o),
(222,576,o),
(220,582,cs),
(217,589,o),
(217,596,o),
(220,603,cs)
);
},
{
closed = 1;
nodes = (
(145,478,o),
(153,483,o),
(161,485,c),
(165,485,o),
(168,488,o),
(170,491,cs),
(172,495,o),
(172,499,o),
(170,502,cs),
(167,506,o),
(164,516,o),
(169,525,c),
(173,535,o),
(183,541,o),
(193,541,cs),
(206,541,o),
(218,529,o),
(218,516,c),
(219,513,o),
(220,510,o),
(222,508,cs),
(225,506,o),
(228,505,o),
(231,505,cs),
(243,505,o),
(254,502,o),
(258,488,c),
(261,482,o),
(260,474,o),
(257,468,cs),
(254,462,o),
(249,457,o),
(243,454,c),
(236,452,o),
(229,452,o),
(222,455,cs),
(219,457,o),
(216,459,o),
(213,463,cs),
(210,467,o),
(205,468,o),
(200,467,c),
(196,465,o),
(192,461,o),
(192,456,cs),
(192,453,o),
(191,450,o),
(190,448,cs),
(184,435,o),
(168,429,o),
(155,435,cs),
(142,441,o),
(136,457,o),
(142,470,cs)
);
},
{
closed = 1;
nodes = (
(73,371,o),
(83,385,o),
(97,387,cs),
(105,388,o),
(113,385,o),
(120,378,cs),
(122,376,o),
(126,374,o),
(130,375,c),
(134,375,o),
(137,378,o),
(139,381,cs),
(141,385,o),
(147,393,o),
(158,395,cs),
(172,397,o),
(185,387,o),
(188,372,cs),
(189,363,o),
(185,354,o),
(177,348,cs),
(175,346,o),
(173,343,o),
(173,340,c),
(172,337,o),
(173,334,o),
(175,331,cs),
(178,327,o),
(180,323,o),
(181,319,cs),
(182,312,o),
(180,305,o),
(176,299,cs),
(172,294,o),
(166,290,o),
(159,289,cs),
(152,288,o),
(145,290,o),
(139,294,cs),
(133,298,o),
(130,304,o),
(128,311,c),
(128,315,o),
(128,319,o),
(130,323,c),
(132,331,o),
(127,339,o),
(118,339,cs),
(116,339,o),
(107,334,o),
(101,334,cs),
(88,334,o),
(77,344,o),
(75,357,cs)
);
},
{
closed = 1;
nodes = (
(121,278,l),
(122,277,o),
(123,276,o),
(125,275,cs),
(132,269,o),
(141,266,o),
(150,265,c),
(150,29,l)
);
},
{
closed = 1;
nodes = (
(414,114,l),
(414,279,l),
(420,285,o),
(425,292,o),
(428,301,c)
);
},
{
closed = 1;
nodes = (
(465,335,o),
(456,330,o),
(445,327,c),
(443,327,l),
(441,328,o),
(440,327,o),
(438,327,c),
(436,327,l),
(433,328,o),
(429,330,o),
(426,332,cs),
(422,335,o),
(416,336,o),
(412,333,cs),
(408,331,o),
(406,326,o),
(406,321,c),
(407,318,o),
(407,315,o),
(407,313,c),
(404,298,o),
(390,289,o),
(376,291,cs),
(362,294,o),
(352,308,o),
(355,322,cs),
(356,330,o),
(362,337,o),
(370,341,c),
(374,342,o),
(376,346,o),
(377,349,cs),
(378,353,o),
(376,357,o),
(374,360,cs),
(370,364,o),
(365,372,o),
(367,382,cs),
(370,401,o),
(383,403,o),
(398,403,c),
(407,401,o),
(414,395,o),
(417,385,c),
(419,382,o),
(421,380,o),
(424,378,cs),
(426,377,o),
(430,377,o),
(433,378,cs),
(438,380,o),
(442,380,o),
(446,379,cs),
(460,377,o),
(470,363,o),
(467,348,cs)
);
}
);
width = 542;
}
);
unicode = 119;
},
{
glyphname = x;
layers = (
{
layerId = "2337EC1E-F8DF-4C20-93B2-D6C634D9C8F1";
shapes = (
{
closed = 1;
nodes = (
(375,403,o),
(363,397,o),
(354,387,c),
(346,397,o),
(333,403,o),
(319,403,cs),
(293,403,o),
(272,382,o),
(272,356,cs),
(272,330,o),
(286,307,o),
(313,289,cs),
(332,276,o),
(351,270,o),
(351,269,c),
(359,269,l),
(359,270,o),
(378,276,o),
(397,289,cs),
(423,307,o),
(437,330,o),
(437,356,cs),
(437,382,o),
(415,403,o),
(389,403,cs)
);
},
{
closed = 1;
nodes = (
(330,305,o),
(296,324,o),
(296,356,cs),
(296,369,o),
(306,379,o),
(319,379,cs),
(332,379,o),
(342,369,o),
(342,356,cs),
(342,350,o),
(348,344,o),
(354,344,cs),
(361,344,o),
(366,350,o),
(366,356,cs),
(366,369,o),
(377,379,o),
(389,379,cs),
(402,379,o),
(413,369,o),
(413,356,cs),
(413,324,o),
(380,305,o),
(355,293,c)
);
},
{
closed = 1;
nodes = (
(654,507,o),
(649,506,o),
(646,502,c),
(504,365,l),
(493,438,o),
(431,494,o),
(355,494,cs),
(281,494,o),
(219,441,o),
(207,371,c),
(71,502,ls),
(67,506,o),
(62,507,o),
(58,505,cs),
(53,503,o),
(50,498,o),
(50,494,cs),
(50,195,ls),
(50,190,o),
(53,186,o),
(58,184,c),
(59,183,o),
(61,183,o),
(62,183,c),
(66,183,o),
(69,184,o),
(71,186,cs),
(207,318,l),
(219,248,o),
(281,194,o),
(355,194,cs),
(431,194,o),
(494,251,o),
(504,324,c),
(646,186,ls),
(648,184,o),
(651,183,o),
(654,183,c),
(660,183,o),
(666,188,o),
(666,195,cs),
(666,494,ls),
(666,498,o),
(663,503,o),
(659,505,cs)
);
},
{
closed = 1;
nodes = (
(74,223,l),
(74,465,l),
(199,344,l)
);
},
{
closed = 1;
nodes = (
(285,218,o),
(229,275,o),
(229,344,cs),
(229,414,o),
(285,470,o),
(355,470,cs),
(424,470,o),
(481,414,o),
(481,344,cs),
(481,275,o),
(424,218,o),
(355,218,cs)
);
},
{
closed = 1;
nodes = (
(642,223,l),
(517,344,l),
(642,465,l)
);
}
);
width = 716;
}
);
unicode = 120;
},
{
glyphname = q;
layers = (
{
layerId = "2337EC1E-F8DF-4C20-93B2-D6C634D9C8F1";
shapes = (
{
closed = 1;
nodes = (
(162,228,l),
(163,230,o),
(163,231,o),
(163,233,c),
(163,471,ls),
(163,477,o),
(158,483,o),
(151,483,cs),
(144,483,o),
(139,477,o),
(139,471,cs),
(139,232,l),
(128,233,o),
(116,231,o),
(106,229,cs),
(81,223,o),
(63,209,o),
(55,190,cs),
(47,170,o),
(50,147,o),
(63,126,cs),
(86,90,o),
(130,69,o),
(172,69,cs),
(203,69,o),
(235,80,o),
(247,111,cs),
(255,131,o),
(252,153,o),
(239,175,cs),
(226,195,o),
(205,212,o),
(180,222,cs)
);
},
{
closed = 1;
nodes = (
(220,108,o),
(207,99,o),
(191,95,cs),
(172,90,o),
(151,93,o),
(131,101,cs),
(110,109,o),
(94,123,o),
(84,139,cs),
(74,153,o),
(72,168,o),
(77,181,cs),
(82,193,o),
(95,202,o),
(111,206,cs),
(117,207,o),
(124,208,o),
(130,208,cs),
(164,208,o),
(200,191,o),
(218,162,cs),
(227,147,o),
(231,133,o),
(225,120,cs)
);
},
{
closed = 1;
nodes = (
(179,142,o),
(176,133,o),
(180,125,cs),
(184,116,o),
(194,113,o),
(203,117,cs),
(211,121,o),
(216,131,o),
(211,140,cs),
(207,148,o),
(196,151,o),
(188,147,cs)
);
},
{
closed = 1;
nodes = (
(411,327,o),
(396,344,o),
(373,355,cs),
(356,364,o),
(334,367,o),
(312,366,c),
(312,601,ls),
(312,608,o),
(307,613,o),
(300,613,cs),
(294,613,o),
(288,608,o),
(288,601,c),
(288,362,l),
(265,356,o),
(246,345,o),
(232,331,cs),
(214,313,o),
(207,291,o),
(210,270,c),
(218,228,o),
(263,209,o),
(302,209,cs),
(309,209,o),
(317,210,o),
(325,212,c),
(352,216,o),
(376,228,o),
(392,245,cs),
(410,263,o),
(418,284,o),
(414,305,c)
);
},
{
closed = 1;
nodes = (
(362,248,o),
(343,239,o),
(321,235,cs),
(300,231,o),
(278,234,o),
(262,242,cs),
(246,249,o),
(236,261,o),
(234,274,c),
(232,287,o),
(237,301,o),
(249,314,cs),
(262,327,o),
(281,337,o),
(303,340,cs),
(325,344,o),
(346,342,o),
(363,334,cs),
(378,326,o),
(388,315,o),
(391,301,cs),
(393,288,o),
(388,274,o),
(375,262,c)
);
},
{
closed = 1;
nodes = (
(266,299,o),
(256,297,o),
(251,289,cs),
(246,280,o),
(248,270,o),
(256,265,cs),
(264,260,o),
(275,263,o),
(280,271,cs),
(285,279,o),
(282,289,o),
(274,294,cs)
);
}
);
width = 466;
}
);
unicode = 113;
},
{
glyphname = s;
layers = (
{
layerId = "2337EC1E-F8DF-4C20-93B2-D6C634D9C8F1";
shapes = (
{
closed = 1;
nodes = (
(283,367,o),
(240,410,o),
(240,463,cs),
(240,516,o),
(283,559,o),
(336,559,cs),
(389,559,o),
(432,516,o),
(432,463,cs),
(432,410,o),
(389,367,o),
(336,367,cs)
);
},
{
closed = 1;
nodes = (
(328,541,o),
(323,535,o),
(323,529,cs),
(323,522,o),
(328,517,o),
(335,517,cs),
(364,517,o),
(387,493,o),
(387,464,cs),
(387,457,o),
(393,452,o),
(399,452,cs),
(406,452,o),
(411,457,o),
(411,464,cs),
(411,506,o),
(377,541,o),
(335,541,cs)
);
},
{
closed = 1;
nodes = (
(354,344,l),
(411,353,o),
(456,403,o),
(456,463,cs),
(456,514,o),
(424,557,o),
(379,575,c),
(373,635,o),
(320,682,o),
(260,682,cs),
(201,682,o),
(151,640,o),
(141,582,c),
(141,579,l),
(89,567,o),
(50,519,o),
(50,463,cs),
(50,403,o),
(94,353,o),
(151,344,c),
(240,14,ls),
(244,1,o),
(261,1,o),
(265,14,cs)
);
},
{
closed = 1;
nodes = (
(253,58,l),
(176,343,l),
(205,345,o),
(232,356,o),
(253,376,c),
(273,357,o),
(299,345,o),
(329,343,c)
);
},
{
closed = 1;
nodes = (
(74,516,o),
(117,559,o),
(170,559,cs),
(195,559,o),
(219,549,o),
(237,531,c),
(224,512,o),
(216,488,o),
(216,463,cs),
(216,437,o),
(224,414,o),
(237,394,c),
(236,394,l),
(218,376,o),
(194,367,o),
(170,367,cs),
(117,367,o),
(74,410,o),
(74,463,cs)
);
},
{
closed = 1;
nodes = (
(304,658,o),
(345,625,o),
(354,581,c),
(348,582,o),
(342,583,o),
(336,583,cs),
(303,583,o),
(274,570,o),
(253,549,c),
(230,571,o),
(201,583,o),
(170,583,c),
(166,583,l),
(175,627,o),
(216,658,o),
(260,658,cs)
);
}
);
width = 506;
}
);
unicode = 115;
},
{
glyphname = k;
layers = (
{
background = {
shapes = (
{
closed = 1;
nodes = (
(465,156,o),
(464,165,o),
(463,174,cs),
(460,190,o),
(452,205,o),
(439,215,cs),
(431,221,o),
(422,224,o),
(412,226,cs),
(402,228,o),
(392,228,o),
(381,227,cs),
(367,225,o),
(354,217,o),
(341,210,cs),
(338,208,o),
(335,206,o),
(331,205,c),
(331,205,o),
(335,206,o),
(333,206,c),
(333,206,o),
(332,205,o),
(332,205,c),
(331,205,o),
(330,205,o),
(329,204,c),
(327,204,o),
(326,203,o),
(324,203,c),
(323,203,o),
(322,203,o),
(321,202,c),
(319,202,o),
(324,203,o),
(322,203,c),
(322,202,o),
(321,202,o),
(321,202,c),
(319,202,o),
(317,202,o),
(315,202,c),
(314,202,o),
(313,202,o),
(312,202,c),
(311,203,o),
(311,203,o),
(311,203,c),
(315,202,o),
(312,202,o),
(311,203,c),
(309,203,o),
(306,204,o),
(304,204,c),
(298,206,o),
(291,202,o),
(289,196,c),
(288,189,o),
(291,183,o),
(297,181,c),
(298,181,o),
(299,181,o),
(299,181,c),
(305,179,o),
(313,183,o),
(314,189,cs),
(316,195,o),
(312,202,o),
(306,204,c),
(305,204,o),
(303,204,o),
(302,205,c),
(302,205,o),
(301,205,o),
(301,206,c),
(298,206,o),
(303,204,o),
(301,205,cs),
(299,206,o),
(297,207,o),
(295,209,c),
(294,209,o),
(293,210,o),
(292,210,c),
(292,210,o),
(292,211,o),
(291,211,c),
(290,212,o),
(294,209,o),
(292,210,c),
(291,212,o),
(289,213,o),
(288,215,c),
(287,215,o),
(286,216,o),
(286,217,c),
(285,218,o),
(283,220,o),
(286,217,c),
(285,218,o),
(283,220,o),
(282,221,c),
(280,225,o),
(278,228,o),
(277,231,cs),
(273,238,o),
(270,245,o),
(265,252,cs),
(259,260,o),
(252,268,o),
(242,273,c),
(232,280,o),
(220,286,o),
(207,286,cs),
(198,286,o),
(187,285,o),
(178,282,cs),
(169,278,o),
(161,273,o),
(153,269,cs),
(151,268,o),
(149,267,o),
(147,266,c),
(146,266,o),
(146,266,o),
(145,266,c),
(149,267,o),
(147,266,o),
(146,266,c),
(145,265,o),
(144,265,o),
(143,265,c),
(141,264,o),
(139,263,o),
(137,263,c),
(136,263,o),
(135,262,o),
(133,262,c),
(133,262,o),
(132,262,o),
(132,262,c),
(130,261,o),
(135,262,o),
(132,262,cs),
(129,262,o),
(127,262,o),
(124,262,c),
(124,262,o),
(123,262,o),
(122,262,c),
(121,262,o),
(118,263,o),
(122,262,c),
(121,262,o),
(119,262,o),
(118,263,c),
(116,263,o),
(114,263,o),
(113,264,c),
(111,265,o),
(109,265,o),
(107,266,c),
(109,265,o),
(108,265,o),
(108,266,c),
(107,266,o),
(106,267,o),
(105,267,c),
(103,268,o),
(102,269,o),
(100,270,c),
(99,270,o),
(99,271,o),
(98,271,c),
(98,271,o),
(97,272,o),
(97,272,c),
(96,273,o),
(96,273,o),
(98,272,c),
(97,273,o),
(95,274,o),
(94,275,c),
(91,277,o),
(89,280,o),
(86,283,c),
(86,283,o),
(84,285,o),
(86,283,c),
(85,284,o),
(85,285,o),
(84,286,c),
(83,288,o),
(82,289,o),
(81,291,cs),
(79,294,o),
(77,297,o),
(75,301,cs),
(72,306,o),
(64,308,o),
(59,305,cs),
(53,301,o),
(51,295,o),
(54,289,cs),
(61,276,o),
(69,263,o),
(81,255,c),
(92,245,o),
(106,240,o),
(121,238,cs),
(131,237,o),
(142,239,o),
(152,242,c),
(161,246,o),
(169,251,o),
(178,255,cs),
(180,256,o),
(182,257,o),
(184,258,c),
(184,258,o),
(185,258,o),
(185,259,c),
(187,259,o),
(182,257,o),
(184,258,c),
(185,259,o),
(187,259,o),
(188,260,c),
(190,260,o),
(191,261,o),
(193,261,c),
(194,261,o),
(195,262,o),
(196,262,c),
(197,262,o),
(198,262,o),
(198,262,c),
(194,261,o),
(197,262,o),
(198,262,c),
(200,262,o),
(202,262,o),
(204,262,c),
(206,262,o),
(210,261,o),
(205,262,c),
(207,262,o),
(208,262,o),
(210,261,c),
(212,261,o),
(215,260,o),
(217,259,c),
(219,259,o),
(220,258,o),
(221,258,c),
(224,257,o),
(219,259,o),
(221,258,c),
(222,257,o),
(223,257,o),
(224,256,c),
(226,255,o),
(228,254,o),
(230,253,c),
(231,252,o),
(232,251,o),
(233,251,c),
(234,250,o),
(234,250,o),
(235,250,c),
(231,252,o),
(234,250,o),
(235,250,c),
(238,247,o),
(241,244,o),
(243,241,c),
(244,240,o),
(245,238,o),
(243,242,c),
(243,241,o),
(243,241,o),
(244,240,c),
(244,240,o),
(245,239,o),
(245,238,c),
(247,236,o),
(248,234,o),
(249,232,cs),
(251,229,o),
(253,226,o),
(254,222,c),
(259,214,o),
(263,206,o),
(270,199,cs),
(278,190,o),
(288,184,o),
(299,181,c),
(302,188,o),
(304,196,o),
(306,204,c),
(305,204,o),
(305,204,o),
(304,204,c),
(302,197,o),
(300,189,o),
(297,181,c),
(305,179,o),
(314,178,o),
(322,179,c),
(331,179,o),
(338,182,o),
(346,185,c),
(351,188,o),
(357,191,o),
(362,194,cs),
(365,196,o),
(368,197,o),
(371,199,c),
(372,199,o),
(373,199,o),
(373,200,c),
(376,201,o),
(370,199,o),
(373,200,c),
(375,200,o),
(376,201,o),
(378,201,c),
(381,203,o),
(385,203,o),
(388,204,c),
(384,203,o),
(387,204,o),
(388,204,c),
(389,204,o),
(390,204,o),
(391,204,c),
(393,204,o),
(395,204,o),
(398,204,c),
(399,204,o),
(400,204,o),
(401,204,c),
(401,204,o),
(402,204,o),
(402,203,c),
(404,203,o),
(401,204,o),
(401,204,c),
(404,203,o),
(406,203,o),
(409,202,c),
(411,202,o),
(413,201,o),
(416,200,c),
(417,200,o),
(418,199,o),
(419,199,c),
(415,200,o),
(418,199,o),
(419,199,c),
(421,198,o),
(423,197,o),
(424,196,c),
(425,195,o),
(426,195,o),
(426,194,c),
(423,197,o),
(426,194,o),
(427,194,c),
(428,193,o),
(429,191,o),
(431,190,c),
(431,189,o),
(433,187,o),
(431,190,c),
(431,189,o),
(432,189,o),
(432,188,c),
(433,187,o),
(434,185,o),
(435,184,c),
(435,183,o),
(435,182,o),
(436,182,c),
(436,181,o),
(436,181,o),
(436,180,c),
(437,179,o),
(435,183,o),
(436,182,c),
(437,179,o),
(438,176,o),
(439,173,c),
(439,171,o),
(439,169,o),
(440,168,c),
(440,168,o),
(440,167,o),
(440,167,c),
(440,165,o),
(439,170,o),
(440,168,c),
(440,168,o),
(440,167,o),
(440,166,c),
(440,164,o),
(440,161,o),
(440,158,c),
(440,157,o),
(440,155,o),
(440,153,c),
(440,151,o),
(439,148,o),
(440,154,c),
(440,151,o),
(440,148,o),
(441,145,cs),
(443,142,o),
(446,140,o),
(449,139,cs),
(454,138,o),
(462,141,o),
(463,148,cs)
);
},
{
closed = 1;
nodes = (
(446,267,o),
(432,271,o),
(416,273,cs),
(406,274,o),
(395,273,o),
(385,270,cs),
(376,267,o),
(368,263,o),
(360,259,cs),
(357,257,o),
(354,255,o),
(350,253,c),
(349,253,o),
(348,252,o),
(348,252,c),
(347,252,o),
(347,252,o),
(346,251,c),
(346,251,o),
(344,250,o),
(346,251,cs),
(348,252,o),
(345,251,o),
(345,251,c),
(344,250,o),
(343,250,o),
(342,250,c),
(340,249,o),
(337,248,o),
(335,248,c),
(335,248,o),
(335,248,o),
(335,248,c),
(333,248,o),
(336,248,o),
(336,248,c),
(336,248,o),
(335,248,o),
(335,248,c),
(333,248,o),
(332,248,o),
(331,248,c),
(330,248,o),
(329,248,o),
(327,248,c),
(327,248,o),
(326,248,o),
(325,248,c),
(325,248,o),
(325,248,o),
(325,248,c),
(323,248,o),
(326,248,o),
(326,248,c),
(325,248,o),
(323,248,o),
(322,249,c),
(320,249,o),
(319,249,o),
(317,250,cs),
(311,252,o),
(304,248,o),
(303,242,cs),
(301,235,o),
(305,229,o),
(311,227,c),
(312,227,o),
(312,226,o),
(313,226,c),
(319,224,o),
(326,228,o),
(328,235,cs),
(329,241,o),
(326,247,o),
(319,249,c),
(318,250,o),
(316,250,o),
(315,251,c),
(315,251,o),
(314,251,o),
(314,251,c),
(312,252,o),
(315,251,o),
(315,251,c),
(315,251,o),
(314,251,o),
(313,252,c),
(311,253,o),
(308,254,o),
(306,256,c),
(306,256,o),
(303,258,o),
(305,256,cs),
(307,255,o),
(305,256,o),
(305,256,c),
(304,257,o),
(303,258,o),
(302,259,c),
(301,260,o),
(301,261,o),
(300,262,c),
(299,262,o),
(299,262,o),
(299,263,c),
(298,263,o),
(298,263,o),
(298,264,c),
(297,265,o),
(299,262,o),
(299,262,c),
(298,263,o),
(298,264,o),
(297,265,c),
(296,266,o),
(296,267,o),
(295,268,c),
(294,270,o),
(293,272,o),
(291,275,cs),
(289,279,o),
(287,283,o),
(285,287,cs),
(279,297,o),
(272,307,o),
(263,314,cs),
(251,323,o),
(236,330,o),
(220,332,cs),
(207,333,o),
(194,329,o),
(183,323,cs),
(178,321,o),
(173,318,o),
(168,316,c),
(166,314,o),
(163,313,o),
(161,312,c),
(160,312,o),
(160,311,o),
(159,311,c),
(159,311,o),
(162,312,o),
(160,312,c),
(160,312,o),
(160,312,o),
(159,311,c),
(158,311,o),
(157,310,o),
(155,310,c),
(153,309,o),
(150,308,o),
(147,308,c),
(146,308,o),
(146,308,o),
(145,307,c),
(144,307,o),
(148,308,o),
(146,308,c),
(146,308,o),
(146,308,o),
(146,308,c),
(144,307,o),
(142,307,o),
(141,307,c),
(139,307,o),
(138,307,o),
(136,307,c),
(135,307,o),
(135,308,o),
(134,308,c),
(134,308,o),
(137,307,o),
(135,307,c),
(135,308,o),
(134,308,o),
(134,308,c),
(130,308,o),
(127,309,o),
(124,310,c),
(123,311,o),
(122,311,o),
(121,311,c),
(121,311,o),
(121,312,o),
(120,312,c),
(123,311,o),
(122,311,o),
(121,311,c),
(120,312,o),
(118,313,o),
(116,314,cs),
(114,315,o),
(111,317,o),
(108,318,c),
(108,319,o),
(107,319,o),
(106,320,c),
(106,320,o),
(106,320,o),
(106,320,c),
(105,321,o),
(108,319,o),
(107,320,c),
(105,321,o),
(104,322,o),
(103,323,c),
(101,325,o),
(99,327,o),
(97,329,cs),
(95,331,o),
(93,333,o),
(91,335,cs),
(90,337,o),
(93,333,o),
(91,335,c),
(91,335,o),
(91,336,o),
(90,336,c),
(90,338,o),
(89,339,o),
(88,340,c),
(85,344,o),
(83,348,o),
(81,352,cs),
(80,354,o),
(79,356,o),
(78,358,c),
(78,359,o),
(77,359,o),
(77,360,c),
(77,361,o),
(78,357,o),
(78,359,c),
(78,359,o),
(77,359,o),
(77,360,c),
(76,362,o),
(76,364,o),
(75,366,c),
(75,366,o),
(75,366,o),
(75,366,c),
(73,372,o),
(66,377,o),
(60,375,cs),
(54,373,o),
(50,366,o),
(52,360,cs),
(56,345,o),
(64,331,o),
(73,319,cs),
(90,298,o),
(118,281,o),
(146,284,cs),
(159,285,o),
(171,290,o),
(183,296,cs),
(188,299,o),
(193,302,o),
(198,304,c),
(198,304,o),
(198,304,o),
(199,304,c),
(200,305,o),
(197,304,o),
(197,304,c),
(198,304,o),
(199,304,o),
(199,304,c),
(201,305,o),
(202,305,o),
(203,306,c),
(206,307,o),
(208,307,o),
(211,308,c),
(213,308,o),
(209,307,o),
(209,307,c),
(210,308,o),
(210,308,o),
(211,308,c),
(211,308,o),
(212,308,o),
(213,308,c),
(214,308,o),
(216,308,o),
(217,308,c),
(218,308,o),
(219,308,o),
(219,308,c),
(220,308,o),
(220,308,o),
(220,308,c),
(222,307,o),
(219,308,o),
(219,308,c),
(220,308,o),
(222,307,o),
(224,307,c),
(227,306,o),
(231,305,o),
(235,303,cs),
(237,302,o),
(232,304,o),
(235,303,c),
(236,303,o),
(236,302,o),
(237,302,c),
(239,301,o),
(240,301,o),
(242,300,c),
(243,299,o),
(244,298,o),
(246,297,c),
(246,297,o),
(247,296,o),
(247,296,c),
(250,294,o),
(246,298,o),
(247,296,c),
(250,294,o),
(252,292,o),
(254,290,c),
(255,289,o),
(255,288,o),
(256,287,c),
(257,287,o),
(257,286,o),
(257,286,c),
(258,285,o),
(256,287,o),
(256,287,c),
(256,287,o),
(257,286,o),
(257,286,c),
(259,284,o),
(260,282,o),
(261,280,cs),
(266,271,o),
(270,262,o),
(276,254,cs),
(282,244,o),
(291,235,o),
(302,230,cs),
(305,229,o),
(309,227,o),
(313,226,c),
(315,234,o),
(317,242,o),
(319,249,c),
(319,249,o),
(318,250,o),
(317,250,c),
(315,242,o),
(313,234,o),
(311,227,c),
(322,224,o),
(332,223,o),
(343,225,cs),
(351,227,o),
(359,231,o),
(367,235,cs),
(370,237,o),
(374,239,o),
(377,240,cs),
(379,241,o),
(381,242,o),
(382,243,c),
(383,244,o),
(384,244,o),
(385,245,c),
(386,245,o),
(386,245,o),
(386,245,c),
(387,245,o),
(389,246,o),
(387,245,cs),
(385,244,o),
(386,245,o),
(387,245,c),
(387,246,o),
(388,246,o),
(388,246,c),
(389,246,o),
(390,247,o),
(391,247,c),
(393,248,o),
(395,248,o),
(397,249,c),
(399,249,o),
(400,249,o),
(401,249,c),
(401,249,o),
(401,249,o),
(402,249,c),
(403,250,o),
(400,249,o),
(400,249,c),
(400,249,o),
(401,249,o),
(402,249,c),
(404,250,o),
(407,250,o),
(409,250,c),
(410,250,o),
(412,249,o),
(413,249,c),
(414,249,o),
(415,249,o),
(416,249,c),
(418,249,o),
(413,250,o),
(415,249,c),
(419,249,o),
(422,248,o),
(425,247,c),
(427,247,o),
(429,246,o),
(431,245,c),
(431,245,o),
(432,245,o),
(432,245,c),
(432,245,o),
(430,246,o),
(432,245,c),
(432,245,o),
(433,244,o),
(434,244,c),
(436,243,o),
(437,242,o),
(439,241,cs),
(441,239,o),
(437,242,o),
(439,241,c),
(440,240,o),
(440,240,o),
(441,239,c),
(446,235,o),
(453,234,o),
(458,239,cs),
(462,244,o),
(463,251,o),
(458,256,cs)
);
}
);
};
layerId = "276078B1-9544-40AF-AB64-08B62BEE7F53";
associatedMasterId = "2337EC1E-F8DF-4C20-93B2-D6C634D9C8F1";
name = 1;
shapes = (
{
closed = 1;
nodes = (
(464,302,o),
(464,302,o),
(464,302,c),
(464,302,o),
(464,303,o),
(464,303,c),
(464,303,o),
(464,303,o),
(464,303,c),
(464,304,o),
(464,304,o),
(464,304,c),
(464,304,o),
(464,304,o),
(464,304,c),
(464,305,o),
(464,305,o),
(464,305,c),
(464,305,o),
(464,305,o),
(464,305,c),
(463,306,o),
(463,306,o),
(463,306,c),
(463,307,o),
(463,307,o),
(463,307,c),
(463,307,o),
(463,307,o),
(463,307,c),
(463,308,o),
(463,308,o),
(463,308,c),
(462,308,o),
(462,308,o),
(462,308,c),
(462,308,o),
(462,309,o),
(462,309,c),
(291,553,ls),
(288,558,o),
(281,560,o),
(276,557,cs),
(260,548,l),
(253,562,o),
(243,575,o),
(230,585,cs),
(224,589,o),
(217,588,o),
(213,582,cs),
(209,577,o),
(210,569,o),
(215,565,cs),
(227,557,o),
(234,547,o),
(239,536,c),
(57,435,l),
(57,435,o),
(57,435,o),
(57,435,c),
(56,435,o),
(56,435,o),
(56,435,c),
(56,434,o),
(56,434,o),
(55,434,c),
(55,434,o),
(55,434,o),
(55,434,c),
(55,434,o),
(55,434,o),
(55,434,c),
(55,434,o),
(55,433,o),
(54,433,c),
(54,433,o),
(54,433,o),
(54,433,c),
(54,433,o),
(54,432,o),
(53,432,c),
(53,432,o),
(53,432,o),
(53,432,c),
(53,432,o),
(53,431,o),
(53,431,c),
(52,431,o),
(52,431,o),
(52,431,c),
(52,430,o),
(51,429,o),
(51,429,c),
(51,428,o),
(51,428,o),
(51,428,c),
(51,428,o),
(51,428,o),
(51,427,c),
(51,427,o),
(51,427,o),
(51,427,c),
(51,427,o),
(51,426,o),
(51,426,c),
(50,426,o),
(50,426,o),
(50,426,c),
(50,425,o),
(50,425,o),
(50,424,c),
(50,424,o),
(50,424,o),
(50,424,c),
(50,424,l),
(50,424,o),
(50,424,o),
(50,424,c),
(50,199,ls),
(50,194,o),
(54,189,o),
(60,188,cs),
(449,95,l),
(450,95,o),
(451,95,o),
(452,95,c),
(455,95,o),
(457,96,o),
(460,97,c),
(462,100,o),
(464,103,o),
(464,107,cs),
(464,302,l),
(464,302,o),
(464,302,o),
(464,302,c)
);
},
{
closed = 1;
nodes = (
(261,463,o),
(273,452,o),
(273,437,cs),
(273,423,o),
(261,411,o),
(247,411,cs),
(232,411,o),
(221,423,o),
(221,437,cs),
(221,452,o),
(232,463,o),
(247,463,cs)
);
},
{
closed = 1;
nodes = (
(216,484,o),
(197,463,o),
(197,437,cs),
(197,410,o),
(219,387,o),
(247,387,cs),
(274,387,o),
(297,410,o),
(297,437,cs),
(297,458,o),
(283,477,o),
(265,484,c),
(266,491,o),
(268,501,o),
(267,513,c),
(267,517,o),
(267,520,o),
(266,524,c),
(278,531,l),
(422,324,l),
(93,427,l),
(243,511,l),
(244,501,o),
(242,492,o),
(241,487,c)
);
},
{
closed = 1;
nodes = (
(440,122,l),
(74,209,l),
(74,408,l),
(440,293,l)
);
},
{
closed = 1;
nodes = (
(50,359,l),
(52,355,o),
(54,349,o),
(56,343,cs),
(59,337,o),
(63,329,o),
(67,322,cs),
(77,307,o),
(92,293,o),
(117,286,cs),
(166,272,o),
(191,318,o),
(229,305,c),
(269,295,o),
(263,243,o),
(312,228,cs),
(363,211,o),
(391,271,o),
(444,239,c),
(456,259,l),
(392,300,o),
(365,239,o),
(320,250,c),
(281,262,o),
(289,315,o),
(235,329,cs),
(185,342,o),
(163,298,o),
(123,308,cs),
(105,313,o),
(94,324,o),
(87,335,cs),
(80,346,o),
(77,357,o),
(72,369,c)
);
},
{
closed = 1;
nodes = (
(52,275,l),
(62,260,o),
(77,246,o),
(102,239,cs),
(151,225,o),
(175,269,o),
(214,258,cs),
(254,246,o),
(248,197,o),
(297,181,cs),
(337,169,o),
(363,202,o),
(397,202,cs),
(407,202,o),
(435,197,o),
(444,162,c),
(441,212,l),
(377,253,o),
(350,191,o),
(305,203,cs),
(266,214,o),
(274,268,o),
(220,282,cs),
(170,295,o),
(148,251,o),
(108,261,cs),
(90,266,o),
(79,277,o),
(72,288,cs),
(65,299,o),
(62,310,o),
(57,322,c)
);
}
);
width = 515;
},
{
layerId = "2337EC1E-F8DF-4C20-93B2-D6C634D9C8F1";
shapes = (
{
closed = 1;
nodes = (
(72,442,ls),
(59,435,o),
(50,420,o),
(50,405,cs),
(50,199,ls),
(50,194,o),
(54,189,o),
(60,188,c),
(449,95,l),
(450,95,o),
(451,95,o),
(452,95,c),
(455,95,o),
(457,96,o),
(460,97,c),
(462,100,o),
(464,103,o),
(464,107,cs),
(464,306,l),
(291,553,l),
(288,558,o),
(281,560,o),
(276,557,c),
(260,548,l),
(253,562,o),
(243,575,o),
(230,585,c),
(224,589,o),
(217,588,o),
(213,582,c),
(209,577,o),
(210,569,o),
(215,565,c),
(227,557,o),
(234,547,o),
(239,536,c)
);
},
{
closed = 1;
nodes = (
(216,484,o),
(197,463,o),
(197,437,cs),
(197,410,o),
(219,387,o),
(247,387,cs),
(274,387,o),
(297,410,o),
(297,437,cs),
(297,458,o),
(283,477,o),
(265,484,c),
(266,491,o),
(268,501,o),
(267,513,c),
(267,517,o),
(267,520,o),
(266,524,c),
(278,531,l),
(422,324,l),
(93,427,l),
(243,511,l),
(244,501,o),
(242,492,o),
(241,487,c)
);
},
{
closed = 1;
nodes = (
(261,463,o),
(273,452,o),
(273,437,cs),
(273,423,o),
(261,411,o),
(247,411,cs),
(232,411,o),
(221,423,o),
(221,437,cs),
(221,452,o),
(232,463,o),
(247,463,cs)
);
},
{
closed = 1;
nodes = (
(74,408,l),
(440,293,l),
(440,268,l),
(387,290,o),
(361,239,o),
(320,250,cs),
(285,259,o),
(289,315,o),
(235,329,cs),
(185,342,o),
(163,298,o),
(123,308,cs),
(92,316,o),
(74,336,o),
(74,364,cs)
);
},
{
closed = 1;
nodes = (
(74,313,l),
(84,302,o),
(97,292,o),
(117,286,cs),
(166,272,o),
(190,316,o),
(229,305,cs),
(269,293,o),
(271,242,o),
(312,228,cs),
(362,211,o),
(390,268,o),
(440,241,c),
(440,213,l),
(377,253,o),
(350,191,o),
(305,203,cs),
(266,214,o),
(271,267,o),
(220,282,cs),
(170,297,o),
(148,250,o),
(108,261,cs),
(92,265,o),
(81,275,o),
(74,285,c)
);
},
{
closed = 1;
nodes = (
(440,122,l),
(74,209,l),
(74,256,l),
(81,248,o),
(91,242,o),
(102,239,cs),
(151,225,o),
(175,269,o),
(214,258,cs),
(254,246,o),
(248,196,o),
(297,181,cs),
(337,168,o),
(363,202,o),
(397,202,cs),
(406,202,o),
(429,198,o),
(440,173,c)
);
}
);
width = 514;
}
);
unicode = (34,107);
},
{
glyphname = l;
layers = (
{
layerId = "2337EC1E-F8DF-4C20-93B2-D6C634D9C8F1";
shapes = (
{
closed = 1;
nodes = (
(460,243,o),
(426,209,o),
(426,167,cs),
(426,161,o),
(432,155,o),
(438,155,cs),
(445,155,o),
(450,161,o),
(450,167,cs),
(450,196,o),
(473,219,o),
(502,219,cs),
(508,219,o),
(514,224,o),
(514,231,cs),
(514,237,o),
(508,243,o),
(502,243,cs)
);
},
{
closed = 1;
nodes = (
(172,220,o),
(170,252,o),
(188,274,cs),
(192,279,o),
(191,287,o),
(186,291,cs),
(181,295,o),
(174,295,o),
(170,289,c),
(143,258,o),
(147,210,o),
(178,184,cs),
(180,182,o),
(183,181,o),
(186,181,cs),
(189,181,o),
(193,182,o),
(195,185,cs),
(199,190,o),
(199,198,o),
(194,202,cs)
);
},
{
closed = 1;
nodes = (
(483,411,o),
(491,399,o),
(495,386,cs),
(498,373,o),
(496,359,o),
(489,347,cs),
(486,342,o),
(488,334,o),
(494,331,cs),
(496,330,o),
(498,329,o),
(500,329,c),
(504,329,o),
(508,332,o),
(510,335,cs),
(520,353,o),
(523,373,o),
(518,392,cs),
(513,412,o),
(501,428,o),
(483,438,c),
(478,442,o),
(470,440,o),
(467,434,cs),
(464,428,o),
(465,421,o),
(471,417,c)
);
},
{
closed = 1;
nodes = (
(306,203,o),
(286,204,o),
(267,197,cs),
(261,195,o),
(258,188,o),
(260,181,cs),
(262,175,o),
(269,172,o),
(276,174,c),
(288,179,o),
(302,179,o),
(315,173,cs),
(327,168,o),
(337,158,o),
(342,145,c),
(343,140,o),
(348,137,o),
(353,137,c),
(354,137,o),
(356,137,o),
(357,138,c),
(363,140,o),
(366,147,o),
(364,153,cs),
(357,172,o),
(343,187,o),
(325,195,cs)
);
},
{
closed = 1;
nodes = (
(323,621,o),
(318,616,o),
(318,609,cs),
(318,527,l),
(235,548,l),
(232,548,o),
(228,548,o),
(225,545,cs),
(222,543,o),
(220,539,o),
(221,535,c),
(226,445,l),
(136,455,l),
(132,456,o),
(129,454,o),
(126,451,cs),
(123,448,o),
(122,444,o),
(123,440,cs),
(144,353,l),
(62,353,l),
(55,353,o),
(50,348,o),
(50,341,cs),
(50,186,o),
(175,61,o),
(330,61,cs),
(485,61,o),
(610,186,o),
(610,341,cs),
(610,496,o),
(485,621,o),
(330,621,cs)
);
},
{
closed = 1;
nodes = (
(194,85,o),
(80,193,o),
(74,329,c),
(159,329,ls),
(163,329,o),
(167,331,o),
(169,334,cs),
(171,336,o),
(172,340,o),
(171,344,cs),
(151,429,l),
(238,420,l),
(242,419,o),
(245,420,o),
(248,423,cs),
(250,425,o),
(252,429,o),
(251,432,c),
(246,520,l),
(327,500,ls),
(331,499,o),
(334,500,o),
(337,502,cs),
(340,504,o),
(342,508,o),
(342,512,cs),
(342,597,l),
(478,591,o),
(586,477,o),
(586,341,cs),
(586,200,o),
(471,85,o),
(330,85,cs)
);
},
{
closed = 1;
nodes = (
(465,533,o),
(459,539,o),
(453,539,cs),
(411,539,o),
(377,505,o),
(377,464,cs),
(377,457,o),
(383,452,o),
(389,452,cs),
(396,452,o),
(401,457,o),
(401,464,cs),
(401,492,o),
(424,515,o),
(453,515,cs),
(459,515,o),
(465,520,o),
(465,527,cs)
);
},
{
closed = 1;
nodes = (
(283,426,o),
(245,388,o),
(245,341,cs),
(245,294,o),
(283,256,o),
(330,256,cs),
(377,256,o),
(415,294,o),
(415,341,cs),
(415,388,o),
(377,426,o),
(330,426,cs)
);
},
{
closed = 1;
nodes = (
(296,280,o),
(269,307,o),
(269,341,cs),
(269,375,o),
(296,402,o),
(330,402,cs),
(364,402,o),
(391,375,o),
(391,341,cs),
(391,307,o),
(364,280,o),
(330,280,cs)
);
}
);
width = 660;
}
);
unicode = (35,108);
},
{
glyphname = m;
layers = (
{
layerId = "2337EC1E-F8DF-4C20-93B2-D6C634D9C8F1";
shapes = (
{
closed = 1;
nodes = (
(718,538,o),
(654,590,o),
(585,590,cs),
(527,590,o),
(474,562,o),
(444,513,cs),
(395,430,l),
(345,513,ls),
(315,563,o),
(263,590,o),
(205,590,cs),
(136,590,o),
(71,538,o),
(55,470,cs),
(45,429,o),
(51,386,o),
(73,350,cs),
(101,305,ls),
(108,294,o),
(118,286,o),
(131,283,cs),
(143,280,o),
(156,282,o),
(167,289,cs),
(190,303,o),
(198,332,o),
(184,355,cs),
(161,393,ls),
(152,407,o),
(150,425,o),
(154,441,cs),
(158,458,o),
(169,472,o),
(183,480,cs),
(213,498,o),
(252,487,o),
(270,457,cs),
(341,341,l),
(202,113,l),
(196,102,o),
(194,90,o),
(197,78,cs),
(202,58,o),
(221,42,o),
(242,42,cs),
(257,42,o),
(274,52,o),
(281,65,c),
(349,176,l),
(349,177,o),
(350,178,o),
(350,179,c),
(395,252,l),
(439,179,l),
(439,178,o),
(440,177,o),
(440,176,c),
(508,65,ls),
(517,50,o),
(532,43,o),
(548,43,cs),
(569,43,o),
(587,57,o),
(592,78,cs),
(595,90,o),
(593,102,o),
(587,113,cs),
(449,341,l),
(519,457,ls),
(537,487,o),
(576,498,o),
(606,480,cs),
(620,472,o),
(631,458,o),
(635,441,cs),
(639,425,o),
(637,407,o),
(628,393,cs),
(605,355,ls),
(591,332,o),
(599,303,o),
(622,289,cs),
(629,284,o),
(638,282,o),
(647,282,cs),
(651,282,o),
(655,282,o),
(658,283,cs),
(671,286,o),
(682,294,o),
(688,305,c),
(716,350,ls),
(738,386,o),
(744,429,o),
(734,470,cs)
);
},
{
closed = 1;
nodes = (
(712,459,l),
(716,440,o),
(716,421,o),
(711,402,c),
(661,421,l),
(661,428,o),
(661,434,o),
(660,440,c)
);
},
{
closed = 1;
nodes = (
(653,463,l),
(649,471,o),
(644,478,o),
(638,485,c),
(672,531,l),
(686,517,o),
(697,501,o),
(705,482,c)
);
},
{
closed = 1;
nodes = (
(441,307,l),
(439,225,l),
(400,289,l),
(400,291,l),
(403,371,l)
);
},
{
closed = 1;
nodes = (
(464,269,l),
(499,212,l),
(496,130,l),
(462,187,l)
);
},
{
closed = 1;
nodes = (
(342,385,l),
(342,386,l),
(345,466,l),
(380,408,l),
(380,404,l),
(377,327,l)
);
},
{
closed = 1;
nodes = (
(151,485,l),
(145,478,o),
(140,471,o),
(136,463,c),
(84,482,l),
(92,501,o),
(103,517,o),
(118,531,c)
);
},
{
closed = 1;
nodes = (
(129,440,l),
(128,434,o),
(128,428,o),
(128,421,c),
(78,402,l),
(73,421,o),
(73,440,o),
(77,459,c)
);
},
{
closed = 1;
nodes = (
(133,397,l),
(135,391,o),
(137,386,o),
(141,380,c),
(145,372,l),
(112,332,l),
(94,363,ls),
(91,368,o),
(88,374,o),
(85,380,c)
);
},
{
closed = 1;
nodes = (
(149,306,o),
(143,305,o),
(136,306,cs),
(132,307,o),
(129,309,o),
(126,312,c),
(159,351,l),
(163,343,l),
(170,331,o),
(166,316,o),
(155,309,cs)
);
},
{
closed = 1;
nodes = (
(170,500,l),
(137,545,l),
(138,546,o),
(139,547,o),
(140,547,c),
(157,557,o),
(175,563,o),
(193,565,c),
(200,511,l),
(190,510,o),
(180,506,o),
(171,501,c)
);
},
{
closed = 1;
nodes = (
(217,566,l),
(233,565,o),
(248,561,o),
(263,554,c),
(261,500,l),
(250,506,o),
(237,511,o),
(224,512,c)
);
},
{
closed = 1;
nodes = (
(285,479,l),
(286,541,l),
(300,531,o),
(313,518,o),
(322,503,c),
(319,423,l)
);
},
{
closed = 1;
nodes = (
(325,269,l),
(327,187,l),
(293,130,l),
(290,212,l)
);
},
{
closed = 1;
nodes = (
(225,73,o),
(221,78,o),
(220,83,cs),
(219,89,o),
(220,95,o),
(223,100,cs),
(267,174,l),
(270,92,l),
(261,77,l),
(254,67,o),
(241,63,o),
(230,70,cs)
);
},
{
closed = 1;
nodes = (
(350,225,l),
(348,307,l),
(355,318,l),
(380,275,l)
);
},
{
closed = 1;
nodes = (
(568,78,o),
(564,73,o),
(559,70,cs),
(548,63,o),
(535,67,o),
(528,77,c),
(519,92,l),
(522,174,l),
(566,100,l),
(570,95,o),
(570,89,o),
(569,83,cs)
);
},
{
closed = 1;
nodes = (
(409,407,l),
(444,466,l),
(447,386,l),
(447,385,l),
(435,364,l)
);
},
{
closed = 1;
nodes = (
(470,423,l),
(467,503,l),
(476,518,o),
(489,531,o),
(503,541,c),
(505,479,l),
(502,476,o),
(500,473,o),
(498,470,cs)
);
},
{
closed = 1;
nodes = (
(526,554,l),
(541,561,o),
(556,565,o),
(572,566,c),
(565,512,l),
(552,511,o),
(539,506,o),
(528,500,c)
);
},
{
closed = 1;
nodes = (
(596,565,l),
(614,563,o),
(632,557,o),
(649,547,c),
(650,547,o),
(651,546,o),
(652,545,c),
(620,500,l),
(611,505,o),
(599,510,o),
(589,511,c)
);
},
{
closed = 1;
nodes = (
(646,305,o),
(640,306,o),
(634,309,cs),
(623,316,o),
(619,331,o),
(626,343,c),
(630,351,l),
(663,312,l),
(660,309,o),
(657,307,o),
(653,306,cs)
);
},
{
closed = 1;
nodes = (
(677,332,l),
(644,372,l),
(648,380,l),
(652,386,o),
(654,391,o),
(656,397,c),
(704,380,l),
(701,374,o),
(699,368,o),
(695,363,c)
);
}
);
width = 789;
}
);
unicode = (64,109);
},
{
glyphname = P;
layers = (
{
layerId = "2337EC1E-F8DF-4C20-93B2-D6C634D9C8F1";
shapes = (
{
closed = 1;
nodes = (
(555,506,o),
(551,509,o),
(546,509,c),
(519,509,l),
(515,523,o),
(506,534,o),
(492,540,cs),
(478,547,o),
(461,545,o),
(448,537,c),
(443,543,o),
(437,548,o),
(430,551,cs),
(413,559,o),
(393,555,o),
(379,543,c),
(369,546,o),
(357,545,o),
(348,540,c),
(343,545,o),
(338,549,o),
(332,551,cs),
(321,556,o),
(308,557,o),
(296,552,cs),
(289,549,o),
(282,544,o),
(277,538,c),
(268,546,o),
(247,545,o),
(238,542,c),
(234,546,o),
(230,549,o),
(224,551,cs),
(206,559,o),
(186,555,o),
(172,542,c),
(157,547,o),
(140,544,o),
(127,534,c),
(124,537,o),
(121,539,o),
(118,540,cs),
(103,547,o),
(83,545,o),
(69,536,cs),
(57,528,o),
(50,515,o),
(50,499,c),
(50,12,ls),
(50,5,o),
(56,0,o),
(62,0,c),
(65,0,o),
(68,1,o),
(70,4,c),
(83,17,l),
(86,15,o),
(89,14,o),
(94,14,c),
(95,14,o),
(96,14,o),
(98,13,cs),
(101,12,o),
(104,12,o),
(108,12,cs),
(125,12,o),
(141,23,o),
(149,37,c),
(174,33,o),
(197,49,o),
(202,73,c),
(204,79,o),
(204,85,o),
(203,91,c),
(215,97,o),
(224,108,o),
(227,122,c),
(227,123,l),
(230,123,l),
(251,123,o),
(271,138,o),
(275,160,cs),
(276,164,o),
(277,167,o),
(277,171,c),
(293,175,o),
(306,188,o),
(310,204,c),
(333,203,o),
(354,218,o),
(359,241,cs),
(360,244,o),
(360,247,o),
(360,250,c),
(372,256,o),
(381,267,o),
(384,280,c),
(407,279,o),
(427,294,o),
(432,317,cs),
(433,320,o),
(433,324,o),
(433,327,c),
(451,331,o),
(467,347,o),
(471,365,c),
(489,363,o),
(508,374,o),
(516,392,cs),
(521,402,o),
(521,414,o),
(518,424,c),
(528,429,o),
(536,437,o),
(540,447,cs),
(545,457,o),
(546,467,o),
(543,477,c),
(555,489,ls),
(558,492,o),
(559,498,o),
(557,502,cs)
);
},
{
closed = 1;
nodes = (
(454,511,l),
(461,520,o),
(472,523,o),
(483,518,cs),
(487,516,o),
(491,513,o),
(493,509,c)
);
},
{
closed = 1;
nodes = (
(144,520,o),
(156,523,o),
(166,518,c),
(167,518,o),
(168,517,o),
(169,517,c),
(172,515,o),
(175,514,o),
(178,515,cs),
(181,516,o),
(184,518,o),
(186,520,cs),
(192,530,o),
(204,534,o),
(215,529,cs),
(219,527,o),
(222,524,o),
(225,520,cs),
(226,518,o),
(229,516,o),
(232,515,cs),
(235,514,o),
(239,515,o),
(241,517,cs),
(248,521,o),
(256,522,o),
(263,518,cs),
(266,517,o),
(269,515,o),
(271,512,cs),
(278,505,o),
(288,511,o),
(292,518,cs),
(295,523,o),
(299,527,o),
(305,530,cs),
(311,532,o),
(317,532,o),
(323,529,cs),
(328,527,o),
(331,523,o),
(334,519,c),
(335,515,o),
(339,513,o),
(342,512,cs),
(346,511,o),
(349,512,o),
(352,515,cs),
(369,529,o),
(384,508,o),
(392,522,cs),
(398,530,o),
(410,534,o),
(420,529,cs),
(426,526,o),
(431,521,o),
(433,514,c),
(433,512,o),
(435,510,o),
(436,509,c),
(135,507,l),
(136,508,o),
(137,509,o),
(137,510,c)
);
},
{
closed = 1;
nodes = (
(90,521,o),
(102,521,o),
(108,518,c),
(112,517,o),
(115,514,o),
(117,510,c),
(120,507,l),
(75,507,l),
(76,511,o),
(79,513,o),
(82,516,c)
);
},
{
closed = 1;
nodes = (
(201,119,o),
(194,112,o),
(186,110,cs),
(182,109,o),
(179,107,o),
(178,103,c),
(176,100,o),
(176,96,o),
(177,93,cs),
(179,88,o),
(180,83,o),
(179,79,cs),
(176,66,o),
(164,58,o),
(152,61,c),
(150,61,o),
(148,62,o),
(147,63,c),
(144,64,o),
(140,64,o),
(137,62,c),
(133,61,o),
(131,58,o),
(130,54,c),
(129,48,o),
(125,43,o),
(120,40,cs),
(115,36,o),
(109,35,o),
(103,37,c),
(203,137,l),
(203,136,l),
(204,133,o),
(204,130,o),
(203,127,cs)
);
},
{
closed = 1;
nodes = (
(247,143,o),
(233,150,o),
(217,150,c),
(251,185,l),
(251,177,l),
(253,174,o),
(253,169,o),
(252,165,cs)
);
},
{
closed = 1;
nodes = (
(288,216,o),
(287,214,o),
(287,211,c),
(285,200,o),
(275,193,o),
(263,193,c),
(259,193,l),
(288,221,l),
(287,220,o),
(287,219,o),
(287,218,c)
);
},
{
closed = 1;
nodes = (
(362,294,l),
(362,291,o),
(362,289,o),
(361,287,cs),
(359,279,o),
(353,272,o),
(345,270,cs),
(338,268,o),
(335,262,o),
(336,256,c),
(336,246,l),
(333,234,o),
(321,226,o),
(308,229,c),
(307,229,o),
(306,230,o),
(304,230,c),
(302,231,o),
(299,231,o),
(297,231,c),
(362,296,l)
);
},
{
closed = 1;
nodes = (
(406,310,o),
(394,302,o),
(381,305,c),
(380,305,o),
(379,305,o),
(378,306,c),
(376,306,o),
(374,307,o),
(372,306,c),
(408,341,l),
(407,339,o),
(407,337,o),
(408,335,cs),
(409,331,o),
(410,326,o),
(409,322,cs)
);
},
{
closed = 1;
nodes = (
(444,357,o),
(433,349,o),
(421,351,c),
(417,351,l),
(447,381,l),
(447,377,l),
(448,375,o),
(448,372,o),
(447,369,cs)
);
},
{
closed = 1;
nodes = (
(489,390,o),
(475,385,o),
(464,390,cs),
(462,391,o),
(459,392,o),
(457,391,c),
(491,426,l),
(492,425,l),
(497,418,o),
(497,409,o),
(494,402,cs)
);
},
{
closed = 1;
nodes = (
(74,41,l),
(74,483,l),
(517,485,l)
);
},
{
closed = 1;
nodes = (
(223,288,o),
(232,292,o),
(240,298,c),
(250,307,o),
(254,321,o),
(253,336,c),
(251,350,o),
(245,364,o),
(234,375,c),
(224,387,o),
(211,395,o),
(197,398,cs),
(182,402,o),
(168,399,o),
(158,390,cs),
(149,381,o),
(144,368,o),
(145,352,c),
(149,321,o),
(180,288,o),
(213,288,cs)
);
},
{
closed = 1;
nodes = (
(195,376,o),
(207,370,o),
(216,359,cs),
(223,352,o),
(228,342,o),
(229,333,c),
(229,329,l),
(227,333,o),
(223,336,o),
(218,336,cs),
(211,336,o),
(205,330,o),
(205,323,cs),
(205,319,o),
(207,315,o),
(210,313,c),
(206,313,l),
(189,317,o),
(171,337,o),
(169,355,c),
(169,367,o),
(173,376,o),
(186,376,cs)
);
}
);
width = 609;
}
);
unicode = 80;
},
{
glyphname = N;
layers = (
{
background = {
shapes = (
{
closed = 1;
nodes = (
(228,491,o),
(234,479,o),
(242,469,cs),
(249,460,o),
(256,451,o),
(261,442,c),
(261,441,o),
(262,440,o),
(262,439,c),
(264,435,o),
(265,431,o),
(265,426,c),
(266,421,o),
(266,416,o),
(265,410,c),
(265,408,o),
(267,404,o),
(269,402,cs),
(271,400,o),
(274,398,o),
(277,398,c),
(281,399,o),
(284,400,o),
(286,402,cs),
(288,404,o),
(289,407,o),
(289,410,c),
(290,411,o),
(290,412,o),
(290,413,c),
(290,413,o),
(290,413,o),
(290,414,c),
(290,421,o),
(290,429,o),
(288,436,cs),
(287,443,o),
(284,449,o),
(280,456,cs),
(275,466,o),
(267,475,o),
(260,485,cs),
(256,490,o),
(253,496,o),
(250,502,cs),
(248,507,o),
(246,513,o),
(245,519,cs),
(244,528,o),
(244,536,o),
(245,544,cs),
(246,549,o),
(247,553,o),
(249,558,cs),
(251,562,o),
(253,566,o),
(256,569,cs),
(264,580,o),
(275,588,o),
(284,597,cs),
(289,603,o),
(294,609,o),
(298,616,cs),
(303,624,o),
(306,633,o),
(308,641,c),
(310,655,o),
(310,670,o),
(307,684,cs),
(306,687,o),
(304,690,o),
(301,691,c),
(299,693,o),
(295,693,o),
(292,692,cs),
(286,690,o),
(282,684,o),
(284,678,c),
(284,675,o),
(285,673,o),
(285,671,c),
(286,664,o),
(286,657,o),
(285,651,cs),
(284,645,o),
(283,640,o),
(281,635,cs),
(279,630,o),
(276,626,o),
(273,622,cs),
(265,612,o),
(256,604,o),
(247,595,cs),
(236,584,o),
(227,572,o),
(223,557,cs),
(221,548,o),
(220,538,o),
(221,529,c),
(221,520,o),
(222,512,o),
(224,503,c)
);
},
{
closed = 1;
nodes = (
(314,302,l),
(314,303,o),
(314,303,o),
(314,304,c),
(315,309,o),
(316,313,o),
(318,318,cs),
(320,322,o),
(322,326,o),
(325,330,cs),
(331,338,o),
(338,344,o),
(344,351,cs),
(348,356,o),
(352,361,o),
(355,366,cs),
(359,371,o),
(362,377,o),
(364,384,cs),
(366,390,o),
(368,396,o),
(369,403,cs),
(370,411,o),
(371,420,o),
(370,429,cs),
(369,436,o),
(368,443,o),
(365,450,cs),
(363,456,o),
(360,462,o),
(356,467,cs),
(349,477,o),
(340,486,o),
(333,495,c),
(332,496,o),
(332,497,o),
(331,498,c),
(327,503,o),
(324,508,o),
(321,514,cs),
(319,518,o),
(318,523,o),
(317,528,c),
(317,535,o),
(317,542,o),
(317,548,c),
(318,554,o),
(320,560,o),
(322,565,cs),
(324,571,o),
(327,575,o),
(330,580,cs),
(334,585,o),
(339,589,o),
(344,593,cs),
(349,597,o),
(354,600,o),
(360,603,cs),
(363,604,o),
(365,605,o),
(367,608,cs),
(368,611,o),
(369,614,o),
(368,617,cs),
(367,620,o),
(365,623,o),
(362,624,c),
(360,626,o),
(356,627,o),
(353,626,cs),
(348,624,o),
(342,621,o),
(337,618,cs),
(326,611,o),
(317,602,o),
(309,591,cs),
(299,577,o),
(294,560,o),
(293,543,cs),
(292,525,o),
(296,508,o),
(305,493,cs),
(313,481,o),
(323,471,o),
(331,460,c),
(332,459,o),
(333,458,o),
(334,457,c),
(337,453,o),
(340,448,o),
(342,443,cs),
(344,439,o),
(345,435,o),
(346,431,cs),
(347,423,o),
(346,416,o),
(345,408,cs),
(344,402,o),
(343,395,o),
(340,389,cs),
(338,383,o),
(335,378,o),
(331,373,cs),
(325,365,o),
(318,358,o),
(311,351,cs),
(303,342,o),
(297,331,o),
(293,319,cs),
(291,314,o),
(290,308,o),
(290,302,c)
);
},
{
closed = 1;
nodes = (
(304,701,o),
(281,697,o),
(283,681,cs),
(286,665,o),
(283,627,o),
(254,600,cs),
(240,587,o),
(219,561,o),
(219,530,cs),
(219,508,o),
(229,495,o),
(239,478,cs),
(253,460,o),
(273,439,o),
(267,414,cs),
(264,399,o),
(287,394,o),
(291,410,cs),
(297,441,o),
(277,468,o),
(259,492,cs),
(251,503,o),
(243,515,o),
(243,530,cs),
(243,551,o),
(258,571,o),
(270,582,cs),
(307,617,o),
(310,663,o),
(307,685,cs)
);
},
{
closed = 1;
nodes = (
(78,292,l),
(71,292,o),
(66,287,o),
(66,280,cs),
(66,181,o),
(126,94,o),
(217,57,c),
(62,57,ls),
(55,57,o),
(50,52,o),
(50,45,cs),
(50,38,o),
(55,33,o),
(62,33,cs),
(549,33,ls),
(556,33,o),
(561,38,o),
(561,45,cs),
(561,52,o),
(556,57,o),
(549,57,cs),
(395,57,l),
(423,68,o),
(449,85,o),
(472,107,c),
(473,106,o),
(475,106,o),
(476,106,c),
(574,106,ls),
(580,106,o),
(586,111,o),
(586,118,cs),
(586,234,ls),
(586,240,o),
(580,246,o),
(574,246,cs),
(543,246,l),
(545,257,o),
(546,268,o),
(546,280,cs),
(546,287,o),
(540,292,o),
(534,292,c)
);
},
{
closed = 1;
nodes = (
(562,130,l),
(493,130,l),
(515,157,o),
(530,188,o),
(538,222,c),
(562,222,l)
);
},
{
closed = 1;
nodes = (
(191,64,o),
(97,153,o),
(90,268,c),
(521,268,l),
(515,154,o),
(421,64,o),
(306,64,cs)
);
},
{
closed = 1;
nodes = (
(390,615,o),
(381,637,o),
(367,631,cs),
(347,623,o),
(294,597,o),
(294,540,cs),
(294,514,o),
(307,493,o),
(322,473,cs),
(332,456,o),
(346,442,o),
(346,420,cs),
(346,361,o),
(289,353,o),
(289,282,cs),
(289,266,o),
(313,266,o),
(313,282,cs),
(313,346,o),
(370,349,o),
(370,420,cs),
(370,451,o),
(357,463,o),
(342,487,cs),
(328,505,o),
(318,520,o),
(318,540,cs),
(318,581,o),
(355,601,o),
(375,609,cs)
);
}
);
};
layerId = "276078B1-9544-40AF-AB64-08B62BEE7F53";
associatedMasterId = "2337EC1E-F8DF-4C20-93B2-D6C634D9C8F1";
name = 1;
shapes = (
{
closed = 1;
nodes = (
(228,491,o),
(234,479,o),
(242,469,cs),
(249,460,o),
(256,451,o),
(261,442,c),
(261,441,o),
(262,440,o),
(262,439,c),
(264,435,o),
(265,431,o),
(265,426,c),
(266,421,o),
(266,416,o),
(265,410,c),
(265,408,o),
(267,404,o),
(269,402,cs),
(271,400,o),
(274,398,o),
(277,398,c),
(281,399,o),
(284,400,o),
(286,402,cs),
(288,404,o),
(289,407,o),
(289,410,c),
(290,411,o),
(290,412,o),
(290,413,c),
(290,413,o),
(290,413,o),
(290,414,c),
(290,421,o),
(290,429,o),
(288,436,cs),
(287,443,o),
(284,449,o),
(280,456,cs),
(275,466,o),
(267,475,o),
(260,485,cs),
(256,490,o),
(253,496,o),
(250,502,cs),
(248,507,o),
(246,513,o),
(245,519,cs),
(244,528,o),
(244,536,o),
(245,544,cs),
(246,549,o),
(247,553,o),
(249,558,cs),
(251,562,o),
(253,566,o),
(256,569,cs),
(264,580,o),
(275,588,o),
(284,597,cs),
(289,603,o),
(294,609,o),
(298,616,cs),
(303,624,o),
(306,633,o),
(308,641,c),
(310,655,o),
(310,670,o),
(307,684,cs),
(306,687,o),
(304,690,o),
(301,691,c),
(299,693,o),
(295,693,o),
(292,692,cs),
(286,690,o),
(282,684,o),
(284,678,c),
(284,675,o),
(285,673,o),
(285,671,c),
(286,664,o),
(286,657,o),
(285,651,cs),
(284,645,o),
(283,640,o),
(281,635,cs),
(279,630,o),
(276,626,o),
(273,622,cs),
(265,612,o),
(256,604,o),
(247,595,cs),
(236,584,o),
(227,572,o),
(223,557,cs),
(221,548,o),
(220,538,o),
(221,529,c),
(221,520,o),
(222,512,o),
(224,503,c)
);
},
{
closed = 1;
nodes = (
(543,246,l),
(545,257,o),
(546,268,o),
(546,280,cs),
(546,287,o),
(540,292,o),
(534,292,cs),
(313,292,l),
(314,293,o),
(314,294,o),
(314,295,c),
(314,298,o),
(314,301,o),
(314,304,c),
(315,309,o),
(316,313,o),
(318,318,cs),
(320,322,o),
(322,326,o),
(325,330,cs),
(331,338,o),
(338,344,o),
(344,351,cs),
(348,356,o),
(352,361,o),
(355,366,cs),
(359,371,o),
(362,377,o),
(364,384,cs),
(366,390,o),
(368,396,o),
(369,403,cs),
(370,411,o),
(371,420,o),
(370,429,cs),
(369,436,o),
(368,443,o),
(365,450,cs),
(363,456,o),
(360,462,o),
(356,467,cs),
(349,477,o),
(340,486,o),
(333,495,c),
(332,496,o),
(332,497,o),
(331,498,c),
(327,503,o),
(324,508,o),
(321,514,cs),
(319,518,o),
(318,523,o),
(317,528,c),
(317,535,o),
(317,542,o),
(317,548,c),
(318,554,o),
(320,560,o),
(322,565,cs),
(324,571,o),
(327,575,o),
(330,580,cs),
(334,585,o),
(339,589,o),
(344,593,cs),
(349,597,o),
(354,600,o),
(360,603,cs),
(363,604,o),
(365,605,o),
(367,608,cs),
(368,611,o),
(369,614,o),
(368,617,cs),
(367,620,o),
(365,623,o),
(362,624,c),
(360,626,o),
(356,627,o),
(353,626,cs),
(348,624,o),
(342,621,o),
(337,618,cs),
(326,611,o),
(317,602,o),
(309,591,cs),
(299,577,o),
(294,560,o),
(293,543,cs),
(292,525,o),
(296,508,o),
(305,493,cs),
(313,481,o),
(323,471,o),
(331,460,c),
(332,459,o),
(333,458,o),
(334,457,c),
(337,453,o),
(340,448,o),
(342,443,cs),
(344,439,o),
(345,435,o),
(346,431,cs),
(347,423,o),
(346,416,o),
(345,408,cs),
(344,402,o),
(343,395,o),
(340,389,cs),
(338,383,o),
(335,378,o),
(331,373,cs),
(325,365,o),
(318,358,o),
(311,351,cs),
(303,342,o),
(297,331,o),
(293,319,cs),
(291,313,o),
(290,306,o),
(290,299,c),
(290,298,o),
(290,298,o),
(290,297,c),
(290,296,o),
(290,296,o),
(290,295,c),
(290,294,o),
(290,293,o),
(290,292,c),
(78,292,ls),
(71,292,o),
(66,287,o),
(66,280,cs),
(66,181,o),
(126,94,o),
(217,57,c),
(62,57,ls),
(55,57,o),
(50,52,o),
(50,45,cs),
(50,38,o),
(55,33,o),
(62,33,cs),
(549,33,ls),
(556,33,o),
(561,38,o),
(561,45,cs),
(561,52,o),
(556,57,o),
(549,57,cs),
(395,57,l),
(423,68,o),
(449,85,o),
(472,107,c),
(473,106,o),
(475,106,o),
(476,106,c),
(574,106,ls),
(580,106,o),
(586,111,o),
(586,118,cs),
(586,234,ls),
(586,240,o),
(580,246,o),
(574,246,cs)
);
},
{
closed = 1;
nodes = (
(191,64,o),
(97,153,o),
(90,268,c),
(521,268,l),
(515,154,o),
(421,64,o),
(306,64,cs)
);
},
{
closed = 1;
nodes = (
(562,130,l),
(493,130,l),
(515,157,o),
(530,188,o),
(538,222,c),
(562,222,l)
);
}
);
width = 636;
},
{
layerId = "2337EC1E-F8DF-4C20-93B2-D6C634D9C8F1";
shapes = (
{
closed = 1;
nodes = (
(304,701,o),
(281,697,o),
(283,681,cs),
(286,665,o),
(283,627,o),
(254,600,cs),
(240,587,o),
(219,561,o),
(219,530,cs),
(219,479,o),
(276,453,o),
(267,414,cs),
(264,399,o),
(288,394,o),
(291,410,cs),
(302,463,o),
(243,491,o),
(243,530,cs),
(243,551,o),
(258,571,o),
(270,582,cs),
(307,617,o),
(310,663,o),
(307,685,cs)
);
},
{
closed = 1;
nodes = (
(78,292,ls),
(71,292,o),
(66,287,o),
(66,280,cs),
(66,181,o),
(126,94,o),
(217,57,c),
(62,57,ls),
(55,57,o),
(50,52,o),
(50,45,cs),
(50,38,o),
(55,33,o),
(62,33,cs),
(549,33,ls),
(556,33,o),
(561,38,o),
(561,45,cs),
(561,52,o),
(556,57,o),
(549,57,cs),
(395,57,l),
(423,68,o),
(451,84,o),
(474,106,c),
(574,106,ls),
(580,106,o),
(586,111,o),
(586,118,cs),
(586,234,ls),
(586,240,o),
(580,246,o),
(574,246,cs),
(543,246,l),
(545,257,o),
(546,268,o),
(546,280,cs),
(546,287,o),
(540,292,o),
(534,292,cs),
(314,292,l),
(320,347,o),
(370,353,o),
(370,420,cs),
(370,475,o),
(318,497,o),
(318,540,cs),
(318,581,o),
(355,601,o),
(375,609,cs),
(390,615,o),
(381,637,o),
(367,631,cs),
(347,623,o),
(294,597,o),
(294,540,cs),
(294,490,o),
(346,461,o),
(346,420,cs),
(346,364,o),
(294,354,o),
(289,292,c)
);
},
{
closed = 1;
nodes = (
(191,64,o),
(97,153,o),
(90,268,c),
(521,268,l),
(515,154,o),
(421,64,o),
(306,64,cs)
);
},
{
closed = 1;
nodes = (
(562,130,l),
(493,130,l),
(515,157,o),
(530,188,o),
(538,222,c),
(562,222,l)
);
}
);
width = 636;
}
);
unicode = 78;
},
{
glyphname = Y;
layers = (
{
layerId = "2337EC1E-F8DF-4C20-93B2-D6C634D9C8F1";
shapes = (
{
closed = 1;
nodes = (
(194,413,o),
(137,356,o),
(137,284,cs),
(137,213,o),
(194,156,o),
(265,156,cs),
(337,156,o),
(394,213,o),
(394,284,cs),
(394,356,o),
(337,413,o),
(265,413,cs)
);
},
{
closed = 1;
nodes = (
(208,180,o),
(161,227,o),
(161,284,cs),
(161,342,o),
(208,389,o),
(265,389,cs),
(323,389,o),
(370,342,o),
(370,284,cs),
(370,227,o),
(323,180,o),
(265,180,cs)
);
},
{
closed = 1;
nodes = (
(407,446,o),
(384,479,o),
(384,547,cs),
(384,613,o),
(331,666,o),
(265,666,cs),
(200,666,o),
(147,613,o),
(147,547,cs),
(147,479,o),
(124,446,o),
(99,412,cs),
(75,378,o),
(50,343,o),
(50,275,cs),
(50,157,o),
(147,60,o),
(265,60,cs),
(384,60,o),
(481,156,o),
(481,275,cs),
(481,343,o),
(456,378,o),
(432,412,cs)
);
},
{
closed = 1;
nodes = (
(160,84,o),
(74,170,o),
(74,275,cs),
(74,335,o),
(96,366,o),
(119,398,cs),
(154,449,o),
(171,484,o),
(171,547,cs),
(171,599,o),
(213,642,o),
(265,642,cs),
(318,642,o),
(360,599,o),
(360,547,cs),
(360,484,o),
(377,449,o),
(412,398,cs),
(435,366,o),
(457,335,o),
(457,275,cs),
(457,170,o),
(371,84,o),
(265,84,cs)
);
}
);
width = 531;
}
);
unicode = 89;
},
{
glyphname = t;
layers = (
{
layerId = "2337EC1E-F8DF-4C20-93B2-D6C634D9C8F1";
shapes = (
{
closed = 1;
nodes = (
(163,639,ls),
(158,644,o),
(151,644,o),
(146,639,cs),
(84,577,o),
(50,496,o),
(50,409,cs),
(50,229,o),
(197,83,o),
(376,83,cs),
(463,83,o),
(546,116,o),
(607,178,cs),
(611,182,o),
(612,190,o),
(607,195,cs)
);
},
{
closed = 1;
nodes = (
(118,397,l),
(120,336,o),
(144,279,o),
(185,235,c),
(154,204,l),
(105,257,o),
(77,325,o),
(74,397,c)
);
},
{
closed = 1;
nodes = (
(202,218,l),
(246,177,o),
(302,154,o),
(362,151,c),
(362,107,l),
(291,110,o),
(224,138,o),
(171,187,c)
);
},
{
closed = 1;
nodes = (
(247,174,o),
(141,280,o),
(141,409,cs),
(141,468,o),
(163,523,o),
(202,566,c),
(533,235,l),
(490,196,o),
(435,174,o),
(376,174,cs)
);
},
{
closed = 1;
nodes = (
(185,583,l),
(144,538,o),
(120,481,o),
(118,421,c),
(74,421,l),
(77,493,o),
(105,561,o),
(154,614,c)
);
},
{
closed = 1;
nodes = (
(386,150,l),
(448,153,o),
(505,176,o),
(550,218,c),
(581,187,l),
(528,138,o),
(459,109,o),
(386,107,c)
);
},
{
closed = 1;
nodes = (
(262,312,ls),
(257,307,o),
(257,299,o),
(262,295,c),
(264,292,o),
(268,291,o),
(271,291,cs),
(274,291,o),
(277,292,o),
(279,295,c),
(311,327,ls),
(315,331,o),
(315,339,o),
(311,343,cs),
(306,348,o),
(299,348,o),
(294,343,cs)
);
},
{
closed = 1;
nodes = (
(276,415,o),
(271,421,o),
(264,421,cs),
(219,421,ls),
(213,421,o),
(207,415,o),
(207,409,cs),
(207,402,o),
(213,397,o),
(219,397,cs),
(264,397,ls),
(271,397,o),
(276,402,o),
(276,409,cs)
);
},
{
closed = 1;
nodes = (
(370,309,o),
(364,303,o),
(364,297,cs),
(364,252,ls),
(364,245,o),
(370,240,o),
(376,240,cs),
(383,240,o),
(388,245,o),
(388,252,cs),
(388,297,ls),
(388,303,o),
(383,309,o),
(376,309,cs)
);
}
);
width = 661;
}
);
unicode = 116;
},
{
glyphname = z;
layers = (
{
layerId = "2337EC1E-F8DF-4C20-93B2-D6C634D9C8F1";
shapes = (
{
closed = 1;
nodes = (
(555,482,o),
(534,490,o),
(515,497,cs),
(495,504,o),
(482,510,o),
(479,523,cs),
(475,537,o),
(493,560,o),
(507,580,cs),
(524,604,o),
(543,631,o),
(543,653,cs),
(543,680,o),
(524,697,o),
(500,697,cs),
(457,697,o),
(443,664,o),
(436,627,cs),
(428,586,o),
(404,579,o),
(404,626,cs),
(404,641,o),
(406,658,o),
(406,668,cs),
(406,696,o),
(396,726,o),
(371,726,cs),
(349,726,o),
(333,710,o),
(329,689,cs),
(326,674,o),
(327,656,o),
(327,639,c),
(328,608,o),
(328,585,o),
(314,582,c),
(306,579,o),
(297,592,o),
(284,612,cs),
(276,625,o),
(267,639,o),
(256,649,cs),
(241,662,o),
(225,666,o),
(208,661,cs),
(191,657,o),
(180,644,o),
(178,628,cs),
(176,609,o),
(186,591,o),
(205,581,c),
(227,568,o),
(268,542,o),
(278,517,c),
(251,521,o),
(233,518,o),
(232,518,c),
(227,517,o),
(224,514,o),
(222,510,c),
(51,16,ls),
(49,11,o),
(52,5,o),
(56,2,cs),
(58,1,o),
(60,0,o),
(63,0,cs),
(66,0,o),
(69,1,o),
(71,4,c),
(435,380,ls),
(438,383,o),
(439,389,o),
(437,393,cs),
(429,409,o),
(420,423,o),
(411,436,c),
(413,437,o),
(414,438,o),
(415,441,c),
(416,441,o),
(418,444,o),
(426,447,c),
(453,454,o),
(466,441,o),
(480,426,cs),
(491,415,o),
(503,402,o),
(521,402,cs),
(524,402,o),
(528,403,o),
(532,404,cs),
(552,409,o),
(569,431,o),
(561,460,cs)
);
},
{
closed = 1;
nodes = (
(516,424,o),
(510,429,o),
(497,442,cs),
(482,459,o),
(461,481,o),
(420,470,cs),
(406,466,o),
(399,459,o),
(396,454,c),
(365,487,o),
(333,503,o),
(306,511,c),
(303,512,l),
(303,526,o),
(294,542,o),
(274,560,cs),
(257,577,o),
(233,592,o),
(217,601,cs),
(201,610,o),
(201,621,o),
(202,625,cs),
(203,631,o),
(207,636,o),
(214,638,cs),
(234,644,o),
(246,627,o),
(264,599,cs),
(278,577,o),
(294,551,o),
(321,558,c),
(336,563,o),
(345,574,o),
(349,593,cs),
(352,607,o),
(351,624,o),
(351,640,cs),
(351,654,o),
(345,701,o),
(369,701,cs),
(390,701,o),
(380,645,o),
(380,628,cs),
(380,607,o),
(386,569,o),
(414,569,cs),
(437,569,o),
(455,602,o),
(460,621,cs),
(465,642,o),
(471,673,o),
(499,673,cs),
(509,673,o),
(519,664,o),
(519,652,cs),
(519,640,o),
(502,613,o),
(488,595,cs),
(468,569,o),
(449,542,o),
(456,517,cs),
(463,491,o),
(487,482,o),
(507,474,cs),
(524,468,o),
(535,463,o),
(538,454,cs),
(542,438,o),
(533,429,o),
(525,427,cs)
);
},
{
closed = 1;
nodes = (
(349,326,l),
(336,346,o),
(318,351,o),
(309,350,c),
(302,350,o),
(298,343,o),
(298,337,cs),
(299,330,o),
(304,325,o),
(310,326,c),
(310,326,o),
(313,326,o),
(316,324,c),
(322,322,o),
(327,317,o),
(332,308,c),
(273,247,l),
(260,264,o),
(243,268,o),
(234,267,c),
(228,267,o),
(223,261,o),
(223,254,c),
(224,248,o),
(230,243,o),
(236,243,c),
(236,243,o),
(239,243,o),
(242,242,cs),
(248,240,o),
(252,236,o),
(256,229,c),
(175,145,l),
(163,159,o),
(148,162,o),
(140,162,cs),
(131,162,o),
(130,138,o),
(141,138,c),
(142,138,o),
(145,138,o),
(149,136,cs),
(152,134,o),
(155,132,o),
(158,128,c),
(92,59,l),
(148,221,l),
(153,220,o),
(161,217,o),
(166,208,cs),
(170,202,o),
(176,201,o),
(182,204,cs),
(188,208,o),
(190,215,o),
(186,221,cs),
(178,235,o),
(166,241,o),
(156,244,c),
(216,419,l),
(217,419,o),
(217,419,o),
(218,420,c),
(220,420,o),
(234,422,o),
(243,407,cs),
(246,401,o),
(254,399,o),
(259,402,cs),
(265,406,o),
(267,413,o),
(263,419,cs),
(252,437,o),
(235,442,o),
(225,443,c),
(243,495,l),
(321,495,o),
(374,459,o),
(411,390,c)
);
},
{
closed = 1;
nodes = (
(302,423,o),
(305,402,o),
(321,402,cs),
(331,402,o),
(342,397,o),
(346,389,cs),
(349,382,o),
(356,382,o),
(362,385,cs),
(368,388,o),
(371,399,o),
(368,404,cs),
(356,424,o),
(337,430,o),
(317,426,cs)
);
},
{
closed = 1;
nodes = (
(213,335,o),
(216,316,o),
(228,316,c),
(230,316,o),
(244,317,o),
(252,303,cs),
(255,299,o),
(259,297,o),
(263,297,c),
(265,297,o),
(267,297,o),
(269,299,c),
(275,302,o),
(276,309,o),
(273,315,cs),
(256,344,o),
(225,339,o),
(224,339,c)
);
}
);
width = 614;
}
);
unicode = 122;
},
{
glyphname = r;
layers = (
{
layerId = "2337EC1E-F8DF-4C20-93B2-D6C634D9C8F1";
shapes = (
{
closed = 1;
nodes = (
(100,56,o),
(139,47,o),
(201,47,cs),
(333,47,o),
(426,175,o),
(471,285,c),
(547,263,o),
(562,193,o),
(562,121,cs),
(562,115,o),
(568,108,o),
(574,108,c),
(592,108,o),
(612,171,o),
(615,183,cs),
(630,237,o),
(619,284,o),
(584,318,cs),
(567,335,o),
(548,346,o),
(528,351,c),
(554,358,o),
(592,361,o),
(635,343,cs),
(639,341,o),
(644,342,o),
(648,345,c),
(651,349,o),
(652,354,o),
(650,359,c),
(650,360,o),
(638,387,o),
(614,410,cs),
(584,438,o),
(550,448,o),
(513,441,c),
(518,475,o),
(520,509,o),
(520,545,cs),
(520,630,o),
(486,679,o),
(426,679,cs),
(359,679,o),
(332,632,o),
(332,517,c),
(298,535,o),
(261,535,o),
(225,516,cs),
(204,505,o),
(191,493,o),
(175,477,cs),
(172,474,o),
(171,468,o),
(174,464,cs),
(176,460,o),
(181,457,o),
(186,458,cs),
(218,462,o),
(249,457,o),
(277,443,c),
(228,442,o),
(188,417,o),
(161,370,cs),
(140,334,o),
(134,299,o),
(134,298,c),
(133,293,o),
(136,287,o),
(140,285,cs),
(142,284,o),
(144,284,o),
(146,284,c),
(149,284,o),
(152,285,o),
(155,288,c),
(155,289,o),
(214,355,o),
(279,355,cs),
(286,355,o),
(292,355,o),
(298,354,c),
(256,247,o),
(169,156,o),
(59,119,cs),
(50,116,o),
(48,101,o),
(55,95,cs)
);
},
{
closed = 1;
nodes = (
(173,71,o),
(136,74,o),
(106,87,c),
(232,87,o),
(337,195,o),
(402,291,c),
(404,291,l),
(406,291,o),
(423,293,o),
(447,290,c),
(406,192,o),
(319,71,o),
(201,71,cs)
);
},
{
closed = 1;
nodes = (
(176,339,o),
(173,337,o),
(170,335,c),
(193,382,o),
(221,419,o),
(279,419,cs),
(335,419,o),
(358,385,o),
(377,340,c),
(350,362,o),
(314,379,o),
(279,379,cs),
(247,379,o),
(212,366,o),
(178,341,cs)
);
},
{
closed = 1;
nodes = (
(501,382,o),
(505,399,o),
(508,415,c),
(541,425,o),
(571,417,o),
(597,393,cs),
(603,387,o),
(608,381,o),
(612,375,c),
(570,386,o),
(536,381,o),
(497,366,c)
);
},
{
closed = 1;
nodes = (
(472,655,o),
(496,617,o),
(496,545,cs),
(496,477,o),
(487,416,o),
(468,350,c),
(456,347,ls),
(434,339,o),
(417,329,o),
(406,321,c),
(400,360,o),
(378,405,o),
(344,426,c),
(351,463,o),
(357,496,o),
(357,542,cs),
(357,623,o),
(377,655,o),
(426,655,cs)
);
},
{
closed = 1;
nodes = (
(269,512,o),
(300,510,o),
(329,490,c),
(330,490,l),
(329,478,o),
(328,468,o),
(323,442,c),
(295,466,o),
(253,482,o),
(217,483,c),
(222,487,o),
(229,491,o),
(236,495,cs)
);
},
{
closed = 1;
nodes = (
(590,181,o),
(587,173,o),
(584,166,c),
(572,248,o),
(525,306,o),
(442,315,c),
(486,337,o),
(529,339,o),
(567,302,cs),
(596,273,o),
(604,235,o),
(592,190,cs)
);
},
{
closed = 1;
nodes = (
(345,337,o),
(363,321,o),
(381,303,c),
(323,215,o),
(218,103,o),
(103,111,c),
(204,158,o),
(281,243,o),
(321,347,c)
);
}
);
width = 702;
}
);
unicode = 114;
},
{
glyphname = f;
layers = (
{
layerId = "2337EC1E-F8DF-4C20-93B2-D6C634D9C8F1";
shapes = (
{
closed = 1;
nodes = (
(252,612,l),
(148,687,l),
(144,691,o),
(139,691,o),
(134,687,cs),
(130,684,o),
(128,679,o),
(130,674,cs),
(165,565,l),
(67,601,l),
(62,602,o),
(56,601,o),
(53,597,cs),
(50,593,o),
(50,587,o),
(52,583,cs),
(137,450,l),
(89,400,o),
(65,334,o),
(65,265,cs),
(65,126,o),
(169,3,o),
(313,3,cs),
(456,3,o),
(562,126,o),
(562,265,cs),
(562,292,o),
(558,318,o),
(551,343,c),
(551,344,o),
(550,346,o),
(550,347,c),
(538,386,o),
(517,421,o),
(489,451,cs),
(487,454,o),
(484,456,o),
(481,459,c),
(560,583,ls),
(563,587,o),
(562,593,o),
(559,597,cs),
(556,601,o),
(551,602,o),
(546,601,c),
(447,565,l),
(482,674,ls),
(484,679,o),
(482,684,o),
(478,687,cs),
(474,691,o),
(468,691,o),
(464,687,c),
(360,612,l),
(318,714,ls),
(314,725,o),
(298,725,o),
(294,714,cs)
);
},
{
closed = 1;
nodes = (
(180,534,ls),
(185,532,o),
(189,533,o),
(193,537,cs),
(196,540,o),
(197,545,o),
(196,549,cs),
(164,646,l),
(250,584,ls),
(253,582,o),
(257,581,o),
(261,582,cs),
(264,583,o),
(267,586,o),
(269,589,c),
(306,680,l),
(344,589,ls),
(345,586,o),
(348,583,o),
(352,582,cs),
(355,581,o),
(359,582,o),
(362,584,cs),
(448,646,l),
(417,549,l),
(415,545,o),
(416,540,o),
(420,537,c),
(423,533,o),
(428,532,o),
(432,534,cs),
(521,566,l),
(463,475,l),
(420,510,o),
(368,528,o),
(313,528,cs),
(255,528,o),
(199,507,o),
(154,467,c),
(92,566,l)
);
},
{
closed = 1;
nodes = (
(474,191,l),
(469,195,o),
(462,195,o),
(457,191,c),
(392,126,l),
(327,191,ls),
(323,195,o),
(315,195,o),
(310,191,c),
(245,125,l),
(179,191,ls),
(177,193,o),
(174,194,o),
(171,194,cs),
(168,194,o),
(165,193,o),
(162,191,c),
(118,147,l),
(107,168,o),
(98,191,o),
(94,215,c),
(171,292,l),
(236,227,ls),
(238,225,o),
(241,224,o),
(244,224,c),
(245,224,l),
(249,224,o),
(252,225,o),
(254,227,cs),
(319,292,l),
(382,229,ls),
(385,226,o),
(388,224,o),
(392,224,c),
(396,224,o),
(400,226,o),
(402,229,c),
(465,292,l),
(534,223,l),
(530,199,o),
(523,175,o),
(512,153,c)
);
},
{
closed = 1;
nodes = (
(238,27,o),
(173,65,o),
(131,125,c),
(171,165,l),
(236,100,ls),
(238,98,o),
(241,97,o),
(244,97,c),
(245,97,l),
(249,97,o),
(252,98,o),
(254,100,cs),
(319,165,l),
(382,102,ls),
(385,99,o),
(388,97,o),
(392,97,c),
(396,97,o),
(400,99,o),
(402,102,c),
(465,165,l),
(499,131,l),
(456,67,o),
(392,27,o),
(313,27,cs)
);
},
{
closed = 1;
nodes = (
(474,423,ls),
(469,428,o),
(462,428,o),
(457,423,cs),
(392,359,l),
(327,423,l),
(323,428,o),
(315,428,o),
(310,423,cs),
(245,358,l),
(179,423,l),
(175,428,o),
(167,428,o),
(162,423,cs),
(113,375,l),
(151,451,o),
(226,504,o),
(313,504,cs),
(389,504,o),
(463,462,o),
(501,396,c)
);
},
{
closed = 1;
nodes = (
(474,318,ls),
(469,323,o),
(462,323,o),
(457,318,cs),
(392,253,l),
(327,318,l),
(323,323,o),
(315,323,o),
(310,318,cs),
(245,252,l),
(179,318,l),
(175,323,o),
(167,323,o),
(162,318,cs),
(89,245,l),
(89,265,ls),
(89,287,o),
(91,309,o),
(97,330,c),
(100,329,o),
(103,331,o),
(106,333,c),
(171,398,l),
(236,333,ls),
(238,331,o),
(241,330,o),
(244,330,c),
(245,330,l),
(249,330,o),
(252,331,o),
(254,333,cs),
(319,398,l),
(382,334,ls),
(385,331,o),
(388,330,o),
(392,330,c),
(396,330,o),
(400,331,o),
(402,334,c),
(465,398,l),
(528,335,l),
(535,313,o),
(538,290,o),
(538,265,cs),
(538,254,l)
);
}
);
width = 612;
}
);
unicode = 102;
},
{
glyphname = n;
layers = (
{
layerId = "2337EC1E-F8DF-4C20-93B2-D6C634D9C8F1";
shapes = (
{
closed = 1;
nodes = (
(684,420,o),
(676,426,o),
(667,430,c),
(669,438,o),
(669,446,o),
(668,454,cs),
(655,533,ls),
(653,544,o),
(647,554,o),
(637,560,cs),
(627,565,o),
(615,566,o),
(604,561,c),
(603,561,l),
(572,611,ls),
(567,619,o),
(559,624,o),
(550,626,cs),
(541,628,o),
(532,626,o),
(525,621,cs),
(488,595,ls),
(480,589,o),
(475,580,o),
(474,571,cs),
(473,561,o),
(476,552,o),
(483,545,cs),
(507,520,l),
(494,513,o),
(487,498,o),
(489,483,cs),
(494,453,l),
(494,449,o),
(496,444,o),
(498,440,c),
(482,435,o),
(469,423,o),
(463,408,cs),
(431,331,ls),
(423,311,o),
(427,288,o),
(441,272,c),
(437,269,o),
(432,266,o),
(430,263,cs),
(412,238,ls),
(404,226,o),
(402,211,o),
(409,198,c),
(376,188,ls),
(366,185,o),
(359,179,o),
(355,170,cs),
(351,161,o),
(351,151,o),
(355,143,cs),
(374,102,ls),
(380,89,o),
(390,83,o),
(404,83,cs),
(410,83,o),
(415,84,o),
(420,87,cs),
(472,114,l),
(479,105,o),
(490,99,o),
(502,99,cs),
(513,99,o),
(524,104,o),
(531,113,cs),
(581,176,ls),
(584,179,o),
(588,186,o),
(591,195,c),
(597,195,o),
(604,193,o),
(611,193,cs),
(619,193,o),
(628,195,o),
(635,198,cs),
(651,206,o),
(662,219,o),
(666,236,cs),
(699,364,ls),
(703,380,o),
(700,398,o),
(690,411,cs)
);
},
{
closed = 1;
nodes = (
(498,570,o),
(499,573,o),
(502,575,cs),
(539,601,ls),
(541,602,o),
(543,603,o),
(546,602,c),
(548,602,o),
(550,601,o),
(552,598,cs),
(580,552,l),
(530,531,l),
(500,561,l),
(498,564,o),
(498,567,o),
(498,568,c)
);
},
{
closed = 1;
nodes = (
(394,470,l),
(403,471,o),
(413,477,o),
(418,484,cs),
(423,492,o),
(425,502,o),
(422,512,cs),
(411,555,ls),
(409,564,o),
(403,571,o),
(395,576,cs),
(387,580,o),
(377,581,o),
(368,578,cs),
(313,559,l),
(312,560,l),
(307,570,o),
(297,577,o),
(286,580,c),
(274,582,o),
(263,578,o),
(254,571,c),
(194,518,ls),
(191,515,o),
(185,509,o),
(181,501,c),
(180,500,l),
(180,499,l),
(170,502,o),
(160,502,o),
(150,500,c),
(133,495,o),
(120,484,o),
(113,469,cs),
(56,349,ls),
(49,334,o),
(49,316,o),
(56,301,cs),
(63,287,o),
(74,277,o),
(88,271,c),
(85,265,o),
(83,256,o),
(83,249,cs),
(82,169,ls),
(82,148,o),
(98,131,o),
(119,131,cs),
(122,131,o),
(125,131,o),
(127,132,c),
(129,132,l),
(150,77,l),
(154,69,o),
(161,62,o),
(169,59,cs),
(173,57,o),
(177,57,o),
(181,57,cs),
(186,57,o),
(191,58,o),
(196,60,cs),
(236,79,ls),
(245,83,o),
(251,91,o),
(254,100,cs),
(256,109,o),
(255,119,o),
(250,127,c),
(249,127,l),
(230,156,l),
(244,161,o),
(253,174,o),
(254,189,cs),
(255,219,l),
(255,224,o),
(254,229,o),
(253,233,c),
(274,237,o),
(291,251,o),
(298,273,cs),
(322,352,ls),
(327,368,o),
(325,385,o),
(316,399,c),
(321,401,o),
(325,403,o),
(328,406,cs),
(350,427,ls),
(361,437,o),
(365,453,o),
(360,466,c)
);
},
{
closed = 1;
nodes = (
(312,424,ls),
(304,417,o),
(296,420,o),
(291,422,c),
(201,488,l),
(202,490,o),
(205,495,o),
(210,500,cs),
(270,553,ls),
(273,556,o),
(277,557,o),
(281,556,cs),
(285,555,o),
(289,553,o),
(291,549,cs),
(337,460,ls),
(340,455,o),
(339,449,o),
(334,445,cs)
);
},
{
closed = 1;
nodes = (
(376,555,ls),
(378,556,o),
(381,556,o),
(383,554,cs),
(385,553,o),
(387,551,o),
(388,549,cs),
(399,505,ls),
(400,501,o),
(397,495,o),
(392,494,cs),
(349,489,l),
(324,537,l)
);
},
{
closed = 1;
nodes = (
(629,537,o),
(631,533,o),
(632,529,cs),
(644,450,ls),
(645,443,o),
(644,438,o),
(643,435,c),
(532,442,ls),
(527,442,o),
(518,446,o),
(517,456,cs),
(513,487,ls),
(512,493,o),
(516,498,o),
(521,501,c),
(613,539,ls),
(617,541,o),
(621,541,o),
(625,539,cs)
);
},
{
closed = 1;
nodes = (
(275,280,ls),
(270,263,o),
(252,253,o),
(235,257,cs),
(227,259,ls),
(225,260,o),
(222,261,o),
(219,262,cs),
(99,293,l),
(90,296,o),
(82,302,o),
(78,311,cs),
(74,320,o),
(74,330,o),
(78,339,cs),
(134,459,ls),
(138,467,o),
(146,474,o),
(156,476,cs),
(159,477,o),
(161,477,o),
(164,477,cs),
(171,477,o),
(178,475,o),
(183,471,cs),
(287,396,ls),
(299,387,o),
(303,373,o),
(299,359,cs)
);
},
{
closed = 1;
nodes = (
(161,438,o),
(146,425,o),
(137,407,c),
(116,368,ls),
(108,352,o),
(106,334,o),
(111,316,cs),
(112,311,o),
(117,307,o),
(122,307,c),
(123,307,o),
(124,308,o),
(126,308,c),
(132,310,o),
(136,316,o),
(134,322,cs),
(131,334,o),
(132,346,o),
(138,357,cs),
(158,396,ls),
(164,408,o),
(175,416,o),
(187,420,cs),
(194,422,o),
(197,429,o),
(195,435,cs),
(194,441,o),
(187,445,o),
(180,443,cs)
);
},
{
closed = 1;
nodes = (
(643,242,ls),
(640,232,o),
(634,224,o),
(625,220,cs),
(616,216,o),
(606,216,o),
(597,220,cs),
(470,279,ls),
(454,287,o),
(446,305,o),
(453,322,cs),
(485,399,ls),
(490,411,o),
(503,420,o),
(516,419,cs),
(646,411,ls),
(656,410,o),
(665,405,o),
(671,397,cs),
(676,389,o),
(678,379,o),
(676,370,cs)
);
},
{
closed = 1;
nodes = (
(608,387,o),
(607,379,o),
(611,374,cs),
(618,363,o),
(621,350,o),
(618,337,cs),
(608,294,l),
(606,282,o),
(599,272,o),
(589,265,cs),
(584,261,o),
(583,254,o),
(586,248,c),
(589,245,o),
(592,243,o),
(596,243,cs),
(599,243,o),
(601,244,o),
(603,245,cs),
(618,256,o),
(628,271,o),
(632,288,c),
(641,332,ls),
(645,351,o),
(642,371,o),
(631,387,cs),
(627,393,o),
(619,394,o),
(614,391,cs)
);
},
{
closed = 1;
nodes = (
(230,190,l),
(230,184,o),
(225,179,o),
(219,177,c),
(122,155,ls),
(118,154,o),
(114,155,o),
(111,158,cs),
(108,160,o),
(106,164,o),
(106,168,cs),
(107,248,ls),
(107,257,o),
(110,263,o),
(112,264,c),
(219,237,ls),
(224,236,o),
(231,230,o),
(231,220,c)
);
},
{
closed = 1;
nodes = (
(512,128,ls),
(510,125,o),
(506,123,o),
(502,123,cs),
(498,123,o),
(494,125,o),
(491,128,cs),
(431,208,ls),
(428,213,o),
(427,219,o),
(431,224,cs),
(449,248,ls),
(455,257,o),
(464,255,o),
(469,253,cs),
(564,209,ls),
(571,206,o),
(566,197,o),
(562,191,cs)
);
},
{
closed = 1;
nodes = (
(409,108,l),
(406,107,o),
(404,106,o),
(401,107,cs),
(399,108,o),
(397,110,o),
(396,112,cs),
(377,153,ls),
(376,156,o),
(376,159,o),
(377,160,c),
(378,162,o),
(379,164,o),
(383,165,cs),
(424,177,l),
(457,134,l)
);
},
{
closed = 1;
nodes = (
(230,105,o),
(229,102,o),
(226,101,cs),
(185,81,ls),
(183,80,o),
(180,80,o),
(178,81,cs),
(176,82,o),
(174,84,o),
(173,86,cs),
(152,137,l),
(205,149,l),
(229,114,ls),
(231,111,o),
(231,108,o),
(231,107,c)
);
}
);
width = 751;
}
);
unicode = 110;
},
{
glyphname = y;
layers = (
{
layerId = "2337EC1E-F8DF-4C20-93B2-D6C634D9C8F1";
shapes = (
{
closed = 1;
nodes = (
(555,601,o),
(449,689,o),
(368,689,cs),
(362,690,o),
(355,684,o),
(355,677,cs),
(353,398,ls),
(353,392,o),
(359,386,o),
(365,386,c),
(367,386,o),
(369,387,o),
(371,388,cs),
(597,525,ls),
(600,527,o),
(602,530,o),
(602,533,c),
(603,537,o),
(602,540,o),
(600,543,cs)
);
},
{
closed = 1;
nodes = (
(377,420,l),
(379,663,l),
(453,651,o),
(526,595,o),
(573,539,c)
);
},
{
closed = 1;
nodes = (
(319,329,o),
(322,330,o),
(324,332,cs),
(327,335,o),
(329,339,o),
(328,344,cs),
(279,607,ls),
(278,612,o),
(274,616,o),
(268,617,c),
(162,617,o),
(85,539,o),
(51,443,cs),
(49,437,o),
(52,430,o),
(58,428,cs),
(312,330,l),
(314,330,o),
(315,329,o),
(316,329,c)
);
},
{
closed = 1;
nodes = (
(78,446,l),
(109,523,o),
(170,586,o),
(257,593,c),
(301,360,l)
);
},
{
closed = 1;
nodes = (
(113,308,ls),
(107,308,o),
(101,302,o),
(101,296,cs),
(101,199,o),
(159,112,o),
(248,74,c),
(194,20,ls),
(191,17,o),
(189,12,o),
(191,7,cs),
(193,3,o),
(198,0,o),
(202,0,cs),
(487,0,ls),
(492,0,o),
(496,3,o),
(498,7,cs),
(500,12,o),
(499,17,o),
(496,20,cs),
(439,77,l),
(526,116,o),
(581,200,o),
(581,296,cs),
(581,302,o),
(576,308,o),
(569,308,cs)
);
},
{
closed = 1;
nodes = (
(458,24,l),
(231,24,l),
(273,66,l),
(295,59,o),
(318,56,o),
(341,56,cs),
(367,56,o),
(391,60,o),
(415,67,c)
);
},
{
closed = 1;
nodes = (
(226,80,o),
(132,169,o),
(125,284,c),
(557,284,l),
(550,169,o),
(456,80,o),
(341,80,cs)
);
},
{
closed = 1;
nodes = (
(417,598,o),
(411,592,o),
(411,585,cs),
(411,578,o),
(417,572,o),
(424,572,cs),
(431,572,o),
(437,578,o),
(437,585,cs),
(437,592,o),
(431,598,o),
(424,598,cs)
);
},
{
closed = 1;
nodes = (
(490,580,o),
(484,575,o),
(484,567,cs),
(484,560,o),
(490,554,o),
(497,554,cs),
(504,554,o),
(510,560,o),
(510,567,cs),
(510,575,o),
(504,580,o),
(497,580,cs)
);
},
{
closed = 1;
nodes = (
(441,524,o),
(435,518,o),
(435,511,cs),
(435,504,o),
(441,498,o),
(448,498,cs),
(456,498,o),
(462,504,o),
(462,511,cs),
(462,518,o),
(456,524,o),
(448,524,cs)
);
},
{
closed = 1;
nodes = (
(222,451,o),
(216,445,o),
(216,438,cs),
(216,430,o),
(222,425,o),
(229,425,cs),
(236,425,o),
(242,430,o),
(242,438,cs),
(242,445,o),
(236,451,o),
(229,451,cs)
);
},
{
closed = 1;
nodes = (
(235,525,o),
(229,519,o),
(229,512,cs),
(229,505,o),
(235,499,o),
(242,499,cs),
(249,499,o),
(255,505,o),
(255,512,cs),
(255,519,o),
(249,525,o),
(242,525,cs)
);
},
{
closed = 1;
nodes = (
(138,500,o),
(132,494,o),
(132,486,cs),
(132,479,o),
(138,473,o),
(145,473,cs),
(152,473,o),
(158,479,o),
(158,486,cs),
(158,494,o),
(152,500,o),
(145,500,cs)
);
}
);
width = 653;
}
);
unicode = 121;
},
